<?xml version="1.0" standalone="no"?>
<!DOCTYPE svg PUBLIC "-//W3C//DTD SVG 1.1//EN" "http://www.w3.org/Graphics/SVG/1.1/DTD/svg11.dtd" >
<svg>
<metadata>
Created by FontForge 20090914 at Thu Jan 17 10:54:51 2019
 By www-data
Copyright 1990-1992 Bitstream Inc.  All rights reserved.
</metadata>
<defs>
<font id="CooperBT-Light" horiz-adv-x="1024" >
  <font-face 
    font-family="Cooper Lt BT"
    font-weight="400"
    font-stretch="normal"
    units-per-em="2048"
    panose-1="2 8 5 3 4 3 11 2 4 4"
    ascent="1638"
    descent="-410"
    x-height="1032"
    cap-height="1501"
    bbox="-276 -483 2320 1974"
    underline-thickness="102"
    underline-position="-154"
    unicode-range="U+0020-U+F002"
  />
<missing-glyph horiz-adv-x="1229" 
d="M102 -362v1806h1024v-1806h-1024zM217 -248h795v1577h-795v-1577z" />
    <glyph glyph-name=".notdef" horiz-adv-x="1229" 
d="M102 -362v1806h1024v-1806h-1024zM217 -248h795v1577h-795v-1577z" />
    <glyph glyph-name="space" unicode=" " horiz-adv-x="551" 
 />
    <glyph glyph-name="exclam" unicode="!" horiz-adv-x="664" 
d="M332 428c-12.667 0 -22.999 10.166 -30.999 30.499s-15.333 57.166 -22 110.499c-16.667 118 -29.167 239 -37.5 363s-12.5 246.667 -12.5 368c0 76.667 8 131.334 24 164.001s42.333 49 79 49c36 0 61.667 -16.167 77 -48.5s23 -87.166 23 -164.499
c0 -125.333 -4 -250.333 -12 -375s-19.667 -243.334 -35 -356.001c-7.33301 -53.333 -14.833 -90.166 -22.5 -110.499s-17.834 -30.5 -30.501 -30.5zM219.001 75.999c0 30.667 10.999 57 32.999 79s48.667 33 80 33c30.667 0 56.667 -11 78 -33s32 -49 32 -81
c0 -30 -11.167 -56 -33.5 -78s-49.166 -33 -80.499 -33s-57.333 10.667 -78 32s-31 48.333 -31 81z" />
    <glyph glyph-name="quotedbl" unicode="&#x22;" horiz-adv-x="678" 
d="M518 864l-31.001 -0.000976562l-65 457c0 1.33301 -0.333008 3.33301 -1 6c-2 14.667 -3 25.667 -3 33c0 32.667 7.5 57.834 22.5 75.501s36.167 26.5 63.5 26.5c26.667 0 47.334 -8.66699 62.001 -26s22 -42 22 -74c0 -9.33301 -0.166992 -17 -0.5 -23
s-0.833008 -12 -1.5 -18zM189.999 863.999l-32.001 -0.000976562l-64 457l-3 26c-0.666992 6 -1 11 -1 15c0 32 7.33301 56.667 22 74s35.334 26 62.001 26c27.333 0 48.5 -8.66699 63.5 -26s22.5 -42 22.5 -74c0 -6 -1 -17.333 -3 -34
c-0.666992 -3.33301 -1 -5.66602 -1 -6.99902z" />
    <glyph glyph-name="numbersign" unicode="#" horiz-adv-x="1575" 
d="M700 868l-100 -286h289l102 286h-291zM778 1456h133l-168 -471h287l168 471h131l-166 -471h307l-40 -117h-310l-100 -286h332l-43 -115h-330l-166 -469h-133l166 469h-287l-166 -469h-131l166 469h-324l43 115h322l100 286h-348l43 117h348z" />
    <glyph glyph-name="dollar" unicode="$" horiz-adv-x="1100" 
d="M518 -4c-131.333 5.33301 -222.834 28.9961 -274.501 70.9961s-77.5 111.667 -77.5 209c0 29.333 5 52.166 15 68.499s24 24.5 42 24.5c32.667 0 57.334 -30.333 74.001 -91c8.66699 -31.333 17 -54.666 25 -69.999c15.333 -30 40.166 -55.333 74.499 -76
s74.833 -34.667 121.5 -42v518c-116 48.667 -200.333 101.5 -253 158.5s-79 123.833 -79 200.5c0 89.333 30.167 164.333 90.5 225s140.833 96 241.5 106v156c0 12.667 3 22 9 28s16 9 30 9h18c12.667 0 22 -3 28 -9s9 -15.333 9 -28v-156
c122 -12.667 206.167 -34.5 252.5 -65.5s69.5 -80.167 69.5 -147.5c0 -18 -4.16699 -31.667 -12.5 -41s-21.166 -14 -38.499 -14c-25.333 0 -51.666 19 -78.999 57c-10.667 14.667 -19.334 25.667 -26.001 33c-23.333 26.667 -48 46.834 -74 60.501
s-56.333 22.834 -91 27.501l-1 -463c135.333 -59.333 231 -119.166 287 -179.499s84 -132.166 84 -215.499c0 -90 -33.167 -166.5 -99.5 -229.5s-156.833 -103.167 -271.5 -120.5v-199c0 -12.667 -3 -22 -9 -28s-16 -9 -30 -9h-18c-12 0 -21.167 3.16699 -27.5 9.5
s-9.5 15.5 -9.5 27.5v195zM611.999 93.9961c69.333 17.333 121.833 45.5 157.5 84.5s53.5 87.5 53.5 145.5c0 50.667 -15.833 94 -47.5 130s-86.167 71.667 -163.5 107v-467zM517.999 792.996v415.001c-54.667 -8.66699 -97 -29.834 -127 -63.501s-45 -76.5 -45 -128.5
c0 -48 14 -90 42 -126s71.333 -68.333 130 -97z" />
    <glyph glyph-name="percent" unicode="%" horiz-adv-x="1550" 
d="M152 1022c0 -98 19.332 -177.834 57.999 -239.501s88 -92.5 148 -92.5c57.333 0 101.833 19.833 133.5 59.5s47.5 95.834 47.5 168.501c0 91.333 -20.667 169.333 -62 234s-89.666 97 -144.999 97c-54 0 -97.5 -20.667 -130.5 -62s-49.5 -96.333 -49.5 -165z
M11.999 980.999c0 98.667 31.833 180.333 95.5 245s142.5 97 236.5 97c98 0 178.167 -33.5 240.5 -100.5s93.5 -153.5 93.5 -259.5c0 -101.333 -30.167 -184.5 -90.5 -249.5s-137.5 -97.5 -231.5 -97.5c-98 0 -179.833 34.667 -245.5 104s-98.5 156.333 -98.5 261z
M1214 1266c0 -4.66699 -65.168 -106.167 -195.501 -304.5l-387.5 -613.5c-42.667 -70 -88.167 -150.333 -136.5 -241s-78.833 -136 -91.5 -136c-15.333 0 -33.166 6.66699 -53.499 20s-30.5 26 -30.5 38c0 8 54 95.667 162 263l303 482l188 314
c92 156.667 144.667 235 158 235c14 0 31.5 -7 52.5 -21s31.5 -26 31.5 -36zM996.998 376.998c0 -98 19.501 -177.833 58.501 -239.5s88.5 -92.5 148.5 -92.5c57.333 0 101.666 20 132.999 60s47 96.333 47 169c0 92 -20.5 170 -61.5 234s-89.167 96 -144.5 96
c-54.667 0 -98.5 -20.667 -131.5 -62s-49.5 -96.333 -49.5 -165zM857.999 335.998c0 98.667 31.833 180.333 95.5 245s142.5 97 236.5 97c98 0 178.167 -33.5 240.5 -100.5s93.5 -153.833 93.5 -260.5c0 -100.667 -30.167 -183.5 -90.5 -248.5s-137.5 -97.5 -231.5 -97.5
c-98 0 -179.833 34.667 -245.5 104s-98.5 156.333 -98.5 261z" />
    <glyph glyph-name="ampersand" unicode="&#x26;" horiz-adv-x="1628" 
d="M442 891c-50.667 -31.333 -89.499 -75.666 -116.499 -132.999s-40.5 -124.333 -40.5 -201c0 -145.333 48.333 -264.333 145 -357s221 -139 373 -139c133.333 0 241.666 35.333 324.999 106s125 161.667 125 273c0 68.667 -17.333 124.5 -52 167.5
s-79.334 64.5 -134.001 64.5c-53.333 0 -98 -18.333 -134 -55s-54 -82.667 -54 -138c0 -7.33301 1 -19.666 3 -36.999v-6c-7.33301 -1.33301 -13.166 -2.33301 -17.499 -3s-7.83301 -1 -10.5 -1c-24 0 -43 8.83301 -57 26.5s-21 41.5 -21 71.5
c0 48 19.167 91.833 57.5 131.5s103.833 81.834 196.5 126.501c20.667 10.667 52 25.667 94 45c112.667 52 194 96 244 132c38 27.333 67.333 59.166 88 95.499s31 74.166 31 113.499c0 30.667 -9.66699 56.667 -29 78s-43.333 32 -72 32c-10 0 -25.167 -2.66699 -45.5 -8
s-35.833 -8 -46.5 -8c-10 0 -18.667 4 -26 12s-11 17.667 -11 29c0 21.333 16.167 41 48.5 59s70.166 27 113.499 27c68 0 121.833 -19.833 161.5 -59.5s59.5 -93.5 59.5 -161.5c0 -86.667 -34.333 -161.834 -103 -225.501s-189 -129.834 -361 -198.501l2 -15
c79.333 -20 140 -56.333 182 -109s63 -118 63 -196c0 -52 -13.5 -104.333 -40.5 -157s-65.167 -101.334 -114.5 -146.001c-60.667 -54.667 -134.334 -95.667 -221.001 -123s-185.667 -41 -297 -41c-85.333 0 -166.333 11.333 -243 34s-146.667 55.667 -210 99
c-69.333 48 -122.833 108.333 -160.5 181s-56.5 151.667 -56.5 237c0 89.333 21.5 168 64.5 236s108.833 127.333 197.5 178v14c-30 28 -52.5 60 -67.5 96s-22.5 75.667 -22.5 119c0 104.667 37.5 189.834 112.5 255.501s172.5 98.5 292.5 98.5
c80.667 0 148.667 -14.167 204 -42.5s83 -61.166 83 -98.499c0 -14 -4.16699 -25.333 -12.5 -34s-19.166 -13 -32.499 -13c-5.33301 0 -32.5 14.333 -81.5 43s-99.5 43 -151.5 43c-69.333 0 -125.333 -20 -168 -60s-64 -92.333 -64 -157c0 -50 10.333 -92.167 31 -126.5
s52 -61.166 94 -80.499c14.667 -6.66699 35 -11.834 61 -15.501s39 -9.5 39 -17.5c0 -30 -6.66699 -52.5 -20 -67.5s-33.666 -22.5 -60.999 -22.5c-12.667 0 -30 2.33301 -52 7s-50 12 -84 22z" />
    <glyph glyph-name="quotesingle" unicode="'" horiz-adv-x="348" 
d="M190 864l-31.999 0.000976562l-66 457c-0.666992 5.33301 -1.16699 10.666 -1.5 15.999s-0.5 13 -0.5 23c0 33.333 7.16699 58.666 21.5 75.999s35.166 26 62.499 26s48.5 -8.66699 63.5 -26s22.5 -42 22.5 -74c0 -6 -1 -17.333 -3 -34
c-0.666992 -3.33301 -1 -5.66602 -1 -6.99902z" />
    <glyph glyph-name="parenleft" unicode="(" horiz-adv-x="725" 
d="M328 600c0 -166 17.3311 -307.835 51.998 -425.502s87.667 -213.5 159 -287.5c33.333 -35.333 75 -70.333 125 -105s75 -59.667 75 -75c0 -8 -3 -14 -9 -18s-15.333 -6 -28 -6c-26 0 -61.667 14.167 -107 42.5s-91.333 66.5 -138 114.5
c-96.667 98.667 -170.667 213.334 -222 344.001s-77 269.334 -77 416.001c0 122.667 18.167 240 54.5 352s89.833 215.333 160.5 310c55.333 74 115 135.167 179 183.5s114 72.5 150 72.5c12.667 0 22.334 -2.5 29.001 -7.5s10 -11.5 10 -19.5
c0 -16 -19.167 -36.5 -57.5 -61.5s-68.166 -46.833 -89.499 -65.5c-92.667 -82.667 -160.167 -184.667 -202.5 -306s-63.5 -274 -63.5 -458z" />
    <glyph glyph-name="parenright" unicode=")" horiz-adv-x="725" 
d="M399 600c0 166 -17.3311 307.832 -51.998 425.499s-87.667 213.5 -159 287.5c-33.333 36 -75 70.833 -125 104.5s-75 58.167 -75 73.5c0 8.66699 3.16699 15.334 9.5 20.001s15.5 7 27.5 7c26 0 61.667 -14.333 107 -43s91.333 -67 138 -115
c96.667 -98.667 170.667 -213.334 222 -344.001s77 -269.334 77 -416.001c0 -123.333 -18.167 -241.333 -54.5 -354s-89.833 -215.667 -160.5 -309c-54.667 -74 -114.167 -134.833 -178.5 -182.5s-114.5 -71.5 -150.5 -71.5c-12.667 0 -22.334 2 -29.001 6s-10 10 -10 18
c0 16 19.167 36.5 57.5 61.5s68.166 46.833 89.499 65.5c92.667 82.667 160.167 184.834 202.5 306.501s63.5 274.834 63.5 459.501z" />
    <glyph glyph-name="asterisk" unicode="*" 
d="M549 991c0 30 -4.33008 56.332 -12.9971 78.999s-17.334 34 -26.001 34c-9.33301 0 -18.166 -11.167 -26.499 -33.5s-12.5 -48.833 -12.5 -79.5c0 -4 0.333008 -11.833 1 -23.5s1 -20.834 1 -27.501c0 -33.333 -10.833 -60.833 -32.5 -82.5s-49.167 -32.5 -82.5 -32.5
c-32.667 0 -59.834 11 -81.501 33s-32.5 49.333 -32.5 82c0 25.333 9.33301 49.833 28 73.5s36 35.5 52 35.5c28 0 58.833 9.83301 92.5 29.5s50.5 36.167 50.5 49.5c0 8.66699 -3.66699 14.667 -11 18s-20.666 5 -39.999 5c-22 0 -49.667 -6.16699 -83 -18.5
s-57 -18.5 -71 -18.5c-31.333 0 -57.833 10.667 -79.5 32s-32.5 47.666 -32.5 78.999c0 34 10.667 61.833 32 83.5s48.666 32.5 81.999 32.5c22 0 41.5 -5.5 58.5 -16.5s33.833 -29.167 50.5 -54.5c17.333 -26 35.666 -47.167 54.999 -63.5s34.333 -24.5 45 -24.5
c4 0 7.66699 1.66699 11 5s5 7 5 11c0 26.667 -15.667 61.667 -47 105s-47 76.666 -47 99.999c0 33.333 11.167 61.5 33.5 84.5s49.5 34.5 81.5 34.5c32.667 0 60 -11.167 82 -33.5s33 -49.5 33 -81.5c0 -23.333 -15.833 -57.166 -47.5 -101.499
s-47.5 -80.166 -47.5 -107.499c0 -4 1.5 -7.66699 4.5 -11s6.5 -5 10.5 -5c10.667 0 25.667 8 45 24s37.666 36.667 54.999 62c20 28.667 37.833 48 53.5 58s34.167 15 55.5 15c32 0 59.333 -10.5 82 -31.5s34 -46.5 34 -76.5c0 -33.333 -11.167 -61.5 -33.5 -84.5
s-49.833 -34.5 -82.5 -34.5c-12.667 0 -35.167 6.16699 -67.5 18.5s-60.5 18.5 -84.5 18.5c-19.333 0 -32.333 -1.66699 -39 -5s-10 -9.33301 -10 -18c0 -19.333 33 -40.666 99 -63.999l44 -15c24 -7.33301 43.333 -21.333 58 -42s22 -43.667 22 -69
c0 -30.667 -11.5 -57.167 -34.5 -79.5s-50.5 -33.5 -82.5 -33.5c-31.333 0 -57.833 11.167 -79.5 33.5s-32.5 49.5 -32.5 81.5c0 8.66699 0.333008 18.834 1 30.501s1 18.5 1 20.5z" />
    <glyph glyph-name="plus" unicode="+" horiz-adv-x="1706" 
d="M795 1221h118v-551h539v-117h-539v-553h-118v553h-541v117h541v551z" />
    <glyph glyph-name="comma" unicode="," horiz-adv-x="551" 
d="M152 90c0 34 10.166 62 30.499 84s46.833 33 79.5 33c34.667 0 63.5 -15 86.5 -45s34.5 -68.333 34.5 -115c0 -34 -6.66699 -69.5 -20 -106.5s-36.666 -82.833 -69.999 -137.5c-20 -32 -35 -53.667 -45 -65s-19 -17 -27 -17c-14 0 -26.333 2.83301 -37 8.5
s-16 11.834 -16 18.501c0 5.33301 15.333 31.666 46 78.999s46 85.333 46 114c0 9.33301 -1.66699 16.333 -5 21s-12 9.66699 -26 15c-26 10.667 -45.333 25.167 -58 43.5s-19 41.5 -19 69.5z" />
    <glyph glyph-name="hyphen" unicode="-" horiz-adv-x="627" 
d="M313 459c-38 0 -77.6699 -1 -119.003 -3s-63 -3 -65 -3c-20 0 -33.833 2.5 -41.5 7.5s-11.5 13.833 -11.5 26.5c0 30.667 9.83301 56.5 29.5 77.5s45.834 31.5 78.501 31.5h18c46.667 -1.33301 92 -2 136 -2c26.667 0 57.834 1 93.501 3s57.834 3 66.501 3
c19.333 0 33 -2.66699 41 -8s12 -14.333 12 -27c0 -30 -9.83301 -55.5 -29.5 -76.5s-46.167 -31.5 -79.5 -31.5c-2 0 -17.5 0.333008 -46.5 1s-56.5 1 -82.5 1z" />
    <glyph glyph-name="period" unicode="." horiz-adv-x="551" 
d="M156 90c0 34.667 11.167 63.5 33.5 86.5s50.5 34.5 84.5 34.5s62.667 -11.667 86 -35s35 -52 35 -86c0 -32.667 -11.667 -60.667 -35 -84s-52 -35 -86 -35c-33.333 0 -61.333 11.333 -84 34s-34 51 -34 85z" />
    <glyph glyph-name="slash" unicode="/" horiz-adv-x="569" 
d="M-2 -158c-4 -11.333 -10.665 -19.498 -19.998 -24.498s-22.333 -7.5 -39 -7.5s-28.834 2 -36.501 6s-11.5 10.667 -11.5 20c0 6.66699 0.666992 13.167 2 19.5s3.66602 12.833 6.99902 19.5l610 1608c4.66699 12 11.5 20.833 20.5 26.5s21.833 8.5 38.5 8.5
c16.667 -0.666992 29 -2.83398 37 -6.50098s12 -9.16699 12 -16.5c0 -6 -0.833008 -12.833 -2.5 -20.5s-4.16699 -15.834 -7.5 -24.501z" />
    <glyph glyph-name="zero" unicode="0" horiz-adv-x="1100" 
d="M1030 627c0 -186.667 -44.834 -342.668 -134.501 -468.001s-198.5 -188 -326.5 -188c-50 0 -99.667 10.667 -149 32s-93.666 51 -132.999 89c-72.667 72 -127 155.833 -163 251.5s-54 204.5 -54 326.5c0 102 13.833 193.833 41.5 275.5s70.5 156.834 128.5 225.501
c40 48.667 85.833 86.167 137.5 112.5s104.834 39.5 159.501 39.5c48 0 96.167 -10.5 144.5 -31.5s92.166 -50.833 131.499 -89.5c74 -72.667 128.667 -156 164 -250s53 -202.333 53 -325zM581.999 65.999c79.333 0 142.5 44.666 189.5 133.999s70.5 211 70.5 365
c0 190 -31.5 348.167 -94.5 474.5s-138.833 189.5 -227.5 189.5c-79.333 0 -142.5 -44.167 -189.5 -132.5s-70.5 -208.166 -70.5 -359.499c0 -194.667 31.167 -355.167 93.5 -481.5s138.5 -189.5 228.5 -189.5z" />
    <glyph glyph-name="one" unicode="1" horiz-adv-x="1100" 
d="M489 573l0.000976562 92.9922c0 216.667 -3.16699 353.334 -9.5 410.001s-18.166 85 -35.499 85c-12.667 0 -34.667 -5.16699 -66 -15.5s-55.666 -15.5 -72.999 -15.5c-13.333 0 -23.833 3.66699 -31.5 11s-11.5 17.333 -11.5 30c0 15.333 6.83301 28.333 20.5 39
s38.167 22.334 73.5 35.001c64 22.667 125.5 40.667 184.5 54s102.833 20 131.5 20c16.667 0 30 -3.5 40 -10.5s15 -16.5 15 -28.5c0 -15.333 -9.33301 -27.666 -28 -36.999s-29.334 -15.666 -32.001 -18.999c-8 -9.33301 -13.667 -31.166 -17 -65.499s-5 -99.5 -5 -195.5
v-80v-90v-175v-149c0 -123.333 1.33301 -208.333 4 -255s6.66699 -74.667 12 -84c6 -9.33301 15.5 -16.666 28.5 -21.999s37.833 -10.666 74.5 -15.999c6.66699 -1.33301 16.334 -3 29.001 -5c35.333 -6 53 -18 53 -36c0 -21.333 -18.833 -36.166 -56.5 -44.499
s-112.5 -12.5 -224.5 -12.5c-124.667 0 -206.334 4 -245.001 12s-58 22.333 -58 43c0 11.333 3.66699 20 11 26s23.666 11.667 48.999 17c1.33301 0 3.66602 0.333008 6.99902 1c72 4 116 12.667 132 26c10.667 8.66699 18 32.167 22 70.5s6 115.833 6 232.5v151z" />
    <glyph glyph-name="two" unicode="2" horiz-adv-x="1100" 
d="M338 154h399.003c41.333 0 73 4.5 95 13.5s39.667 24.167 53 45.5c8 13.333 18 32.333 30 57c26.667 53.333 50 80 70 80c14 0 24.333 -4.33301 31 -13s10 -22 10 -40c0 -22.667 -7.33301 -56.667 -22 -102s-35.334 -96 -62.001 -152
c-20.667 -45.333 -36.834 -74.333 -48.501 -87s-24.834 -19 -39.501 -19c-10 0 -18.333 4.33301 -25 13s-10 20 -10 34c0 1.33301 0.333008 3.66602 1 6.99902s1 6.33301 1 9h-678c-38 0 -65.5 3.5 -82.5 10.5s-25.5 18.5 -25.5 34.5c0 21.333 43 71 129 149l119 111
c187.333 180 312 316.667 374 410s93 181.333 93 264c0 70.667 -20.5 126.167 -61.5 166.5s-97.833 60.5 -170.5 60.5c-46.667 0 -91.5 -10 -134.5 -30s-84.167 -50.333 -123.5 -91c-13.333 -13.333 -30.333 -32.666 -51 -57.999c-33.333 -40 -58.666 -60 -75.999 -60
c-10.667 0 -19.834 3.5 -27.501 10.5s-11.5 15.833 -11.5 26.5c0 21.333 8.33301 45.833 25 73.5s42 58.167 76 91.5c47.333 48.667 101.5 85.834 162.5 111.501s125.5 38.5 193.5 38.5c117.333 0 211.5 -31.833 282.5 -95.5s106.5 -147.834 106.5 -252.501
c0 -88 -27.667 -174.5 -83 -259.5s-159.333 -193.833 -312 -326.5c-92.667 -78.667 -154.834 -133.5 -186.501 -164.5s-47.5 -51.167 -47.5 -60.5c0 -2 2.33301 -3.5 7 -4.5s11.334 -1.5 20.001 -1.5z" />
    <glyph glyph-name="three" unicode="3" horiz-adv-x="1100" 
d="M666 948c0 72.667 -20.501 131.167 -61.501 175.5s-94.5 66.5 -160.5 66.5c-30 0 -62.333 -5.33301 -97 -16s-71.334 -26.667 -110.001 -48c-11.333 -6 -26.333 -15 -45 -27c-30.667 -20 -52.334 -30 -65.001 -30c-11.333 0 -20.666 4 -27.999 12s-11 17.667 -11 29
c0 12.667 6 25.834 18 39.501s38.667 35.167 80 64.5c46.667 34 96.334 59.667 149.001 77s107 26 163 26c108 0 196 -31.667 264 -95s102 -144.333 102 -243c0 -52 -12 -101.333 -36 -148s-59.667 -89.667 -107 -129c-7.33301 -6 -18 -13 -32 -21s-21 -15.333 -21 -22
c0 -2 11 -5.83301 33 -11.5s42.333 -12.5 61 -20.5c65.333 -27.333 116.5 -71.166 153.5 -131.499s55.5 -130.5 55.5 -210.5c0 -142 -52.833 -257.5 -158.5 -346.5s-243.5 -133.5 -413.5 -133.5c-99.333 0 -183.166 11.667 -251.499 35s-102.5 50 -102.5 80
c0 12 4.66699 21.5 14 28.5s21.666 10.5 36.999 10.5c10 0 45.667 -7.83301 107 -23.5s118 -23.5 170 -23.5c126 0 225.333 30.667 298 92s109 144.666 109 249.999c0 98.667 -29.667 174.167 -89 226.5s-145 78.5 -257 78.5c-21.333 0 -46.166 -1.33301 -74.499 -4
s-45.833 -4 -52.5 -4c-11.333 0 -18.833 3.33301 -22.5 10s-5.5 19.667 -5.5 39c0 24.667 15.333 38.334 46 41.001c16 1.33301 29 2.66602 39 3.99902c100.667 17.333 176.167 51.166 226.5 101.499s75.5 117.5 75.5 201.5z" />
    <glyph glyph-name="four" unicode="4" horiz-adv-x="1100" 
d="M741 268v793l-12 4l-295 -374.5l-293 -403.5l6 -19h594zM1030 268c14.667 0 25.165 -3.49902 31.498 -10.499s9.5 -18.5 9.5 -34.5v-43c0 -14.667 -3.5 -25.5 -10.5 -32.5s-17.833 -10.5 -32.5 -10.5h-131v-264c0 -16.667 -3.66699 -29 -11 -37s-18.666 -12 -33.999 -12
h-61c-16.667 0 -29.167 4 -37.5 12s-12.5 20.333 -12.5 37v264h-680c-30.667 0 -50.167 3.66699 -58.5 11s-12.5 20 -12.5 38c0 54.667 68.667 171.334 206 350.001l111 146l297.5 393c90.333 116 146.833 186.333 169.5 211c12.667 12.667 25.334 22 38.001 28s26 9 40 9
c18 0 31 -4.83301 39 -14.5s12 -25.167 12 -46.5c0 -4.66699 -0.333008 -17.334 -1 -38.001c-3.33301 -102.667 -5 -203.334 -5 -302.001v-654h133z" />
    <glyph glyph-name="five" unicode="5" horiz-adv-x="1100" 
d="M1001 1294c-16 -73.333 -30.6699 -117.502 -44.0029 -132.502s-40 -22.5 -80 -22.5h-420c-18 0 -31.333 -4.16699 -40 -12.5s-18.667 -30.166 -30 -65.499c-20 -64 -36.333 -123.333 -49 -178s-19 -89 -19 -103c0 -14.667 26.667 -26.667 80 -36
c33.333 -6 61.333 -11.667 84 -17c168.667 -40 292.834 -94.5 372.501 -163.5s119.5 -156.5 119.5 -262.5c0 -67.333 -14.167 -130.666 -42.5 -189.999s-68.833 -111.333 -121.5 -156c-53.333 -45.333 -112.166 -79.833 -176.499 -103.5s-131.166 -35.5 -200.499 -35.5
c-82.667 0 -157.167 13.833 -223.5 41.5s-99.5 54.834 -99.5 81.501c0 16.667 3 31 9 43s13 18 21 18c3.33301 0 12.666 -4 27.999 -12c82.667 -41.333 164.334 -62 245.001 -62c108 0 195.667 30.167 263 90.5s101 138.166 101 233.499c0 86.667 -25.5 154 -76.5 202
s-141.5 86.333 -271.5 115c-30.667 7.33301 -70 15 -118 23c-81.333 14.667 -122 35 -122 61c0 30 16.5 107 49.5 231s75.5 261.333 127.5 412h634z" />
    <glyph glyph-name="six" unicode="6" horiz-adv-x="1100" 
d="M276 705c58 64.667 116.831 113.168 176.498 145.501s120.5 48.5 182.5 48.5c124 0 224 -40.333 300 -121s114 -187 114 -319c0 -55.333 -8.33301 -108 -25 -158s-41.334 -97 -74.001 -141c-44.667 -60.667 -99.167 -107.334 -163.5 -140.001s-133.833 -49 -208.5 -49
c-141.333 0 -257.666 53.167 -348.999 159.5s-137 243.166 -137 410.499c0 110.667 22 221.334 66 332.001s107.333 215 190 313c60 71.333 118.333 130.5 175 177.5s95.334 70.5 116.001 70.5c12 0 24 -3 36 -9s24 -14.667 36 -26l-2 -23
c-116.667 -94.667 -210.667 -197.667 -282 -309s-121.666 -232 -150.999 -362zM882.998 401.001c0 104.667 -30.333 192.999 -91 264.999s-134.334 108 -221.001 108c-79.333 0 -145.166 -28.667 -197.499 -86s-78.5 -130.333 -78.5 -219
c0 -113.333 29.667 -207.166 89 -281.499s134 -111.5 224 -111.5c82 0 148.333 29.667 199 89s76 138 76 236z" />
    <glyph glyph-name="seven" unicode="7" horiz-adv-x="1100" 
d="M578 61c-7.33301 -17.333 -16.6689 -41.3311 -28.002 -71.998c-40 -110 -80 -165 -120 -165c-30 0 -56.333 7.33301 -79 22s-34 31.334 -34 50.001c0 9.33301 6.5 30.166 19.5 62.499s33.167 78.166 60.5 137.499l434 961c6.66699 13.333 11.834 26.166 15.501 38.499
s5.5 21.166 5.5 26.499c0 8 -5.33301 14.167 -16 18.5s-25 6.5 -43 6.5h-426c-52.667 0 -88.5 -4.16699 -107.5 -12.5s-35.833 -23.166 -50.5 -44.499c-10 -14.667 -21 -38 -33 -70c-20 -52 -42.333 -78 -67 -78c-14.667 0 -25.5 5.33301 -32.5 16s-10.5 26.667 -10.5 48
c0 25.333 5 58.666 15 99.999s24 84.333 42 129c14 36 26.5 60.333 37.5 73s23.833 19 38.5 19c7.33301 0 14.333 -2.83301 21 -8.5s12.334 -13.5 17.001 -23.5l631 -1c65.333 0 106.333 -3.33301 123 -10s25 -19.667 25 -39c0 -22.667 -20.667 -88.667 -62 -198
c-10.667 -27.333 -18.667 -48.666 -24 -63.999z" />
    <glyph glyph-name="eight" unicode="8" horiz-adv-x="1100" 
d="M610 801c72 34.667 126.168 75.8311 162.501 123.498s54.5 100.5 54.5 158.5c0 70 -24.833 127.833 -74.5 173.5s-112.834 68.5 -189.501 68.5c-74 0 -135.833 -21 -185.5 -63s-74.5 -94 -74.5 -156c0 -55.333 23 -106.166 69 -152.499s125.333 -97.166 238 -152.499z
M375.001 726.997c-90.667 52 -155.333 103.333 -194 154s-58 108 -58 172c0 103.333 42.833 189.833 128.5 259.5s193.5 104.5 323.5 104.5c116 0 211 -30.667 285 -92s111 -138.333 111 -231c0 -70 -22.5 -133.333 -67.5 -190s-114.167 -108 -207.5 -154
c110.667 -56.667 192.334 -117.167 245.001 -181.5s79 -135.833 79 -214.5c0 -108.667 -45.833 -200 -137.5 -274s-206.167 -111 -343.5 -111c-132.667 0 -242.667 36.333 -330 109s-131 162.667 -131 270c0 80 24.667 151.333 74 214s123.666 117.667 222.999 165z
M463.002 675.997c-80 -36 -140.001 -80 -180.001 -132s-60 -111.667 -60 -179c0 -86 30.833 -157.833 92.5 -215.5s138.834 -86.5 231.501 -86.5c84 0 153.833 23.833 209.5 71.5s83.5 106.5 83.5 176.5c0 65.333 -26.667 124.5 -80 177.5s-152.333 115.5 -297 187.5z" />
    <glyph glyph-name="nine" unicode="9" horiz-adv-x="1100" 
d="M242 897c0 -106 30.3311 -195 90.998 -267s135.334 -108 224.001 -108c82.667 0 148.334 28.833 197.001 86.5s73 136.167 73 235.5c0 118.667 -28.5 212.5 -85.5 281.5s-134.167 103.5 -231.5 103.5c-81.333 0 -146.333 -30 -195 -90s-73 -140.667 -73 -242z
M816.998 565c-45.333 -55.333 -97.999 -98.167 -157.999 -128.5s-122.667 -45.5 -188 -45.5c-113.333 0 -209.166 43.833 -287.499 131.5s-117.5 195.5 -117.5 323.5c0 137.333 46.167 251.166 138.5 341.499s209.166 135.5 350.499 135.5s254.166 -49 338.499 -147
s126.5 -230 126.5 -396c0 -122 -21.333 -238.5 -64 -349.5s-106.667 -217.5 -192 -319.5c-61.333 -72.667 -121.5 -133.167 -180.5 -181.5s-99.167 -72.5 -120.5 -72.5c-14 0 -27.667 3.83301 -41 11.5s-26.333 19.5 -39 35.5l2 20
c115.333 90.667 209.333 189.834 282 297.501s122.667 222.167 150 343.5z" />
    <glyph glyph-name="colon" unicode=":" horiz-adv-x="551" 
d="M154 729c0 34.667 11.499 63.833 34.499 87.5s51.5 35.5 85.5 35.5s62.667 -12 86 -36s35 -53 35 -87c0 -32.667 -11.667 -60.667 -35 -84s-52 -35 -86 -35c-33.333 0 -61.666 11.667 -84.999 35s-35 51.333 -35 84zM153.999 91.999c0 34.667 11.499 63.5 34.499 86.5
s51.5 34.5 85.5 34.5s62.667 -11.667 86 -35s35 -52 35 -86c0 -33.333 -11.667 -61.833 -35 -85.5s-52 -35.5 -86 -35.5c-33.333 0 -61.666 11.833 -84.999 35.5s-35 52.167 -35 85.5z" />
    <glyph glyph-name="semicolon" unicode=";" horiz-adv-x="551" 
d="M145 729c0 34.667 11.667 63.833 35 87.5s52 35.5 86 35.5s62.667 -12 86 -36s35 -53 35 -87c0 -32.667 -11.667 -60.667 -35 -84s-52 -35 -86 -35c-33.333 0 -61.833 11.667 -85.5 35s-35.5 51.333 -35.5 84zM156 89.999c0 34 10.332 62 30.999 84s47 33 79 33
c35.333 0 64.333 -15 87 -45s34 -68.333 34 -115c0 -34 -6.66699 -69.5 -20 -106.5s-36.666 -82.833 -69.999 -137.5c-20 -32 -35 -53.667 -45 -65s-19 -17 -27 -17c-14 0 -26.333 2.83301 -37 8.5s-16 11.834 -16 18.501c0 5.33301 15.333 31.666 46 78.999
s46 85.333 46 114c0 9.33301 -1.66699 16.333 -5 21s-12 9.66699 -26 15c-26 10.667 -45.333 25.167 -58 43.5s-19 41.5 -19 69.5z" />
    <glyph glyph-name="less" unicode="&#x3c;" horiz-adv-x="1706" 
d="M1442 1145v-127l-1000 -408l1000 -405v-129l-1178 483v103z" />
    <glyph glyph-name="equal" unicode="=" horiz-adv-x="1706" 
d="M254 477h1198v-117h-1198v117zM254 860h1198v-117h-1198v117z" />
    <glyph glyph-name="greater" unicode="&#x3e;" horiz-adv-x="1706" 
d="M264 1145l1178 -483v-103l-1178 -483v129l1000 405l-1000 408v127z" />
    <glyph glyph-name="question" unicode="?" horiz-adv-x="915" 
d="M621 1221c0 64.667 -15.833 115.665 -47.5 152.998s-75.5 56 -131.5 56c-43.333 0 -81.5 -11.833 -114.5 -35.5s-58.167 -57.834 -75.5 -102.501c-6 -15.333 -13 -38.666 -21 -69.999c-18 -76 -48 -114 -90 -114c-19.333 0 -35.333 7.83301 -48 23.5
s-19 35.834 -19 60.501c0 89.333 37.5 166 112.5 230s168.5 96 280.5 96c107.333 0 193.5 -30.167 258.5 -90.5s97.5 -140.166 97.5 -239.499c0 -56 -10.5 -106.5 -31.5 -151.5s-60.833 -96.833 -119.5 -155.5c-5.33301 -6 -14.333 -14.333 -27 -25
c-65.333 -59.333 -107 -125.666 -125 -198.999c-6 -24.667 -9.16699 -56.834 -9.5 -96.501s-1.83301 -64.834 -4.5 -75.501c-4 -18 -10.5 -31.667 -19.5 -41s-20.167 -14 -33.5 -14c-16.667 0 -29.167 9.83301 -37.5 29.5s-12.5 49.5 -12.5 89.5
c0 68.667 5.5 127.334 16.5 176.001s28.833 95 53.5 139c8.66699 16 23 40 43 72c70 111.333 105 206.333 105 285zM336 75.998c0 30.667 10.834 57 32.501 79s48.5 33 80.5 33c30.667 0 56.667 -11 78 -33s32 -49 32 -81c0 -30 -11.167 -56 -33.5 -78s-49.5 -33 -81.5 -33
c-30.667 0 -56.334 10.667 -77.001 32s-31 48.333 -31 81z" />
    <glyph glyph-name="at" unicode="@" horiz-adv-x="2019" 
d="M1190 336c-41.333 -70.667 -87.667 -123.501 -139 -158.501s-108 -52.5 -170 -52.5c-83.333 0 -150.333 30.667 -201 92s-76 142.666 -76 243.999c0 72 16.333 144 49 216s78.667 136.333 138 193c43.333 42.667 91.333 76 144 100s104.334 36 155.001 36
c58 0 105.667 -16.5 143 -49.5s63.333 -81.5 78 -145.5l53 180h143l-170 -610c0 -1.33301 -0.333008 -3 -1 -5c-11.333 -39.333 -17 -74 -17 -104c0 -31.333 8.5 -56.166 25.5 -74.499s39.833 -27.5 68.5 -27.5c22.667 0 49 5.83301 79 17.5s58.333 27.834 85 48.501
c81.333 60 143.666 137 186.999 231s65 199 65 315c0 93.333 -16.667 177.333 -50 252s-84.333 142.334 -153 203.001c-60 52.667 -132 93.5 -216 122.5s-173 43.5 -267 43.5c-124.667 0 -238.5 -19.5 -341.5 -58.5s-194.833 -97.5 -275.5 -175.5
c-86.667 -84 -152.334 -181.833 -197.001 -293.5s-67 -234.834 -67 -369.501c0 -116.667 19 -218.167 57 -304.5s98.333 -164.5 181 -234.5c76 -64.667 163 -113.5 261 -146.5s204.667 -49.5 320 -49.5c108.667 0 214.5 17.333 317.5 52s201.5 86 295.5 154l30 -36
c-98.667 -73.333 -203 -128.666 -313 -165.999s-224 -56 -342 -56c-124.667 0 -238.667 15.5 -342 46.5s-194.666 77.167 -273.999 138.5c-100.667 75.333 -177.167 166.833 -229.5 274.5s-78.5 227.167 -78.5 358.5c0 136 28.667 263 86 381s140.666 222.333 249.999 313
c87.333 73.333 184.333 128.5 291 165.5s221.334 55.5 344.001 55.5c231.333 0 415.833 -62.333 553.5 -187s206.5 -291 206.5 -499c0 -104.667 -19.333 -203.667 -58 -297s-93 -172 -163 -236c-38 -34.667 -79.167 -61.334 -123.5 -80.001s-89.166 -28 -134.499 -28
c-64.667 0 -114.334 17.5 -149.001 52.5s-54 87.833 -58 158.5zM1098 964.999c-36 0 -68.999 -10.332 -98.999 -30.999s-60.667 -54 -92 -100c-48 -72 -86.167 -150 -114.5 -234s-42.5 -159 -42.5 -225c0 -62 13.5 -111 40.5 -147s63.167 -54 108.5 -54
c44 0 86 14.833 126 44.5s78.667 74.167 116 133.5c38 62.667 68.333 130.167 91 202.5s34 138.166 34 197.499c0 62 -15.833 113 -47.5 153s-71.834 60 -120.501 60z" />
    <glyph glyph-name="A" unicode="A" horiz-adv-x="1446" 
d="M455 617c26.667 1.33301 56.501 2.33301 89.501 3s84.833 1 155.5 1c75.333 0 133.166 -0.333008 173.499 -1s78.166 -2 113.499 -4c-51.333 135.333 -100 256.666 -146 363.999s-83.333 188.333 -112 243h-14c-25.333 -47.333 -59.166 -120.166 -101.499 -218.499z
M715.001 504l-107.001 0.000976562c-76.667 0 -127.5 -2 -152.5 -6s-40.833 -11 -47.5 -21c-4.66699 -6 -10.167 -15.667 -16.5 -29s-16.833 -39 -31.5 -77c-2.66699 -7.33301 -6.66699 -17.666 -12 -30.999c-30 -74 -45 -121.667 -45 -143c0 -18 4.66699 -32.667 14 -44
s24.333 -20.666 45 -27.999c7.33301 -2.66699 17 -6 29 -10c44 -15.333 66 -32.666 66 -51.999c0 -24.667 -18.5 -42.667 -55.5 -54s-97.833 -17 -182.5 -17c-84 0 -144.167 5.5 -180.5 16.5s-54.5 29.167 -54.5 54.5c0 20 22 36.667 66 50c20.667 6 36 11.333 46 16
c32.667 20.667 73.334 90 122.001 208l5 13l183 440c164 394 250.667 612 260 654c0.666992 4 2 10.333 4 19c6.66699 32 28.334 48 65.001 48c22 0 39.333 -4.83301 52 -14.5s28.334 -34.834 47.001 -75.501c76 -168 183.333 -429 322 -783l148 -375
c2.66699 -6 5.66699 -13.333 9 -22c25.333 -62.667 51.333 -101.334 78 -116.001c7.33301 -4 20.333 -9 39 -15c39.333 -12.667 59 -29 59 -49c0 -23.333 -21 -40.666 -63 -51.999s-107.667 -17 -197 -17c-90 0 -155.833 5.66699 -197.5 17s-62.5 28.666 -62.5 51.999
c0 20 23.667 38.333 71 55c10 3.33301 18.333 6.33301 25 9c19.333 3.33301 33.666 10.666 42.999 21.999s14 26.666 14 45.999c0 21.333 -8.33301 58.5 -25 111.5s-38.334 105.833 -65.001 158.5c-8.66699 15.333 -26 26 -52 32s-77 9 -153 9h-112z" />
    <glyph glyph-name="B" unicode="B" horiz-adv-x="1270" 
d="M471 713c-39.333 0 -63.1689 -5.00098 -71.502 -15.001s-12.5 -41.333 -12.5 -94v-16c0 -116 1.5 -210 4.5 -282s7.16699 -118.333 12.5 -139c4.66699 -17.333 30.834 -33.166 78.501 -47.499s103.834 -21.5 168.501 -21.5c111.333 0 199.333 25.833 264 77.5
s97 121.5 97 209.5c0 114.667 -42.667 198 -128 250s-223 78 -413 78zM386.997 1024l0.00195312 -117.002c0 -38.667 4.33301 -62.667 13 -72s32.334 -14 71.001 -14c162 0 279.333 22.833 352 68.5s109 118.5 109 218.5c0 94 -29.833 165.333 -89.5 214
s-147.834 73 -264.501 73c-56.667 0 -98.334 -2 -125.001 -6s-42.334 -10 -47.001 -18c-6.66699 -13.333 -11.5 -48.666 -14.5 -105.999s-4.5 -137.666 -4.5 -240.999zM1139 1139c0 -67.333 -17.002 -127.328 -51.002 -179.995s-84 -96 -150 -130
c-22.667 -11.333 -47.834 -21.166 -75.501 -29.499s-41.5 -15.5 -41.5 -21.5c0 -8.66699 18.333 -16.334 55 -23.001c16 -2.66699 29 -5 39 -7c100.667 -22.667 177.167 -63.834 229.5 -123.501s78.5 -135.5 78.5 -227.5c0 -128 -47.167 -226.833 -141.5 -296.5
s-228.166 -104.5 -401.499 -104.5c-43.333 0 -99.5 1.66699 -168.5 5s-115.833 5 -140.5 5c-33.333 0 -69.666 -1 -108.999 -3s-61.666 -3 -66.999 -3c-45.333 0 -79 5.16699 -101 15.5s-33 26.166 -33 47.499c0 19.333 19.167 35.333 57.5 48s60.166 22.667 65.499 30
c10.667 13.333 18.167 62 22.5 146s6.5 237.667 6.5 461c0 221.333 -2.16699 373.666 -6.5 456.999s-11.833 131.666 -22.5 144.999c-5.33301 7.33301 -27.166 17.333 -65.499 30s-57.5 28.334 -57.5 47.001c0 16 6.5 29.167 19.5 39.5s31.5 17.166 55.5 20.499h9
c141.333 8 309.333 12 504 12c151.333 0 270.833 -32.333 358.5 -97s131.5 -152.334 131.5 -263.001z" />
    <glyph glyph-name="C" unicode="C" horiz-adv-x="1370" 
d="M821 -35c-80 0 -155.834 10.999 -227.501 32.999s-137.167 54 -196.5 96c-102 74 -179.667 168 -233 282s-80 244 -80 390c0 86.667 12.333 170 37 250s60 151.667 106 215c66.667 90 148.5 160 245.5 210s200.167 75 309.5 75c68 0 138.667 -9.66699 212 -29
s112.666 -29 117.999 -29c14 0 31.833 2.83301 53.5 8.5s35.834 8.5 42.501 8.5c29.333 0 53.833 -25 73.5 -75s29.5 -113.333 29.5 -190c0 -28 -4.83301 -49.667 -14.5 -65s-23.5 -23 -41.5 -23c-26 0 -49 24.333 -69 73c-13.333 32.667 -25.666 57 -36.999 73
c-32.667 45.333 -79.834 80.166 -141.501 104.499s-133.167 36.5 -214.5 36.5c-158 0 -282.167 -51.667 -372.5 -155s-135.5 -245.666 -135.5 -426.999c0 -92 10.833 -180.167 32.5 -264.5s52.5 -158.5 92.5 -222.5c53.333 -85.333 116 -148.666 188 -189.999
s155.333 -62 250 -62c70.667 0 135 11.667 193 35s105 56 141 98c12.667 15.333 27.667 36.333 45 63c24 37.333 44.333 56 61 56c15.333 0 27.333 -7.16699 36 -21.5s13 -33.833 13 -58.5c0 -48.667 -10.833 -93.167 -32.5 -133.5s-44.167 -60.5 -67.5 -60.5
c-2 0 -5.33301 0.666992 -10 2s-8 2 -10 2c-9.33301 0 -23 -5 -41 -15l-21 -10c-53.333 -27.333 -106.666 -47.5 -159.999 -60.5s-111.333 -19.5 -174 -19.5z" />
    <glyph glyph-name="D" unicode="D" horiz-adv-x="1556" 
d="M688 109c198 0 345.832 51.332 443.499 153.999s146.5 258 146.5 466c0 220 -50.5 384.5 -151.5 493.5s-253.167 163.5 -456.5 163.5c-71.333 0 -128.166 -2.66699 -170.499 -8s-68.833 -13.333 -79.5 -24c-12.667 -13.333 -21.667 -66 -27 -158s-8 -238.667 -8 -440
s2 -343.666 6 -426.999s11 -136.333 21 -159c8 -20.667 35 -36 81 -46s111 -15 195 -15zM345.999 1.99902c-8 0 -24.834 -0.998047 -50.501 -2.99805s-47.167 -3 -64.5 -3c-59.333 0 -102.5 5.33301 -129.5 16s-40.5 27.667 -40.5 51c0 19.333 19.167 35.333 57.5 48
s60.166 22.667 65.499 30c10.667 13.333 18.167 62 22.5 146s6.5 237.667 6.5 461c0 221.333 -2.16699 373.666 -6.5 456.999s-11.833 131.666 -22.5 144.999c-5.33301 7.33301 -27.166 17.333 -65.499 30s-57.5 28.334 -57.5 47.001c0 16 6.5 29.167 19.5 39.5
s31.5 17.166 55.5 20.499l12 1c150.667 8.66699 325.334 13 524.001 13c260 0 460.5 -67 601.5 -201s211.5 -324.333 211.5 -571c0 -240 -71 -422.167 -213 -546.5s-350.333 -186.5 -625 -186.5c-26 0 -72.5 1 -139.5 3s-120.833 3 -161.5 3z" />
    <glyph glyph-name="E" unicode="E" horiz-adv-x="1241" 
d="M229 0c-61.333 0 -104.665 4.83496 -129.998 14.502s-38 25.834 -38 48.501c0 19.333 19.167 35.333 57.5 48s60.166 22.667 65.499 30c10.667 13.333 18.167 62 22.5 146s6.5 237.667 6.5 461c0 221.333 -2.16699 373.666 -6.5 456.999s-11.833 131.666 -22.5 144.999
c-5.33301 7.33301 -27.166 17.333 -65.499 30s-57.5 28.334 -57.5 47.001c0 23.333 13 40.166 39 50.499s69 15.5 129 15.5h695c33.333 0 67.166 3.33301 101.499 10s52.166 10 53.499 10c27.333 0 48.833 -20.167 64.5 -60.5s23.5 -95.833 23.5 -166.5
c0 -26.667 -4.5 -47.334 -13.5 -62.001s-22.167 -22 -39.5 -22s-36.666 19 -57.999 57c-6.66699 12 -12 21 -16 27c-20 33.333 -43.167 56 -69.5 68s-66.5 18 -120.5 18h-264c-63.333 0 -107.5 -2.83301 -132.5 -8.5s-40.167 -15.834 -45.5 -30.501
c-8.66699 -20.667 -14.667 -60.834 -18 -120.501s-5 -155.167 -5 -286.5v-17c0 -32 2.66699 -51.167 8 -57.5s18.333 -9.5 39 -9.5h270c46 0 78.5 7.33301 97.5 22s31.167 42.334 36.5 83.001l3 21c8 62 26.667 93 56 93c26 0 43.833 -17.167 53.5 -51.5
s14.5 -110.166 14.5 -227.499c0 -116.667 -4.83301 -191.834 -14.5 -225.501s-27.5 -50.5 -53.5 -50.5c-29.333 0 -48 30.667 -56 92l-3 22c-5.33301 40.667 -17.5 68.334 -36.5 83.001s-51.5 22 -97.5 22h-270c-19.333 0 -32.333 -5.16699 -39 -15.5s-10 -31.833 -10 -64.5
c0 -8 0.333008 -26.5 1 -55.5s1 -54.167 1 -75.5c0 -97.333 2 -172.333 6 -225s10.333 -89 19 -109c8.66699 -22 30.167 -37.667 64.5 -47s89.833 -14 166.5 -14h184c73.333 0 128.666 9.33301 165.999 28s69.333 52 96 100c10.667 19.333 22 45.333 34 78
c16.667 46.667 35.667 70 57 70c16 0 28.833 -8.66699 38.5 -26s14.5 -40.666 14.5 -69.999c0 -80.667 -13.667 -154.834 -41 -222.501s-55.333 -101.5 -84 -101.5c-3.33301 0 -12 2 -26 6c-46 12.667 -92 19 -138 19h-713z" />
    <glyph glyph-name="F" unicode="F" horiz-adv-x="1231" 
d="M731 705l-270.004 0.00390625c-20 0 -33.167 -6 -39.5 -18s-9.5 -38.333 -9.5 -79v-135c0 -116.667 3 -200.334 9 -251.001s16 -80.334 30 -89.001c10 -6 26.667 -13 50 -21c41.333 -13.333 62 -29.666 62 -48.999c0 -24.667 -18.5 -42.667 -55.5 -54
s-97.5 -17 -181.5 -17c-84.667 0 -145.167 5.5 -181.5 16.5s-54.5 29.167 -54.5 54.5c0 19.333 19.167 35.333 57.5 48s60.166 22.667 65.499 30c10.667 13.333 18.167 62 22.5 146s6.5 237.667 6.5 461c0 221.333 -2.16699 373.666 -6.5 456.999
s-11.833 131.666 -22.5 144.999c-5.33301 7.33301 -27.166 17.333 -65.499 30s-57.5 28.334 -57.5 47.001c0 23.333 12.833 40.166 38.5 50.499s68.834 15.5 129.501 15.5h694c33.333 0 67.333 3.33301 102 10s52.667 10 54 10c27.333 0 48.833 -20.167 64.5 -60.5
s23.5 -95.833 23.5 -166.5c0 -26.667 -4.66699 -47.334 -14 -62.001s-22.333 -22 -39 -22c-17.333 0 -36.666 19 -57.999 57l-16 27c-20 32.667 -43.5 55.167 -70.5 67.5s-67.5 18.5 -121.5 18.5h-263c-63.333 0 -107.833 -2.83301 -133.5 -8.5
s-41.167 -15.834 -46.5 -30.501c-7.33301 -19.333 -12.5 -57 -15.5 -113s-4.5 -159 -4.5 -309v-16c0 -35.333 2.66699 -56.5 8 -63.5s18.333 -10.5 39 -10.5h270c46.667 0 79.334 7.16699 98.001 21.5s30.334 41.166 35.001 80.499l3 23c8.66699 62.667 27.667 94 57 94
c25.333 0 42.833 -17.167 52.5 -51.5s14.5 -109.833 14.5 -226.5c0 -117.333 -4.83301 -193.166 -14.5 -227.499s-27.167 -51.5 -52.5 -51.5c-29.333 0.666992 -48.333 32.334 -57 95.001l-3 23c-4.66699 39.333 -16.5 66.5 -35.5 81.5s-51.5 22.5 -97.5 22.5z" />
    <glyph glyph-name="G" unicode="G" horiz-adv-x="1493" 
d="M819 -35c-216.667 0 -393.332 74.1689 -529.999 222.502s-205 341.166 -205 578.499c0 220 68.5 400.333 205.5 541s312.833 211 527.5 211c76 0 152 -10 228 -30s114.667 -30 116 -30c13.333 0 30.666 2.83301 51.999 8.5s36 8.5 44 8.5
c30.667 0 55.834 -25.833 75.501 -77.5s29.5 -117.5 29.5 -197.5c0 -29.333 -4.83301 -52 -14.5 -68s-23.167 -24 -40.5 -24c-26.667 0 -50 25.333 -70 76c-13.333 33.333 -25.666 58.666 -36.999 75.999c-34.667 50.667 -83.334 88.5 -146.001 113.5
s-140.334 37.5 -233.001 37.5c-170 0 -301.833 -51 -395.5 -153s-140.5 -245.667 -140.5 -431c0 -91.333 10.833 -179.833 32.5 -265.5s52.5 -161.5 92.5 -227.5c50 -84 112.5 -148.333 187.5 -193s157.167 -67 246.5 -67c99.333 0 178.666 28.833 237.999 86.5
s89 134.5 89 230.5c0 44 -3.83301 75 -11.5 93s-21.167 29.333 -40.5 34c-16.667 4 -39 7.66699 -67 11c-62 7.33301 -93.333 28.333 -94 63c0 26 22.167 44.833 66.5 56.5s118.5 17.5 222.5 17.5c106.667 0 181.834 -5.83301 225.501 -17.5s65.5 -30.5 65.5 -56.5
c0 -34.667 -38 -58 -114 -70c-10.667 -2 -18.667 -3.33301 -24 -4c-8.66699 -2 -16 -7.5 -22 -16.5s-12 -23.833 -18 -44.5c-1.33301 -4 -7.66602 -36.5 -18.999 -97.5s-28.333 -113.833 -51 -158.5c-40 -77.333 -99.833 -136 -179.5 -176s-176.834 -60 -291.501 -60z" />
    <glyph glyph-name="H" unicode="H" horiz-adv-x="1546" 
d="M707 733c-93.333 0 -163.669 -1.82812 -211.002 -5.49512s-78.333 -9.83398 -93 -18.501c-6.66699 -4.66699 -11.334 -13.667 -14.001 -27s-4 -38 -4 -74v-106c0 -156 2.66699 -254.333 8 -295s15 -65.334 29 -74.001c10.667 -6 27.334 -13 50.001 -21
c42 -13.333 63 -29.666 63 -48.999c0 -24.667 -18.5 -42.667 -55.5 -54s-97.833 -17 -182.5 -17c-84 0 -144.333 5.5 -181 16.5s-55 29.167 -55 54.5c0 19.333 19.167 35.333 57.5 48s60.166 22.667 65.499 30c10.667 13.333 18.167 62 22.5 146s6.5 237.667 6.5 461
c0 221.333 -2.16699 373.666 -6.5 456.999s-11.833 131.666 -22.5 144.999c-5.33301 7.33301 -27.166 17.333 -65.499 30s-57.5 28.334 -57.5 47.001c0 26 18.667 44.833 56 56.5s97.333 17.5 180 17.5s143 -5.83301 181 -17.5s57 -30.5 57 -56.5
c0 -18 -20.333 -33.667 -61 -47c-24 -7.33301 -41.333 -14 -52 -20c-14 -8 -23.667 -34.5 -29 -79.5s-8 -142.833 -8 -293.5v-33c0 -28.667 1.33301 -48.667 4 -60s7.33398 -19.333 14.001 -24c15.333 -8 47.833 -13.667 97.5 -17s143.5 -5 281.5 -5
c120 0 206.333 1.66699 259 5s86.334 9 101.001 17c7.33301 4 12.333 11.5 15 22.5s4 31.5 4 61.5v64c0 137.333 -2.66699 226.666 -8 267.999s-15 66 -29 74c-10 6 -27 12.667 -51 20c-40.667 13.333 -61 29 -61 47c0 26 18.5 44.833 55.5 56.5s96.833 17.5 179.5 17.5
s142.667 -5.83301 180 -17.5s56 -30.5 56 -56.5c0 -18.667 -18.833 -34.334 -56.5 -47.001s-59.167 -22.667 -64.5 -30c-11.333 -14 -19.333 -65.5 -24 -154.5s-7 -238.167 -7 -447.5c0 -208 2.33301 -357.667 7 -449s12 -144 22 -158c6 -7.33301 28 -17.333 66 -30
s57 -28.667 57 -48c0 -25.333 -18.333 -43.5 -55 -54.5s-97 -16.5 -181 -16.5s-144.167 5.5 -180.5 16.5s-54.5 29.167 -54.5 54.5c0 19.333 20.667 35.666 62 48.999c23.333 8 40 15 50 21c13.333 8.66699 22.5 34 27.5 76s7.5 121 7.5 237v197c0 28.667 -2.5 47 -7.5 55
s-14.167 14.333 -27.5 19c-14.667 5.33301 -57.667 9.33301 -129 12s-167.333 4 -288 4z" />
    <glyph glyph-name="I" unicode="I" horiz-adv-x="612" 
d="M305 1501c83.333 0 143.833 -5.83301 181.5 -17.5s56.5 -30.5 56.5 -56.5c0 -18.667 -19.5 -34.334 -58.5 -47.001s-61.167 -22.667 -66.5 -30c-10.667 -13.333 -18.167 -61.666 -22.5 -144.999s-6.5 -235.666 -6.5 -456.999c0 -223.333 2.16699 -377 6.5 -461
s11.833 -132.667 22.5 -146c5.33301 -7.33301 27.5 -17.333 66.5 -30s58.5 -28.667 58.5 -48c0 -24.667 -18.5 -42.667 -55.5 -54s-97.833 -17 -182.5 -17s-145.334 5.66699 -182.001 17s-55 29.333 -55 54c0 19.333 19.167 35.166 57.5 47.499s60.833 22.833 67.5 31.5
c10 12.667 17.167 61 21.5 145s6.5 237.667 6.5 461c0 221.333 -2.16699 373.666 -6.5 456.999s-11.5 131.333 -21.5 144c-6 8 -28.333 18.333 -67 31s-58 28.334 -58 47.001c0 26 18.833 44.833 56.5 56.5s97.834 17.5 180.501 17.5z" />
    <glyph glyph-name="J" unicode="J" horiz-adv-x="1042" 
d="M205 258c-0.666992 -3.33301 -1.16797 -7.16895 -1.50098 -11.502s-0.5 -10.833 -0.5 -19.5c0 -48 18.667 -87.333 56 -118s85.333 -46 144 -46c51.333 0 96 10.167 134 30.5s66 48.5 84 84.5c14.667 30.667 25.5 69.667 32.5 117s10.5 115 10.5 203
c0 22.667 -0.333008 61.834 -1 117.501s-1 99.834 -1 132.501c0 220.667 -2.16699 372.667 -6.5 456s-11.833 131.666 -22.5 144.999c-6 8.66699 -28.333 19.167 -67 31.5s-58 27.833 -58 46.5c0 26 18.833 44.833 56.5 56.5s97.834 17.5 180.501 17.5
c83.333 0 143.833 -5.83301 181.5 -17.5s56.5 -30.5 56.5 -56.5c0 -18 -16.833 -32.333 -50.5 -43s-55.167 -18.667 -64.5 -24c-13.333 -9.33301 -22.833 -41 -28.5 -95s-8.5 -172.667 -8.5 -356v-297c0 -138 -2.16699 -234.167 -6.5 -288.5
s-12.166 -95.166 -23.499 -122.499c-32.667 -79.333 -82.167 -139.5 -148.5 -180.5s-146.5 -61.5 -240.5 -61.5c-112 0 -205.333 32 -280 96s-112 143.333 -112 238c0 48 11.667 87 35 117s52.666 45 87.999 45c28 0 51.5 -9.83301 70.5 -29.5s28.5 -44.167 28.5 -73.5
c0 -16 -3.16699 -31.833 -9.5 -47.5s-15.5 -31.167 -27.5 -46.5z" />
    <glyph glyph-name="K" unicode="K" horiz-adv-x="1327" 
d="M659 946c-45.333 -47.333 -74.3311 -79.335 -86.998 -96.002s-19 -29.667 -19 -39c0 -7.33301 27.333 -41 82 -101c7.33301 -8 12.666 -14 15.999 -18l287 -307l32 -35c114 -124.667 193.333 -195.667 238 -213c16.667 -6.66699 40.667 -13.667 72 -21
c56 -14.667 84 -33.667 84 -57c0 -22 -15.5 -38.667 -46.5 -50s-76.167 -17 -135.5 -17c-26.667 0 -50.334 1.16699 -71.001 3.5s-36.667 5.83301 -48 10.5c-16 6.66699 -35.833 20.834 -59.5 42.501s-66.834 66.167 -129.501 133.5l-279 312
c-116 130.667 -178.333 196 -187 196c-4 0 -7.16699 -3 -9.5 -9s-3.5 -14 -3.5 -24v-249c0 -107.333 2.5 -178 7.5 -212s13.5 -55 25.5 -63c10.667 -6 28 -13 52 -21c42 -13.333 63 -29.666 63 -48.999c0 -24.667 -18.5 -42.667 -55.5 -54s-97.833 -17 -182.5 -17
s-145.334 5.66699 -182.001 17s-55 29.333 -55 54c0 19.333 19.167 35.166 57.5 47.499s60.833 22.833 67.5 31.5c10 12.667 17.167 61 21.5 145s6.5 237.667 6.5 461c0 221.333 -2.16699 373.666 -6.5 456.999s-11.5 131.333 -21.5 144c-6 8 -28.333 18.333 -67 31
s-58 28.334 -58 47.001c0 26 18.833 44.833 56.5 56.5s97.834 17.5 180.501 17.5c83.333 0 143.833 -5.83301 181.5 -17.5s56.5 -30.5 56.5 -56.5c0 -18 -16.833 -32.333 -50.5 -43s-55.167 -18.667 -64.5 -24c-12 -8 -20.5 -27 -25.5 -57s-7.5 -101 -7.5 -213v-207
c0 -19.333 0.833008 -32.666 2.5 -39.999s4.5 -11.333 8.5 -12c3.33301 0 8.5 2.5 15.5 7.5s13.833 11.5 20.5 19.5l351 381l17 19c42.667 46 64 73.667 64 83c0 14.667 -12.833 28.5 -38.5 41.5s-38.5 28.833 -38.5 47.5c0 22.667 19.333 40.167 58 52.5
s94.334 18.5 167.001 18.5c68 0 119.833 -6.16699 155.5 -18.5s53.5 -29.833 53.5 -52.5c0 -21.333 -20 -37.333 -60 -48c-8.66699 -2.66699 -15.667 -4.66699 -21 -6c-62.667 -16.667 -127 -58 -193 -124l-9 -9z" />
    <glyph glyph-name="L" unicode="L" horiz-adv-x="1163" 
d="M748 119c72.667 0 127.666 9.33496 164.999 28.002s69.333 52 96 100c10.667 18.667 22 44.667 34 78c16.667 46.667 35.667 70 57 70c15.333 0 27.666 -8.5 36.999 -25.5s14 -40.5 14 -70.5c0 -80.667 -13.667 -154.834 -41 -222.501s-55.333 -101.5 -84 -101.5
c-3.33301 0 -11.666 2 -24.999 6c-45.333 12.667 -91 19 -137 19h-606c-61.333 0 -104.666 4.83301 -129.999 14.5s-38 25.834 -38 48.501c0 19.333 19.5 35.333 58.5 48s61.167 22.667 66.5 30c10.667 13.333 18.167 62 22.5 146s6.5 237.667 6.5 461
c0 221.333 -2.16699 373.666 -6.5 456.999s-11.833 131.666 -22.5 144.999c-5.33301 7.33301 -27.5 17.333 -66.5 30s-58.5 28.334 -58.5 47.001c0 26 18.833 44.833 56.5 56.5s98.167 17.5 181.5 17.5c82.667 0 142.834 -5.83301 180.501 -17.5s56.5 -30.5 56.5 -56.5
c0 -18.667 -19.333 -34.334 -58 -47.001s-61 -23 -67 -31c-10.667 -14 -18.334 -68.667 -23.001 -164s-7 -241 -7 -437c0 -194 2 -331.5 6 -412.5s10.667 -132.833 20 -155.5c9.33301 -22 31.333 -37.667 66 -47s90.667 -14 168 -14h78z" />
    <glyph glyph-name="M" unicode="M" horiz-adv-x="1774" 
d="M334 1243l-12.001 -499.999c0 -4 -0.333008 -16.333 -1 -37c-1.33301 -114 -2 -228.667 -2 -344v-43c0 -70 2.33301 -116.667 7 -140s12.667 -38.666 24 -45.999c10.667 -6 28 -13 52 -21c42 -13.333 63 -29.666 63 -48.999c0 -24 -16.5 -41.5 -49.5 -52.5
s-86.167 -16.5 -159.5 -16.5c-80.667 0 -137.667 5.33301 -171 16s-50 28.334 -50 53.001c0 20 28.667 39.333 86 58l6 2c16 5.33301 27.5 13 34.5 23s12.5 29.667 16.5 59v0c26 233.333 39 552.666 39 957.999v41c0 58 -2 97.167 -6 117.5s-11 33.833 -21 40.5
c-8.66699 6 -29.167 14.667 -61.5 26s-48.5 26.666 -48.5 45.999c0 22.667 16 39.167 48 49.5s85.667 15.5 161 15.5c39.333 0 68.833 -1.5 88.5 -4.5s32.834 -7.5 39.501 -13.5c16.667 -14 41.334 -70 74.001 -168l27 -78c90.667 -256.667 170.667 -468.667 240 -636
s111 -251 125 -251c13.333 0 53 75.5 119 226.5s145 347.833 237 590.5l47 130c29.333 82 49.666 132.667 60.999 152c11.333 18.667 28.333 32 51 40s53.667 12 93 12c86 0 145.333 -4.83301 178 -14.5s49 -26.5 49 -50.5c0 -19.333 -16.333 -34.666 -49 -45.999
s-53.667 -20 -63 -26c-12 -7.33301 -20.167 -25.5 -24.5 -54.5s-6.5 -88.833 -6.5 -179.5v-108c0 -228 3 -420.833 9 -578.5s13.333 -250.834 22 -279.501c5.33301 -16.667 25.333 -30 60 -40c9.33301 -2.66699 17 -5 23 -7c18.667 -6.66699 32 -13.834 40 -21.501
s12 -16.834 12 -27.501c0 -24.667 -21.5 -43.167 -64.5 -55.5s-106.833 -18.5 -191.5 -18.5c-74.667 0 -129.5 5.5 -164.5 16.5s-52.5 27.833 -52.5 50.5c0 20.667 20 38 60 52c13.333 4.66699 24 8.66699 32 12c19.333 7.33301 32.666 23.5 39.999 48.5s11 75.833 11 152.5
v149c0 76.667 -0.166992 133.5 -0.5 170.5s-0.833008 71.167 -1.5 102.5l-8 530l-298 -755.5l-130 -319.5l-20 -48c-35.333 -86.667 -67.666 -130 -96.999 -130c-40.667 0 -154 247.333 -340 742z" />
    <glyph glyph-name="N" unicode="N" horiz-adv-x="1569" 
d="M322 1227l-0.000976562 -479.002c0 -198.667 2.33301 -346 7 -442s12.334 -150.667 23.001 -164c6 -8 28.333 -18.333 67 -31s58 -28.667 58 -48c0 -24 -16.167 -41.5 -48.5 -52.5s-85.166 -16.5 -158.499 -16.5c-74 0 -127.667 5.5 -161 16.5s-50 28.5 -50 52.5
c0 19.333 19.5 35.333 58.5 48s61.167 22.667 66.5 30c10.667 13.333 18.167 62 22.5 146s6.5 237.667 6.5 461c0 221.333 -2.16699 373.666 -6.5 456.999s-11.833 131.666 -22.5 144.999c-5.33301 7.33301 -27.5 17.333 -66.5 30s-58.5 28.334 -58.5 47.001
c0 23.333 14.333 40.833 43 52.5s70.334 17.5 125.001 17.5c42.667 0 75.334 -5 98.001 -15s44.667 -29.667 66 -59l71 -95c265.333 -360 538.666 -710.667 819.999 -1052v469c0 238.667 -2.16699 395.834 -6.5 471.501s-11.833 120.167 -22.5 133.5
c-5.33301 7.33301 -27.5 17.333 -66.5 30s-58.5 28.334 -58.5 47.001c0 24.667 16.5 42.5 49.5 53.5s86.167 16.5 159.5 16.5c74 0 127.333 -5.5 160 -16.5s49 -28.833 49 -53.5c0 -8.66699 -4.16699 -16.667 -12.5 -24s-21.166 -14.333 -38.499 -21l-20 -6
c-36.667 -11.333 -57.334 -25.666 -62.001 -42.999c-7.33301 -26 -12.833 -122 -16.5 -288s-5.5 -395 -5.5 -687v-286c0 -40 -3.33301 -64.333 -10 -73s-18.334 -13 -35.001 -13c-22.667 0 -42.334 5 -59.001 15s-41 34.333 -73 73l-350.5 444.5z" />
    <glyph glyph-name="O" unicode="O" horiz-adv-x="1636" 
d="M838 -41c-85.333 0 -166.5 12.498 -243.5 37.498s-146.833 61.5 -209.5 109.5c-95.333 74 -169.666 168.833 -222.999 284.5s-80 240.834 -80 375.501c0 87.333 12.167 170.333 36.5 249s59.833 150.667 106.5 216c65.333 92 150 163.5 254 214.5s218 76.5 342 76.5
c85.333 0 166 -13.333 242 -40s145.667 -66 209 -118c88.667 -72.667 157.5 -166 206.5 -280s73.5 -237 73.5 -369c0 -89.333 -11.333 -173.333 -34 -252s-56.334 -149.667 -101.001 -213c-64.667 -93.333 -147 -165.166 -247 -215.499s-210.667 -75.5 -332 -75.5z
M1352 656.998c0 88.667 -10.6689 173.834 -32.002 255.501s-51.666 153.5 -90.999 215.5c-57.333 91.333 -125.5 161 -204.5 209s-164.5 72 -256.5 72c-146.667 0 -264.167 -53 -352.5 -159s-132.5 -247.667 -132.5 -425c0 -89.333 10.833 -175.833 32.5 -259.5
s53.167 -158.834 94.5 -225.501c52.667 -88 117 -154.667 193 -200s161.667 -68 257 -68c150.667 0 270.334 52.5 359.001 157.5s133 247.5 133 427.5z" />
    <glyph glyph-name="P" unicode="P" horiz-adv-x="1133" 
d="M385 781c22 -5.33301 43.332 -9.16602 63.999 -11.499s40.334 -3.5 59.001 -3.5c142 0 248.167 26.667 318.5 80s105.5 133.666 105.5 240.999c0 104 -29.167 181.333 -87.5 232s-147.166 76 -266.499 76c-79.333 0 -127.833 -2.66699 -145.5 -8
s-28.834 -15.666 -33.501 -30.999c-4 -16.667 -7.33301 -75.834 -10 -177.501s-4 -234.167 -4 -397.5zM1137 1106c0 -140 -53 -247.665 -159 -322.998s-257.333 -113 -454 -113c-11.333 0 -25 0.666992 -41 2s-26 2 -30 2c-31.333 0 -50.5 -5.16699 -57.5 -15.5
s-10.5 -42.166 -10.5 -95.499v-18c0 -132.667 2.16699 -230 6.5 -292s10.833 -99 19.5 -111c6 -8 28.167 -18.333 66.5 -31s57.5 -28.667 57.5 -48c0 -24.667 -18.5 -42.667 -55.5 -54s-97.833 -17 -182.5 -17c-84 0 -144.333 5.5 -181 16.5s-55 29.167 -55 54.5
c0 19.333 19.167 35.333 57.5 48s60.166 22.667 65.499 30c10.667 13.333 18.167 62 22.5 146s6.5 237.667 6.5 461c0 221.333 -2.16699 373.666 -6.5 456.999s-11.833 131.666 -22.5 144.999c-5.33301 7.33301 -27.166 17.333 -65.499 30s-57.5 28.334 -57.5 47.001
c0 16 6.5 29.167 19.5 39.5s31.5 17.166 55.5 20.499h9c141.333 8 309.333 12 504 12c154.667 0 274.667 -34.333 360 -103s128 -165.334 128 -290.001z" />
    <glyph glyph-name="Q" unicode="Q" horiz-adv-x="1636" 
d="M723 -23c178.667 -82.667 314.001 -140.166 406.001 -172.499s165 -48.5 219 -48.5c29.333 0 53.666 3.83301 72.999 11.5s34.333 19.5 45 35.5c6 9.33301 12.667 24.666 20 45.999c13.333 42 32 63 56 63c13.333 0 24.166 -6 32.499 -18s12.5 -27.333 12.5 -46
c0 -54.667 -30.5 -105.5 -91.5 -152.5s-132.833 -70.5 -215.5 -70.5c-53.333 0 -112.166 9.33301 -176.499 28s-148.166 51.667 -251.499 99l-105 48c-211.333 96.667 -334.666 145 -369.999 145c-10 0 -19.667 -3 -29 -9s-19 -15.333 -29 -28
c-4 -6 -9.66699 -15.333 -17 -28c-23.333 -38.667 -49 -58 -77 -58c-15.333 0 -28.333 5.66699 -39 17s-16 25.333 -16 42c0 39.333 26.167 73.5 78.5 102.5s116.833 43.5 193.5 43.5c20 0 39.167 -0.666992 57.5 -2s36.166 -3.66602 53.499 -6.99902
c-148.667 60.667 -264.334 156.667 -347.001 288s-124 284 -124 458c0 87.333 12 170.166 36 248.499s59.667 151.166 107 218.499c65.333 92 150 163.5 254 214.5s218 76.5 342 76.5c85.333 0 166 -13.333 242 -40s145.667 -66 209 -118
c88.667 -72.667 157.5 -166 206.5 -280s73.5 -237 73.5 -369c0 -219.333 -64.833 -399.166 -194.5 -539.499s-296.167 -210.5 -499.5 -210.5c-18.667 0 -39.167 1 -61.5 3s-46.833 5 -73.5 9zM1352 657.001c0 88.667 -10.668 173.832 -32.001 255.499
s-51.666 153.5 -90.999 215.5c-57.333 90.667 -125.333 159.834 -204 207.501s-164.334 71.5 -257.001 71.5c-147.333 0 -265 -52.667 -353 -158s-132 -246.666 -132 -423.999c0 -89.333 10.833 -175.833 32.5 -259.5s53.167 -158.834 94.5 -225.501
c52.667 -88 117 -154.667 193 -200s161.667 -68 257 -68c150.667 0 270.334 52.5 359.001 157.5s133 247.5 133 427.5z" />
    <glyph glyph-name="R" unicode="R" horiz-adv-x="1305" 
d="M389 815c25.333 -4 47.334 -7 66.001 -9s35 -3 49 -3c133.333 0 235.166 26.667 305.499 80s105.5 130.333 105.5 231c0 89.333 -30.167 158.5 -90.5 207.5s-146.166 73.5 -257.499 73.5h-32c-55.333 0 -90.333 -2.5 -105 -7.5s-24.334 -14.833 -29.001 -29.5
c-4 -16.667 -7 -70.167 -9 -160.5s-3 -217.833 -3 -382.5zM801.001 743c75.333 -25.333 135.169 -62.4971 179.502 -111.497s79.833 -117.5 106.5 -205.5c11.333 -36.667 24.666 -85.334 39.999 -146.001c29.333 -120 68 -180 116 -180c12 0 26.667 2.83301 44 8.5
s29.333 8.5 36 8.5c11.333 0 20.333 -3.66699 27 -11s10 -16.666 10 -27.999c0 -25.333 -18.667 -48 -56 -68s-81.666 -30 -132.999 -30c-32 0 -60.5 4.5 -85.5 13.5s-46.167 22.833 -63.5 41.5c-31.333 34.667 -62 110.334 -92 227.001
c-8.66699 33.333 -15.667 59.333 -21 78c-24.667 88.667 -50.334 156.667 -77.001 204s-59.667 84.333 -99 111c-27.333 19.333 -58.833 33.166 -94.5 41.499s-92.834 12.5 -171.501 12.5c-38.667 0 -62 -4.83301 -70 -14.5s-12 -37.834 -12 -84.501v-43
c0 -151.333 2 -257 6 -317s10.667 -96 20 -108c6 -8 28.167 -18.333 66.5 -31s57.5 -28.667 57.5 -48c0 -24.667 -18.5 -42.667 -55.5 -54s-97.833 -17 -182.5 -17c-84 0 -144.333 5.5 -181 16.5s-55 29.167 -55 54.5c0 19.333 19.167 35.333 57.5 48
s60.166 22.667 65.499 30c10.667 13.333 18.167 62 22.5 146s6.5 237.667 6.5 461c0 221.333 -2.16699 373.666 -6.5 456.999s-11.833 131.666 -22.5 144.999c-5.33301 7.33301 -27.166 17.333 -65.499 30s-57.5 28.334 -57.5 47.001c0 16 6.5 29.167 19.5 39.5
s31.5 17.166 55.5 20.499h9c138 8 300.667 12 488 12c147.333 0 265 -33 353 -99s132 -153 132 -261c0 -87.333 -27 -163.5 -81 -228.5s-132.667 -115.833 -236 -152.5v-15z" />
    <glyph glyph-name="S" unicode="S" horiz-adv-x="1171" 
d="M856 1475c16 14.667 29.165 25.167 39.498 31.5s19.833 9.5 28.5 9.5c25.333 0 53.833 -30 85.5 -90s47.5 -121.667 47.5 -185c0 -24 -4.66699 -42.667 -14 -56s-21.666 -20 -36.999 -20c-22 0 -48.333 21.667 -79 65c-13.333 19.333 -24 34 -32 44
c-38 47.333 -81.5 82.333 -130.5 105s-105.167 34 -168.5 34c-82.667 0 -149 -22.167 -199 -66.5s-75 -102.833 -75 -175.5c0 -70.667 19 -127.334 57 -170.001s122.667 -90.334 254 -143.001c14 -6 35 -14.333 63 -25c132.667 -52 228.334 -105 287.001 -159
c37.333 -34 65.5 -73.833 84.5 -119.5s28.5 -96.167 28.5 -151.5c0 -127.333 -49 -232.166 -147 -314.499s-224 -123.5 -378 -123.5c-92.667 0 -178.834 13 -258.501 39s-134.834 57.333 -165.501 94c-14.667 19.333 -27.5 54.5 -38.5 105.5s-16.5 106.167 -16.5 165.5
c0 30 4.5 53.167 13.5 69.5s21.5 24.5 37.5 24.5c29.333 0 55 -36 77 -108c11.333 -37.333 21.333 -66.333 30 -87c26 -61.333 67.333 -108.666 124 -141.999s123.667 -50 201 -50c100 0 181 27 243 81s93 123.333 93 208c0 24 -3.16699 46.5 -9.5 67.5
s-16.166 41.5 -29.499 61.5c-42.667 61.333 -132 118 -268 170l-61 24l-53 20c-126 48 -215 101.333 -267 160c-27.333 30.667 -47.833 65 -61.5 103s-20.5 80.333 -20.5 127c0 124.667 42.333 225.5 127 302.5s196 115.5 334 115.5c34.667 0 72.834 -3.5 114.501 -10.5
s88.167 -17.167 139.5 -30.5z" />
    <glyph glyph-name="T" unicode="T" horiz-adv-x="1200" 
d="M516 1159l0.00195312 83.999c0 58 -3.83301 93.667 -11.5 107s-28.5 20 -62.5 20h-108c-40.667 0 -71.834 -5.16699 -93.501 -15.5s-41.167 -29.166 -58.5 -56.499c-12 -18.667 -26.333 -48 -43 -88c-26.667 -65.333 -53.334 -98 -80.001 -98
c-14.667 0 -25.834 7.5 -33.501 22.5s-11.5 37.5 -11.5 67.5c0 87.333 12.667 159.333 38 216s56.333 85 93 85c3.33301 0 10.333 -1.33301 21 -4c37.333 -9.33301 73.333 -14 108 -14h650c34.667 0 70.667 4.66699 108 14c10.667 2.66699 17.667 4 21 4
c37.333 0 68.833 -28.5 94.5 -85.5s38.5 -128.833 38.5 -215.5c0 -29.333 -4 -51.666 -12 -66.999s-19.667 -23 -35 -23c-26.667 0 -52.667 32 -78 96c-16.667 41.333 -31 71.333 -43 90c-17.333 27.333 -37 46.166 -59 56.499s-53.667 15.5 -95 15.5h-108
c-33.333 0 -53.666 -5.83301 -60.999 -17.5s-11 -43.5 -11 -95.5v-98v-411c0 -223.333 2.16699 -377 6.5 -461s11.833 -132.667 22.5 -146c5.33301 -7.33301 27.166 -17.333 65.499 -30s57.5 -28.667 57.5 -48c0 -25.333 -18.333 -43.5 -55 -54.5s-97 -16.5 -181 -16.5
c-84.667 0 -145.5 5.66699 -182.5 17s-55.5 29.333 -55.5 54c0 19.333 19.167 35.333 57.5 48s60.5 23 66.5 31c10.667 13.333 18.334 65 23.001 155s7 240.333 7 451v411z" />
    <glyph glyph-name="U" unicode="U" horiz-adv-x="1460" 
d="M1292 702c0 -136.667 -5.1709 -240.666 -15.5039 -311.999s-27.5 -131.666 -51.5 -180.999c-38.667 -78.667 -99.334 -139.667 -182.001 -183s-180.334 -65 -293.001 -65c-120.667 0 -221.5 19.667 -302.5 59s-145.5 99.666 -193.5 180.999
c-23.333 38 -40.166 89.5 -50.499 154.5s-15.5 156.167 -15.5 273.5c0 34.667 0.333008 80.834 1 138.501s1 98.167 1 121.5c0 165.333 -2 280.333 -6 345s-10.667 103 -20 115c-6 8.66699 -28.333 19.167 -67 31.5s-58 27.833 -58 46.5c0 26 18.833 44.833 56.5 56.5
s97.834 17.5 180.501 17.5c83.333 0 143.833 -5.83301 181.5 -17.5s56.5 -30.5 56.5 -56.5c0 -18.667 -19 -34.334 -57 -47.001s-60 -23 -66 -31c-10.667 -12.667 -19.167 -71.334 -25.5 -176.001s-9.5 -245 -9.5 -421c0 -146.667 6.33301 -261.834 19 -345.501
s33 -146.834 61 -189.501c33.333 -50 78.333 -88.5 135 -115.5s122.334 -40.5 197.001 -40.5c86 0 158.833 18.333 218.5 55s106.834 92.334 141.501 167.001c14.667 32 25.5 89 32.5 171s10.5 193.333 10.5 334v130c0 167.333 -1.66699 279 -5 335
s-9.66602 90.333 -18.999 103c-6 7.33301 -28.333 16.833 -67 28.5s-58 26.834 -58 45.501c0 24 16.833 41.833 50.5 53.5s85.834 17.5 156.501 17.5c72.667 0 126 -5.66699 160 -17s51 -29.333 51 -54c0 -18.667 -16.5 -33 -49.5 -43s-54.167 -17.667 -63.5 -23
c-13.333 -8 -22.833 -36.5 -28.5 -85.5s-8.5 -135.833 -8.5 -260.5c0 -58 0.333008 -122 1 -192s1 -111.333 1 -124z" />
    <glyph glyph-name="V" unicode="V" horiz-adv-x="1419" 
d="M741 289c12 0 54.3369 86.335 127.004 259.002l15 36c92 222 158.667 389.667 200 503s62 186 62 218c0 18 -4.5 32.667 -13.5 44s-23.5 20.333 -43.5 27c-7.33301 2.66699 -17.333 6 -30 10c-43.333 13.333 -65 30 -65 50c0 23.333 18.167 40 54.5 50
s96.833 15 181.5 15s145.334 -5.16699 182.001 -15.5s55 -26.833 55 -49.5c0 -12 -4.83301 -22 -14.5 -30s-25.834 -15.333 -48.501 -22c-34 -10 -59.333 -22.5 -76 -37.5s-36.334 -46.833 -59.001 -95.5c-13.333 -28.667 -67.5 -167.334 -162.5 -416.001l-282.5 -706
l-18 -44c-34.667 -82.667 -64.667 -124 -90 -124c-38.667 0 -139.334 218 -302.001 654l-231 610c-0.666992 2 -2.33398 6.33301 -5.00098 13c-26.667 71.333 -54.334 114.666 -83.001 129.999c-8 4 -21.333 9 -40 15c-40 12.667 -60 29 -60 49
c0 23.333 21.167 40.666 63.5 51.999s108.5 17 198.5 17c89.333 0 155 -5.66699 197 -17s63 -28.666 63 -51.999c0 -20.667 -26 -38.667 -78 -54c-9.33301 -2.66699 -16 -4.66699 -20 -6c-19.333 -6 -33.5 -14.833 -42.5 -26.5s-13.5 -27.5 -13.5 -47.5
c0 -53.333 42.333 -189.333 127 -408l54 -138c66 -174 113.5 -294.667 142.5 -362s47.5 -101 55.5 -101z" />
    <glyph glyph-name="W" unicode="W" horiz-adv-x="2105" 
d="M1063 772c-47.333 -118.667 -103.671 -267.674 -169.004 -447.007c-88.667 -242.667 -148.334 -364 -179.001 -364c-16 0 -30.167 8.16699 -42.5 24.5s-31.166 56.5 -56.499 120.5c-74.667 189.333 -157.167 410.666 -247.5 663.999s-145.5 406 -165.5 458
c-0.666992 2 -2 5.33301 -4 10c-27.333 72.667 -55.333 116.667 -84 132c-8 4 -21 9 -39 15c-40 12.667 -60 29 -60 49c0 23.333 20.5 40.333 61.5 51s106.5 16 196.5 16c92.667 0 158.834 -5.33301 198.501 -16s59.5 -27.667 59.5 -51
c0 -21.333 -31.333 -41.666 -94 -60.999l-4 -1c-18.667 -5.33301 -32.167 -13.666 -40.5 -24.999s-12.5 -27 -12.5 -47c0 -52 41.333 -192 124 -420l46 -128c52 -145.333 94.833 -258.833 128.5 -340.5s54.167 -122.5 61.5 -122.5c10.667 0 36.167 49 76.5 147
s103.166 263.333 188.499 496c-56.667 169.333 -96.167 279.833 -118.5 331.5s-41.833 83.834 -58.5 96.501c-9.33301 7.33301 -30.666 16.833 -63.999 28.5s-50 26.834 -50 45.501c0 23.333 20.333 40.333 61 51s106.334 16 197.001 16c92 0 157.667 -5.16699 197 -15.5
s59 -27.5 59 -51.5c0 -21.333 -31.667 -41.666 -95 -60.999l-4 -1c-19.333 -6 -34 -16.833 -44 -32.5s-15 -35.5 -15 -59.5c0 -22 11.5 -68.667 34.5 -140s68.833 -200.666 137.5 -387.999c62.667 -170.667 108.167 -290.5 136.5 -359.5s46.5 -103.5 54.5 -103.5
c6 0 17.5 17.833 34.5 53.5s51.167 118.167 102.5 247.5c74 187.333 133.167 346.333 177.5 477s66.5 210 66.5 238c0 18 -4.5 32.667 -13.5 44s-23.5 20.333 -43.5 27c-7.33301 2.66699 -17.666 6 -30.999 10c-44 13.333 -66 30 -66 50c0 22.667 18.333 39.167 55 49.5
s97.334 15.5 182.001 15.5c85.333 0 146.333 -5.16699 183 -15.5s55 -26.833 55 -49.5c0 -12 -4.83301 -22 -14.5 -30s-25.834 -15.333 -48.5 -22c-36.667 -11.333 -64 -25.666 -82 -42.999s-37.333 -47.333 -58 -90c-11.333 -22.667 -62.5 -159.167 -153.5 -409.5
l-272.5 -717.5c-4.66699 -11.333 -11 -27.666 -19 -48.999c-30 -76 -55.667 -114 -77 -114c-33.333 0 -103.333 146.333 -210 439z" />
    <glyph glyph-name="X" unicode="X" horiz-adv-x="1251" 
d="M553 776c-92 157.333 -166.503 279.995 -223.503 367.995s-101.833 150.333 -134.5 187c-18 20 -43.667 37.333 -77 52s-50 29.334 -50 44.001c0 26 18.833 44.833 56.5 56.5s97.834 17.5 180.501 17.5c82 0 142.167 -5.66699 180.5 -17s57.5 -28.666 57.5 -51.999
c0 -11.333 -4 -20.666 -12 -27.999s-21.333 -14 -40 -20c-2.66699 -0.666992 -6 -1.66699 -10 -3c-34 -10.667 -51 -26.667 -51 -48s21.167 -71.166 63.5 -149.499s100.5 -174.5 174.5 -288.5l7 11c163.333 264.667 245 410.334 245 437.001
c0 18.667 -16.833 34.334 -50.5 47.001s-50.5 28 -50.5 46c0 22 17.333 38.333 52 49s88.334 16 161.001 16c75.333 0 129.666 -5.33301 162.999 -16s50 -27.667 50 -51c0 -18 -18.667 -33.333 -56 -46s-62.333 -22.667 -75 -30c-48.667 -30 -159.667 -190 -333 -480
l-50 -83l89 -146c188 -306.667 299.667 -476 335 -508c10 -8.66699 30.667 -19.667 62 -33s47 -28.333 47 -45c0 -24.667 -18.5 -42.667 -55.5 -54s-97.833 -17 -182.5 -17c-84 0 -144.167 5.5 -180.5 16.5s-54.5 29.167 -54.5 54.5c0 10 4.16699 19.167 12.5 27.5
s20.5 15.166 36.5 20.499l18 5c30 8.66699 45 23.334 45 44.001c0 27.333 -23.667 83.333 -71 168s-120 200 -218 346l-25 -42c-181.333 -294 -272 -454.667 -272 -482c0 -21.333 15.333 -37 46 -47c3.33301 -1.33301 6 -2.33301 8 -3
c14.667 -4.66699 25.834 -10.834 33.501 -18.501s11.5 -16.5 11.5 -26.5c0 -22 -17.167 -38 -51.5 -48s-88.166 -15 -161.499 -15c-75.333 0 -129.666 5.33301 -162.999 16s-50 27.667 -50 51c0 18 19 33.333 57 46s63.333 22.667 76 30
c47.333 29.333 168.666 206.333 363.999 531z" />
    <glyph glyph-name="Y" unicode="Y" horiz-adv-x="1251" 
d="M727 573c0 -136 2.33496 -238.67 7.00195 -308.003s12 -110.666 22 -123.999c5.33301 -7.33301 27.166 -17.333 65.499 -30s57.5 -28.667 57.5 -48c0 -25.333 -18.333 -43.5 -55 -54.5s-97 -16.5 -181 -16.5c-84.667 0 -145.334 5.66699 -182.001 17s-55 29.333 -55 54
c0 19.333 19 35.333 57 48s60 23 66 31c9.33301 12.667 16.333 53.334 21 122.001s7 171 7 307v146l-261.5 416c-69.667 106 -116.834 172 -141.501 198c-18 18.667 -44 35.667 -78 51s-51 30.333 -51 45c0 26 18.833 44.833 56.5 56.5s97.834 17.5 180.501 17.5
c82 0 142.167 -5.66699 180.5 -17s57.5 -28.666 57.5 -51.999c0 -10.667 -4.16699 -19.834 -12.5 -27.501s-21.5 -14.5 -39.5 -20.5c-2.66699 -0.666992 -6.33398 -1.66699 -11.001 -3c-33.333 -10.667 -50 -26 -50 -46c0 -21.333 24.167 -75.5 72.5 -162.5
s117.833 -201.5 208.5 -343.5c101.333 166 174 288.833 218 368.5s66 128.167 66 145.5c0 18.667 -17 34.334 -51 47.001s-51 28 -51 46c0 22 17.333 38.333 52 49s88.334 16 161.001 16c66.667 0 115.667 -5.5 147 -16.5s47 -27.833 47 -50.5c0 -16 -17 -31 -51 -45
s-57 -25.667 -69 -35c-40 -30.667 -170.333 -227.667 -391 -591l-19 -32v-158z" />
    <glyph glyph-name="Z" unicode="Z" horiz-adv-x="1251" 
d="M188 0c-44.667 0 -78.3301 7.16602 -100.997 21.499s-34 35.833 -34 64.5c0 17.333 6.83301 39 20.5 65s34.167 57 61.5 93l776 1003c15.333 19.333 27.5 37.166 36.5 53.499s13.5 29.166 13.5 38.499c0 14 -10.833 23.667 -32.5 29s-62.167 8 -121.5 8h-272
c-53.333 0 -94.166 -2 -122.499 -6s-53.833 -10.667 -76.5 -20c-34 -15.333 -68 -53 -102 -113l-1 -3c-3.33301 -5.33301 -8 -13.666 -14 -24.999c-34.667 -62 -66.667 -93 -96 -93c-12.667 0 -23 6.5 -31 19.5s-12 29.833 -12 50.5s3.16699 47.334 9.5 80.001
s15.5 67.334 27.5 104.001c16 52.667 33 90.5 51 113.5s39 34.5 63 34.5c1.33301 0 5.66602 -1 12.999 -3c51.333 -14.667 110.666 -22 177.999 -22h575c77.333 0 130.166 -5.66699 158.499 -17s42.5 -31 42.5 -59c0 -22.667 -12.5 -56.167 -37.5 -100.5
s-60.833 -96.166 -107.5 -155.499l-721 -915c-16.667 -21.333 -29.667 -40.333 -39 -57s-14 -29 -14 -37c0 -12 12.667 -20.5 38 -25.5s67 -7.5 125 -7.5h369c71.333 0 125 9 161 27s69 52 99 102c10.667 17.333 23 42.666 37 75.999c22 51.333 44.667 77 68 77
c15.333 0 27.333 -7 36 -21s13 -34.333 13 -61c0 -93.333 -14.333 -172.833 -43 -238.5s-62.334 -98.5 -101.001 -98.5c-2.66699 0 -9.66699 1 -21 3c-54.667 10 -109.667 15 -165 15h-707z" />
    <glyph glyph-name="bracketleft" unicode="[" horiz-adv-x="678" 
d="M190 1313c0 85.333 11.667 138.002 35 158.002s80.666 30 171.999 30h105c59.333 0 99 -3.83301 119 -11.5s30 -21.5 30 -41.5c0 -20.667 -7.16699 -35.667 -21.5 -45s-37.166 -14 -68.499 -14h-127c-31.333 0 -53.5 -6.33301 -66.5 -19s-19.5 -34.334 -19.5 -65.001
v-1393c0 -30 6.33301 -51.167 19 -63.5s35 -18.5 67 -18.5h127c31.333 0 54.166 -4.83301 68.499 -14.5s21.5 -24.5 21.5 -44.5s-10 -34 -30 -42s-59.667 -12 -119 -12h-105c-91.333 0 -148.666 10.167 -171.999 30.5s-35 73.166 -35 158.499v1407z" />
    <glyph glyph-name="backslash" unicode="\" horiz-adv-x="569" 
d="M571 -157l-610.001 1607c-3.33301 8.66699 -5.83301 16.834 -7.5 24.501s-2.5 14.5 -2.5 20.5c0 7.33301 4 12.833 12 16.5s20.333 5.83398 37 6.50098c16 0 28.333 -2.66699 37 -8s15.334 -14.333 20.001 -27l613 -1608c2.66699 -6.66699 4.66699 -13.167 6 -19.5
s2 -12.833 2 -19.5c0 -9.33301 -3.83301 -16 -11.5 -20s-19.5 -6 -35.5 -6c-17.333 0 -30.5 2.5 -39.5 7.5s-15.833 13.5 -20.5 25.5z" />
    <glyph glyph-name="bracketright" unicode="]" horiz-adv-x="678" 
d="M489 -94c0 -84.667 -11.667 -137.334 -35 -158.001s-81 -31 -173 -31h-103c-59.333 0 -99 4 -119 12s-30 22 -30 42s7.16699 34.833 21.5 44.5s37.166 14.5 68.499 14.5h127c32 0 54.333 6.16699 67 18.5s19 33.5 19 63.5v1393c0 30.667 -6.5 52.334 -19.5 65.001
s-35.167 19 -66.5 19h-127c-31.333 0 -54.166 4.5 -68.499 13.5s-21.5 23.5 -21.5 43.5s10 33.833 30 41.5s59.667 11.5 119 11.5h103c92 0 149.667 -10.167 173 -30.5s35 -72.833 35 -157.5v-1405z" />
    <glyph glyph-name="asciicircum" unicode="^" horiz-adv-x="2048" 
d="M934 1462h178l520 -565h-92l-518 436l-520 -436h-90z" />
    <glyph glyph-name="underscore" unicode="_" 
d="M0 -365h1024v-118h-1024v118z" />
    <glyph glyph-name="grave" unicode="`" 
d="M345 1470l248.999 -190c4 -3.33301 10 -8 18 -14c36 -26.667 54 -46.667 54 -60c0 -10 -5.16699 -20.333 -15.5 -31s-21.166 -16 -32.499 -16c-7.33301 0 -17 2.66699 -29 8s-29.333 15 -52 29l-287 168c-21.333 12.667 -35.5 23.167 -42.5 31.5s-10.5 17.5 -10.5 27.5
c0 18.667 8.16699 37.667 24.5 57s32.5 29 48.5 29c14 0 36.667 -11.333 68 -34c2.66699 -2 5 -3.66699 7 -5z" />
    <glyph glyph-name="a" unicode="a" horiz-adv-x="1073" 
d="M739 608c0.666992 8 1.16602 16.333 1.49902 25s0.5 21.667 0.5 39c0 102 -16 175.167 -48 219.5s-84 66.5 -156 66.5c-36.667 0 -69.667 -7 -99 -21s-56.666 -35.667 -81.999 -65l-24 -31c-33.333 -47.333 -67 -71 -101 -71c-20.667 0 -37.334 6.33301 -50.001 19
s-19 29.667 -19 51c0 49.333 38.167 95.666 114.5 138.999s163.833 65 262.5 65c123.333 0 214.5 -30.667 273.5 -92s88.5 -156.666 88.5 -285.999c0 -37.333 -0.666992 -87 -2 -149s-2 -105.333 -2 -130c0 -121.333 3.16699 -198.5 9.5 -231.5s17.5 -49.5 33.5 -49.5
c6.66699 0 15.167 1.16699 25.5 3.5s16.833 3.5 19.5 3.5c9.33301 0 16.5 -2.83301 21.5 -8.5s7.5 -13.167 7.5 -22.5c0 -23.333 -15.333 -47 -46 -71s-62.667 -36 -96 -36c-39.333 0 -82.333 42.667 -129 128l-10 18h-14c-46 -46 -94.667 -80 -146 -102s-108 -33 -170 -33
c-98.667 0 -177.5 26.667 -236.5 80s-88.5 125 -88.5 215c0 106.667 39.167 190 117.5 250s187.833 90 328.5 90c35.333 0 70.833 -1.16699 106.5 -3.5s71.834 -5.5 108.501 -9.5zM738.999 520c-35.333 6 -67.834 10.333 -97.501 13s-57.167 4 -82.5 4
c-101.333 0 -178.166 -20.667 -230.499 -62s-78.5 -101.333 -78.5 -180c0 -65.333 18.5 -116.5 55.5 -153.5s88.167 -55.5 153.5 -55.5c83.333 0 150.833 25.833 202.5 77.5s77.5 120.167 77.5 205.5v151z" />
    <glyph glyph-name="b" unicode="b" horiz-adv-x="1176" 
d="M598 948c-52 0 -100.667 -12.5 -146 -37.5s-82 -59.5 -110 -103.5c-10.667 -16.667 -18.167 -40.167 -22.5 -70.5s-6.5 -90.833 -6.5 -181.5c0 -87.333 1.33301 -159.5 4 -216.5s6.33398 -94.167 11.001 -111.5c11.333 -46.667 40.666 -86 87.999 -118
s101.333 -48 162 -48c100.667 0 182 41.333 244 124s93 191.667 93 327c0 130.667 -29.333 236 -88 316s-135 120 -229 120zM311 913l14.999 0.000976562c45.333 48.667 93.166 84.167 143.499 106.5s107.5 33.5 171.5 33.5c135.333 0 245.666 -47 330.999 -141
s128 -216.333 128 -367c0 -84 -17.167 -164 -51.5 -240s-83.5 -143.667 -147.5 -203c-46.667 -43.333 -99.834 -76.333 -159.501 -99s-123.834 -34 -192.501 -34c-55.333 0 -107.666 8.16699 -156.999 24.5s-96.666 41.166 -141.999 74.499
c-20.667 -12 -39.167 -20.833 -55.5 -26.5s-31.166 -8.5 -44.499 -8.5c-12 0 -22.667 1.83301 -32 5.5s-18 9.16699 -26 16.5c25.333 23.333 43 61.333 53 114s15 152 15 298c0 327.333 -2.33301 550.833 -7 670.5s-12.667 188.167 -24 205.5
c-6.66699 10 -27.5 17.333 -62.5 22s-52.5 18.667 -52.5 42c0 12.667 6 24.334 18 35.001s31.333 21.667 58 33c34.667 13.333 69.334 24.166 104.001 32.499s59.334 12.5 74.001 12.5c20 0 33.5 -5 40.5 -15s10.5 -29.667 10.5 -59c0 -6 -0.333008 -23.667 -1 -53
c-4.66699 -160 -7 -320 -7 -480z" />
    <glyph glyph-name="c" unicode="c" horiz-adv-x="1028" 
d="M907 700c-22.667 0 -42.333 7.33887 -59 22.0059s-35 43 -55 85c-24.667 51.333 -52.334 88.666 -83.001 111.999s-68 35 -112 35c-105.333 0 -188 -36.833 -248 -110.5s-90 -175.834 -90 -306.501c0 -128.667 34.333 -234.334 103 -317.001s156 -124 262 -124
c34 0 67.833 5.66699 101.5 17s66.5 28.333 98.5 51c16.667 11.333 39.667 31.833 69 61.5s53 44.5 71 44.5c11.333 0 20.666 -3.66699 27.999 -11s11 -17.333 11 -30c0 -14.667 -5.16699 -31.334 -15.5 -50.001s-25.166 -38 -44.499 -58
c-46 -48.667 -99.833 -85.5 -161.5 -110.5s-128.5 -37.5 -200.5 -37.5c-149.333 0 -270.666 48.667 -363.999 146s-140 223.666 -140 378.999c0 158 49.5 289.333 148.5 394s222.833 157 371.5 157c108 0 201.5 -26.333 280.5 -79s118.5 -110.334 118.5 -173.001
c0 -28 -8.5 -51.167 -25.5 -69.5s-38.5 -27.5 -64.5 -27.5z" />
    <glyph glyph-name="d" unicode="d" horiz-adv-x="1196" 
d="M866 1196c0 56.667 -3.16797 96.667 -9.50098 120s-16.833 37.333 -31.5 42c-6.66699 2 -18.334 4 -35.001 6c-39.333 4 -59 18.333 -59 43c0 14 6.16699 26.333 18.5 37s32.833 21 61.5 31c38 14 73.5 25 106.5 33s58.167 12 75.5 12c18.667 0 31.5 -5.16699 38.5 -15.5
s10.5 -29.833 10.5 -58.5c0 -27.333 -3.33301 -124.5 -10 -291.5s-10 -320.5 -10 -460.5c0 -196 2 -332.667 6 -410s11 -123.666 21 -138.999c5.33301 -8.66699 25.666 -15.5 60.999 -20.5s53 -19.167 53 -42.5s-28.167 -48 -84.5 -74s-109.833 -39 -160.5 -39
c-18.667 0 -31.667 5.16699 -39 15.5s-11 29.833 -11 58.5v33c0 10.667 -0.666992 18 -2 22s-4 6 -8 6c-9.33301 0 -24.666 -8 -45.999 -24c-8.66699 -6.66699 -15 -11.334 -19 -14.001c-43.333 -30.667 -85.666 -52.334 -126.999 -65.001s-88.666 -19 -141.999 -19
c-133.333 0 -242.333 47 -327 141s-127 217 -127 369c0 158.667 47.833 290.834 143.5 396.501s214.167 158.5 355.5 158.5c89.333 0 174.333 -22 255 -66c12 -6.66699 19.333 -10 22 -10c6 0 10.833 5.16699 14.5 15.5s5.5 24.833 5.5 43.5v166zM865.999 678
c0 87.333 -23.001 153.831 -69.001 199.498s-113 68.5 -201 68.5c-101.333 0 -183.333 -40.5 -246 -121.5s-94 -187.833 -94 -320.5c0 -122 29 -220.167 87 -294.5s134 -111.5 228 -111.5c43.333 0 87.333 8.66699 132 26s83.334 41 116.001 71
c17.333 14.667 29.5 30.834 36.5 48.501s10.5 45.834 10.5 84.501v28v322z" />
    <glyph glyph-name="e" unicode="e" horiz-adv-x="1085" 
d="M299 641l506 0.000976562c15.333 0 25.666 2.83301 30.999 8.5s8 16.5 8 32.5c0 78 -26.333 142.833 -79 194.5s-119.334 77.5 -200.001 77.5c-42.667 0 -83.167 -9.33301 -121.5 -28s-72.166 -45.334 -101.499 -80.001c-23.333 -28 -42.166 -58.333 -56.499 -91
s-21.5 -61 -21.5 -85c0 -10.667 2.5 -18.167 7.5 -22.5s14.167 -6.5 27.5 -6.5zM926 555.001l-630.997 0.00292969c-13.333 0 -22.5 -2.66699 -27.5 -8s-7.5 -15.666 -7.5 -30.999c0 -124.667 33 -226.834 99 -306.501s150.333 -119.5 253 -119.5
c40 0 78.833 6.66699 116.5 20s71.834 32.666 102.501 57.999c16 12.667 38.167 35 66.5 67s52.166 48 71.499 48c11.333 0 20.666 -3.5 27.999 -10.5s11 -15.833 11 -26.5c0 -14.667 -4.5 -30.834 -13.5 -48.501s-21.833 -35.834 -38.5 -54.501
c-50 -55.333 -107.833 -97.5 -173.5 -126.5s-136.167 -43.5 -211.5 -43.5c-142.667 0 -260.834 49.5 -354.501 148.5s-140.5 223.833 -140.5 374.5c0 160 49 292.5 147 397.5s221 157.5 369 157.5c128 0 229.667 -36 305 -108s113 -169.333 113 -292
c0 -40 -4.33301 -66 -13 -78s-32.334 -18 -71.001 -18z" />
    <glyph glyph-name="f" unicode="f" horiz-adv-x="551" 
d="M174 895l-141 -0.00292969c-13.333 0 -22.833 3 -28.5 9s-8.5 16 -8.5 30v27c0 13.333 2.83301 23.333 8.5 30s14.5 10 26.5 10l139 1c-0.666992 20 -2 47.667 -4 83c-2.66699 54 -4 88.333 -4 103c0 106.667 27.333 188.334 82 245.001s133.667 85 237 85
c68.667 0 124.5 -13.5 167.5 -40.5s64.5 -61.5 64.5 -103.5c0 -24 -7.16699 -43.333 -21.5 -58s-33.166 -22 -56.499 -22c-18 0 -34.333 4.33301 -49 13s-27 20.667 -37 36c-2.66699 4 -6.33398 10 -11.001 18c-27.333 46 -60 69 -98 69
c-39.333 0 -70.666 -16.5 -93.999 -49.5s-35 -78.167 -35 -135.5c0 -13.333 2.66699 -47 8 -101s8.33301 -101.333 9 -142l190 -1c13.333 0 22.833 -3.16699 28.5 -9.5s8.5 -16.5 8.5 -30.5v-27c0 -13.333 -3 -23.166 -9 -29.499s-15.333 -9.5 -28 -9.5h-188
c0 -314.667 1.16699 -514.5 3.5 -599.5s6.5 -137.833 12.5 -158.5c3.33301 -10.667 9.16602 -19 17.499 -25s25.166 -12 50.499 -18c0.666992 0 2 -0.333008 4 -1c35.333 -8.66699 53 -22 53 -40c0 -22 -16.333 -37.667 -49 -47s-88.667 -14 -168 -14
c-71.333 0 -123 4.83301 -155 14.5s-48 25.167 -48 46.5c0 17.333 14.333 30.333 43 39s46.334 16.334 53.001 23.001c12 10.667 20.167 41.5 24.5 92.5s6.5 173.5 6.5 367.5c0 38 -0.166992 78.833 -0.5 122.5s-1.5 109.5 -3.5 197.5z" />
    <glyph glyph-name="g" unicode="g" horiz-adv-x="1075" 
d="M292 24c-20 -20 -35.501 -42.668 -46.501 -68.001s-16.5 -51.666 -16.5 -78.999c0 -64 28.5 -115.167 85.5 -153.5s133.833 -57.5 230.5 -57.5c110.667 0 201.834 23.167 273.501 69.5s107.5 103.833 107.5 172.5c0 42 -13.333 74 -40 96s-65.334 33 -116.001 33
c-17.333 0 -63 -4.5 -137 -13.5s-139.667 -13.5 -197 -13.5c-28 0 -53.667 1.16699 -77 3.5s-45.666 5.83301 -66.999 10.5zM273.999 411.999c-47.333 30 -83.001 67.333 -107.001 112s-36 96 -36 154c0 108.667 40 198.334 120 269.001s181.333 106 304 106
c39.333 0 88 -5.83301 146 -17.5s96.667 -17.5 116 -17.5c30 0 59.667 6.83301 89 20.5s56.333 33.5 81 59.5c13.333 -4.66699 23.5 -12.167 30.5 -22.5s10.5 -23.5 10.5 -39.5c0 -26.667 -10.667 -52 -32 -76s-52.333 -45 -93 -63
c17.333 -28.667 30.166 -57.5 38.499 -86.5s12.5 -58.833 12.5 -89.5c0 -108.667 -41.5 -199 -124.5 -271s-187.5 -108 -313.5 -108c-30 0 -59.667 3 -89 9s-57.666 14.667 -84.999 26c-29.333 -11.333 -52.666 -28.333 -69.999 -51s-26 -47.334 -26 -74.001
c0 -29.333 13.167 -53.666 39.5 -72.999s59.5 -29 99.5 -29c44 0 115 6 213 18s173.667 18 227 18c80.667 0 143.834 -20.167 189.501 -60.5s68.5 -95.833 68.5 -166.5c0 -108 -54 -198.5 -162 -271.5s-245 -109.5 -411 -109.5c-128.667 0 -232.167 26.167 -310.5 78.5
s-117.5 120.5 -117.5 204.5c0 40.667 10.333 76.334 31 107.001s54 59.667 100 87c-38 16.667 -66.333 37 -85 61s-28 53 -28 87c0 43.333 14.667 82.666 44 117.999s72.666 65.666 129.999 90.999zM290.998 697.999c0 -82.667 22.333 -149.666 67 -200.999
s102.667 -77 174 -77c74.667 0 136 25.667 184 77s72 117 72 197c0 83.333 -23.333 150.666 -70 201.999s-107.667 77 -183 77c-69.333 0 -127.333 -26 -174 -78s-70 -117.667 -70 -197z" />
    <glyph glyph-name="h" unicode="h" horiz-adv-x="1184" 
d="M330 891c0 -12 1.00195 -19.834 3.00195 -23.501s5 -5.5 9 -5.5c9.33301 0 23 12.333 41 37c14.667 20.667 27 36.334 37 47.001c31.333 36 67.666 62.833 108.999 80.5s88.333 26.5 141 26.5c95.333 0 171.5 -24.5 228.5 -73.5s96.833 -124.167 119.5 -225.5
c4 -18 7 -40.5 9 -67.5s3 -63.167 3 -108.5c0 -14.667 -0.333008 -38.334 -1 -71.001s-1 -58.334 -1 -77.001c0 -42.667 1.33301 -113.667 4 -213v-18c2.66699 -32 6.66699 -53.833 12 -65.5s14.666 -21.5 27.999 -29.5c5.33301 -3.33301 15.666 -7 30.999 -11
c32 -8.66699 48 -22 48 -40c0 -21.333 -15.667 -36.833 -47 -46.5s-82.666 -14.5 -153.999 -14.5c-70.667 0 -121.667 4.83301 -153 14.5s-47 25.167 -47 46.5c0 17.333 15.333 30.833 46 40.5s50 20.834 58 33.501c6.66699 10.667 11.334 40.334 14.001 89.001
s4 164.334 4 347.001c0 126.667 -17.833 217 -53.5 271s-94.167 81 -175.5 81c-52.667 0 -101.667 -11.667 -147 -35s-85.666 -58 -120.999 -104c-16 -19.333 -27.167 -41 -33.5 -65s-9.5 -59.667 -9.5 -107v-74c0 -150 1.33301 -251.833 4 -305.5
s7.33398 -86.167 14.001 -97.5c8 -12.667 27.5 -23.834 58.5 -33.501s46.5 -23.167 46.5 -40.5c0 -21.333 -15.833 -36.833 -47.5 -46.5s-82.834 -14.5 -153.501 -14.5c-71.333 0 -123 4.83301 -155 14.5s-48 25.167 -48 46.5c0 17.333 15.5 30.833 46.5 40.5
s50.5 20.834 58.5 33.501c7.33301 12 12.5 51 15.5 117s4.5 195.667 4.5 389c0 261.333 -2.16699 441.166 -6.5 539.499s-11.833 155.5 -22.5 171.5c-5.33301 8.66699 -26 15.5 -62 20.5s-54 19.167 -54 42.5c0 12.667 6 24.334 18 35.001s31 21.667 57 33
c35.333 13.333 70.166 24.166 104.499 32.499s59.166 12.5 74.499 12.5c20 0 33.833 -5.16699 41.5 -15.5s11.5 -29.833 11.5 -58.5c0 -8.66699 -0.666992 -31.667 -2 -69c-4 -140.667 -6 -274 -6 -400v-86z" />
    <glyph glyph-name="i" unicode="i" horiz-adv-x="510" 
d="M143 1384c0 32 10.668 58.834 32.001 80.501s47.666 32.5 78.999 32.5s56.833 -9.33301 76.5 -28s29.5 -42.667 29.5 -72c0 -30 -10.667 -55.667 -32 -77s-47.333 -32 -78 -32c-30 0 -55.333 9.16699 -76 27.5s-31 41.166 -31 68.499zM182.001 389.001
c0 160.667 -2 278.171 -6 352.504s-10.667 118.5 -20 132.5c-6 9.33301 -26.667 16.5 -62 21.5s-53 19.167 -53 42.5c0 13.333 5.5 25.166 16.5 35.499s30.167 21.166 57.5 32.499c33.333 13.333 66.5 24.166 99.5 32.499s59.167 12.5 78.5 12.5
c18 0 30.667 -5.16699 38 -15.5s11 -29.833 11 -58.5c0 -6.66699 -0.333008 -26 -1 -58c-4.66699 -184.667 -7 -371.667 -7 -561c0 -90.667 2 -151.667 6 -183s10.667 -51.333 20 -60c7.33301 -6.66699 25 -14.334 53 -23.001s42 -21.667 42 -39
c0 -20.667 -15.667 -36 -47 -46s-80.666 -15 -147.999 -15c-70.667 0 -121.834 4.83301 -153.501 14.5s-47.5 25.167 -47.5 46.5c0 17.333 14 30.333 42 39s45.667 16.334 53 23.001c10 9.33301 17.167 33.166 21.5 71.499s6.5 105.833 6.5 202.5z" />
    <glyph glyph-name="j" unicode="j" horiz-adv-x="500" 
d="M188 63c0 270.667 -2.49902 469.336 -7.49902 596.003s-13.167 198.334 -24.5 215.001c-6 9.33301 -26.667 16.5 -62 21.5s-53 19.167 -53 42.5c0 12.667 5.83301 24.5 17.5 35.5s30.5 21.833 56.5 32.5c33.333 13.333 68 24.166 104 32.499s62 12.5 78 12.5
c19.333 0 32.666 -5 39.999 -15s11 -29.667 11 -59c0 -6.66699 -0.333008 -26 -1 -58c-4.66699 -185.333 -7 -372.333 -7 -561c0 -86.667 0.333008 -175.334 1 -266.001s1 -138.334 1 -143.001c0 -149.333 -17.167 -248.5 -51.5 -297.5s-95.833 -73.5 -184.5 -73.5
c-44.667 0 -79 5.16699 -103 15.5s-36 25.166 -36 44.499c0 11.333 3.66699 19.833 11 25.5s18 8.5 32 8.5c6.66699 0 19 -1.33301 37 -4s32.333 -4 43 -4c38.667 0 64.667 15.667 78 47s20 107.333 20 228v124zM129.001 1384c0 32 10.5 58.834 31.5 80.501
s47.5 32.5 79.5 32.5c30.667 0 56 -9.33301 76 -28s30 -42.667 30 -72c0 -30 -10.833 -55.667 -32.5 -77s-47.5 -32 -77.5 -32c-30.667 0 -56.167 9.16699 -76.5 27.5s-30.5 41.166 -30.5 68.499z" />
    <glyph glyph-name="k" unicode="k" horiz-adv-x="1010" 
d="M332 410c0 -92 1.33496 -159.661 4.00195 -202.994s7.33398 -70 14.001 -80c8 -12.667 27.5 -23.834 58.5 -33.501s46.5 -23.167 46.5 -40.5c0 -21.333 -15.833 -36.833 -47.5 -46.5s-82.834 -14.5 -153.501 -14.5c-71.333 0 -123 4.83301 -155 14.5s-48 25.167 -48 46.5
c0 17.333 15.5 30.833 46.5 40.5s50.5 20.834 58.5 33.501c7.33301 12 12.5 51 15.5 117s4.5 195.667 4.5 389c0 261.333 -2.16699 441.166 -6.5 539.499s-11.833 155.5 -22.5 171.5c-5.33301 8.66699 -26 15.5 -62 20.5s-54 19.167 -54 42.5c0 12.667 6 24.334 18 35.001
s31 21.667 57 33c35.333 13.333 70.166 24.166 104.499 32.499s59.166 12.5 74.499 12.5c20 0 33.833 -5.16699 41.5 -15.5s11.5 -29.833 11.5 -58.5c0 -6 -2 -81.167 -6 -225.5s-6 -285.5 -6 -423.5c0 -82.667 1.16699 -133.334 3.5 -152.001s6.5 -28.334 12.5 -29.001
c10.667 0 27.834 9.16699 51.501 27.5s52.834 44.833 87.501 79.5c58 56.667 97.5 98 118.5 124s31.5 45.333 31.5 58c0 15.333 -14.667 28 -44 38s-44 22.667 -44 38c0 20 17.667 34.5 53 43.5s94 13.5 176 13.5c70 0 120.667 -4.16699 152 -12.5s47 -21.833 47 -40.5
c0 -16.667 -26.333 -33.334 -79 -50.001s-97.334 -39 -134.001 -67c-62.667 -47.333 -119.334 -98.166 -170.001 -152.499s-76 -86.833 -76 -97.5c0 -4 3 -11.333 9 -22s16.667 -26.334 32 -47.001c77.333 -104 148.666 -193.833 213.999 -269.5s117 -128.5 155 -158.5
c20 -16.667 50.167 -28.334 90.5 -35.001s60.5 -19.667 60.5 -39c0 -18.667 -16.667 -33.167 -50 -43.5s-80.666 -15.5 -141.999 -15.5c-35.333 0 -62.333 4.66699 -81 14s-44.334 32.666 -77.001 69.999c-17.333 19.333 -58.166 72.333 -122.499 159
s-123.166 161.334 -176.499 224.001c-24 28 -40.833 46.5 -50.5 55.5s-16.834 13.5 -21.501 13.5c-7.33301 0 -12.5 -3.83301 -15.5 -11.5s-4.5 -24.834 -4.5 -51.501v-51z" />
    <glyph glyph-name="l" unicode="l" horiz-adv-x="500" 
d="M328 795c0 -261.333 1.66895 -434.832 5.00195 -520.499s9 -134.834 17 -147.501s27.5 -23.834 58.5 -33.501s46.5 -23.167 46.5 -40.5c0 -21.333 -15.833 -36.833 -47.5 -46.5s-82.834 -14.5 -153.501 -14.5c-71.333 0 -123 4.83301 -155 14.5s-48 25.167 -48 46.5
c0 17.333 15.5 30.833 46.5 40.5s50.5 20.834 58.5 33.501c6.66699 12 11.334 47.167 14.001 105.5s4 169.166 4 332.499v172c0 265.333 -2.66699 431.833 -8 499.5s-15 106.834 -29 117.501c-4 2.66699 -22.667 6.33398 -56 11.001s-50 18.667 -50 42
c0 12.667 6 24.334 18 35.001s31 21.667 57 33c35.333 13.333 70.166 24.166 104.499 32.499s59.166 12.5 74.499 12.5c20 0 33.833 -5.16699 41.5 -15.5s11.5 -29.833 11.5 -58.5c0 -6.66699 -0.666992 -27.334 -2 -62.001c-5.33301 -194.667 -8 -391 -8 -589z" />
    <glyph glyph-name="m" unicode="m" horiz-adv-x="1774" 
d="M330 891c0 -12 1 -19.8369 3 -23.5039s5 -5.5 9 -5.5c9.33301 0 22.333 11.333 39 34l16 22c36.667 45.333 75.667 79.166 117 101.499s86.333 33.5 135 33.5c49.333 0 94.333 -9.83301 135 -29.5s75.667 -48.167 105 -85.5c12 -15.333 23.667 -34.5 35 -57.5
s20 -34.5 26 -34.5c11.333 0 25.333 13 42 39c10.667 16.667 20 30.334 28 41.001c34.667 44 72.5 76.167 113.5 96.5s88.5 30.5 142.5 30.5c72 0 134.833 -16.833 188.5 -50.5s91.834 -80.5 114.501 -140.5c14 -36 24 -77.667 30 -125s9 -114.666 9 -201.999v-177
c0 -90.667 2 -151.667 6 -183s10.667 -51.333 20 -60c7.33301 -6.66699 25 -14.334 53 -23.001s42 -21.667 42 -39c0 -21.333 -15.833 -36.833 -47.5 -46.5s-82.834 -14.5 -153.501 -14.5s-121.834 4.83301 -153.501 14.5s-47.5 25.167 -47.5 46.5
c0 17.333 15.5 30.833 46.5 40.5s50.5 20.834 58.5 33.501c6.66699 12 11.334 47 14.001 105s4 168.333 4 331c0 126 -15.667 216.167 -47 270.5s-82.333 81.5 -153 81.5c-49.333 0 -99 -16.333 -149 -49s-88.667 -74.334 -116 -125.001
c-8 -15.333 -13.667 -42.666 -17 -81.999s-5 -111 -5 -215v-86c0 -90.667 2 -151.667 6 -183s10.667 -51.333 20 -60c7.33301 -6.66699 25.333 -14.334 54 -23.001s43 -21.667 43 -39c0 -21.333 -15.667 -36.833 -47 -46.5s-82 -14.5 -152 -14.5
c-69.333 0 -119.5 4.83301 -150.5 14.5s-46.5 25.167 -46.5 46.5c0 17.333 15.5 30.833 46.5 40.5s50.5 20.834 58.5 33.501c6.66699 10.667 11.334 40.334 14.001 89.001s4 164.334 4 347.001c0 126 -15.833 216.167 -47.5 270.5s-83.167 81.5 -154.5 81.5
c-48.667 0 -98.5 -16.667 -149.5 -50s-90.833 -75.333 -119.5 -126c-7.33301 -13.333 -12.5 -31 -15.5 -53s-4.5 -59 -4.5 -111v-45c0 -150 1.33301 -251.833 4 -305.5s7.33398 -86.167 14.001 -97.5c8 -12.667 27.5 -23.834 58.5 -33.501s46.5 -23.167 46.5 -40.5
c0 -21.333 -15.833 -36.833 -47.5 -46.5s-82.834 -14.5 -153.501 -14.5c-71.333 0 -123 4.83301 -155 14.5s-48 25.167 -48 46.5c0 17.333 15.5 30.833 46.5 40.5s50.5 20.834 58.5 33.501c7.33301 13.333 12.5 49.833 15.5 109.5s4.5 157.5 4.5 293.5
c0 103.333 -2.16699 183.333 -6.5 240s-10.833 91.334 -19.5 104.001c-6 9.33301 -26.667 16.5 -62 21.5s-53 19.167 -53 42.5c0 24 28.167 49.167 84.5 75.5s110.166 39.5 161.499 39.5c18 0 30.667 -5.33301 38 -16s11 -30.667 11 -60v-86z" />
    <glyph glyph-name="n" unicode="n" horiz-adv-x="1184" 
d="M330 891c0 -12 1.00195 -19.835 3.00195 -23.502s5 -5.5 9 -5.5c9.33301 0 23 12.333 41 37c14.667 20.667 27 36.334 37 47.001c31.333 36 67.666 62.833 108.999 80.5s88.333 26.5 141 26.5c95.333 0 171.5 -24.5 228.5 -73.5s96.833 -124.167 119.5 -225.5
c4 -18 7 -40.5 9 -67.5s3 -63.167 3 -108.5c0 -14.667 -0.333008 -38.334 -1 -71.001s-1 -58.334 -1 -77.001c0 -34.667 0.5 -71.334 1.5 -110.001s2.5 -79 4.5 -121c1.33301 -30.667 4.66602 -52.167 9.99902 -64.5s14.666 -22.5 27.999 -30.5
c5.33301 -3.33301 15.666 -7 30.999 -11c32 -8.66699 48 -22 48 -40c0 -21.333 -15.667 -36.833 -47 -46.5s-82.666 -14.5 -153.999 -14.5c-70.667 0 -121.667 4.83301 -153 14.5s-47 25.167 -47 46.5c0 17.333 15.333 30.833 46 40.5s50 20.834 58 33.501
c6.66699 10.667 11.334 40.334 14.001 89.001s4 164.334 4 347.001c0 126.667 -17.833 217 -53.5 271s-94.167 81 -175.5 81c-52.667 0 -101.667 -11.667 -147 -35s-85.666 -58 -120.999 -104c-16 -19.333 -27.167 -41 -33.5 -65s-9.5 -59.667 -9.5 -107v-74
c0 -150 1.33301 -251.833 4 -305.5s7.33398 -86.167 14.001 -97.5c8 -12.667 27.5 -23.834 58.5 -33.501s46.5 -23.167 46.5 -40.5c0 -21.333 -15.833 -36.833 -47.5 -46.5s-82.834 -14.5 -153.501 -14.5c-71.333 0 -123 4.83301 -155 14.5s-48 25.167 -48 46.5
c0 17.333 15.5 30.833 46.5 40.5s50.5 20.834 58.5 33.501c7.33301 13.333 12.5 49.833 15.5 109.5s4.5 157.5 4.5 293.5c0 103.333 -2.16699 183.333 -6.5 240s-10.833 91.334 -19.5 104.001c-6 9.33301 -26.667 16.5 -62 21.5s-53 19.167 -53 42.5
c0 24 28.167 49.167 84.5 75.5s110.166 39.5 161.499 39.5c18 0 30.667 -5.33301 38 -16s11 -30.667 11 -60v-86z" />
    <glyph glyph-name="o" unicode="o" horiz-adv-x="1184" 
d="M250 555c0 -141.333 33.667 -258.168 101 -350.501s151 -138.5 251 -138.5c102 0 182.167 36.667 240.5 110s87.5 175 87.5 305c0 135.333 -35 248 -105 338s-157.333 135 -262 135c-92 0 -167.167 -36.667 -225.5 -110s-87.5 -169.666 -87.5 -288.999zM70 495.998
c0 158.667 51.499 290.833 154.499 396.5s231.5 158.5 385.5 158.5c146.667 0 267.334 -48.5 362.001 -145.5s142 -220.5 142 -370.5c0 -160.667 -51 -294.5 -153 -401.5s-228.333 -160.5 -379 -160.5c-145.333 0 -267 50.167 -365 150.5s-147 224.5 -147 372.5z" />
    <glyph glyph-name="p" unicode="p" horiz-adv-x="1180" 
d="M326 928c0 -11.333 0.664062 -18.835 1.99707 -22.502s4 -5.83398 8 -6.50098c10.667 0 28 10.333 52 31c4 3.33301 7 6 9 8c47.333 38 90.833 64.833 130.5 80.5s82.167 23.5 127.5 23.5c137.333 0 247.833 -45.5 331.5 -136.5s125.5 -211.167 125.5 -360.5
c0 -164 -48.5 -300 -145.5 -408s-218.5 -162 -364.5 -162c-44.667 0 -88.167 5.83301 -130.5 17.5s-86.166 29.834 -131.499 54.501l-14 -8c0 -102 1.33301 -177 4 -225s7.33398 -77.333 14.001 -88c9.33301 -15.333 32.166 -26.666 68.499 -33.999s54.5 -20 54.5 -38
c0 -22.667 -16.167 -39 -48.5 -49s-85.833 -15 -160.5 -15c-75.333 0 -129.333 5 -162 15s-49 26.333 -49 49c0 16.667 15.333 29.667 46 39s50.334 20.333 59.001 33c6.66699 10 11.334 41.333 14.001 94s4 152.334 4 299.001v301c0 197.333 -2.5 321.5 -7.5 372.5
s-13.833 81.5 -26.5 91.5c-4.66699 3.33301 -23.667 7.33301 -57 12s-50 18.667 -50 42s28.167 48 84.5 74s109.833 39 160.5 39c19.333 0 32.833 -5.33301 40.5 -16s11.5 -30 11.5 -58v-49zM325.997 646.998l-0.000976562 -325.001c0 -46 2 -77.833 6 -95.5
s10.667 -32.5 20 -44.5c26.667 -34 64.5 -61.833 113.5 -83.5s98.5 -32.5 148.5 -32.5c102.667 0 182.334 35.167 239.001 105.5s85 169.5 85 297.5c0 138 -30.833 247.667 -92.5 329s-144.167 122 -247.5 122c-86.667 0 -153.667 -23.667 -201 -71
s-71 -114.666 -71 -201.999z" />
    <glyph glyph-name="q" unicode="q" horiz-adv-x="1180" 
d="M838 47c-45.333 -24.667 -91.332 -43.167 -137.999 -55.5s-94.334 -18.5 -143.001 -18.5c-140.667 0 -256.667 50 -348 150s-137 227.667 -137 383s46.833 283.5 140.5 384.5s211.167 151.5 352.5 151.5c54 0 106.833 -6.16699 158.5 -18.5
s106.834 -31.833 165.501 -58.5c27.333 29.333 52.333 51 75 65s44 21 64 21c8.66699 0 17.167 -2 25.5 -6s16.166 -9.66699 23.499 -17c-26 -21.333 -44 -64.833 -54 -130.5s-15 -205.167 -15 -418.5v-55c0 -285.333 1.16699 -466.666 3.5 -543.999s6.5 -125.333 12.5 -144
c5.33301 -18 24.833 -32 58.5 -42s50.5 -23.333 50.5 -40c0 -22.667 -16.167 -39 -48.5 -49s-85.833 -15 -160.5 -15c-75.333 0 -129.333 5 -162 15s-49 26.333 -49 49c0 18 18 30.667 54 38s59 18.666 69 33.999c6 10.667 10.5 40 13.5 88s4.5 123 4.5 225zM852.001 672
c0 89.333 -23.3301 158.333 -69.9971 207s-112.667 73 -198 73c-100.667 0 -182.834 -40.667 -246.501 -122s-95.5 -187.333 -95.5 -318c0 -128.667 31.5 -234.5 94.5 -317.5s142.5 -124.5 238.5 -124.5c47.333 0 89.666 7.66699 126.999 23s71.666 39 102.999 71
c16.667 16.667 28.667 35 36 55s11 50 11 90v29v334z" />
    <glyph glyph-name="r" unicode="r" horiz-adv-x="770" 
d="M362 852c42.667 65.333 87.835 115.496 135.502 150.496s94.167 52.5 139.5 52.5c37.333 0 67.5 -11.667 90.5 -35s34.5 -54 34.5 -92c0 -33.333 -10.5 -60.833 -31.5 -82.5s-47.5 -32.5 -79.5 -32.5c-28.667 0 -52.334 9 -71.001 27s-30.334 43 -35.001 75
c-70.667 -22.667 -119.834 -58.5 -147.501 -107.5s-41.5 -155.167 -41.5 -318.5c0 -122.667 1.66699 -211.167 5 -265.5s8.66602 -86.5 15.999 -96.5c10 -15.333 33.333 -25.666 70 -30.999c12 -1.33301 21.667 -2.66602 29 -3.99902
c14.667 -2.66699 26.334 -7.33398 35.001 -14.001s13 -15 13 -25c0 -21.333 -19 -36.833 -57 -46.5s-97.333 -14.5 -178 -14.5c-72 0 -123.833 4.83301 -155.5 14.5s-47.5 25.167 -47.5 46.5c0 17.333 14 30.333 42 39s45.333 16.334 52 23.001
c10.667 9.33301 18.167 31 22.5 65s6.5 93.333 6.5 178c0 114.667 -1.5 209.834 -4.5 285.501s-7.83301 131.834 -14.5 168.501c-4 28 -10.667 47.167 -20 57.5s-29.666 15.5 -60.999 15.5h-19c-10.667 0 -20.167 4 -28.5 12s-12.5 17.667 -12.5 29
c0 12.667 5 24.167 15 34.5s28.333 21.833 55 34.5c34 18 66.667 32.5 98 43.5s53.333 16.5 66 16.5c18 0 32 -14.5 42 -43.5s18.333 -80.167 25 -153.5z" />
    <glyph glyph-name="s" unicode="s" horiz-adv-x="772" 
d="M537 1030c13.333 8 24.5 13.833 33.5 17.5s16.833 5.5 23.5 5.5c24.667 0 49.334 -22.833 74.001 -68.5s37 -95.167 37 -148.5c0 -22.667 -4.66699 -40.334 -14 -53.001s-22 -19 -38 -19c-23.333 0 -44 20 -62 60c-4 8.66699 -7 15 -9 19
c-23.333 49.333 -48.333 82.666 -75 99.999s-62.667 26 -108 26c-47.333 0 -87.5 -14.833 -120.5 -44.5s-49.5 -66.167 -49.5 -109.5c0 -77.333 84.333 -152 253 -224l77 -34c58 -26 103.167 -63.167 135.5 -111.5s48.5 -102.5 48.5 -162.5c0 -92 -33 -167 -99 -225
s-151.667 -87 -257 -87c-33.333 0 -71.166 5.5 -113.499 16.5s-67.833 16.5 -76.5 16.5c-9.33301 0 -21.833 -3.66699 -37.5 -11s-26.5 -11 -32.5 -11c-18.667 0 -38.334 24.333 -59.001 73s-31 99.334 -31 152.001c0 20 5.5 36.167 16.5 48.5s25.167 18.5 42.5 18.5
c19.333 0 40.666 -20.667 63.999 -62l20 -36c21.333 -36.667 49.833 -65 85.5 -85s75.5 -30 119.5 -30c60.667 0 110 16.333 148 49s57 74.667 57 126c0 40.667 -11 75.167 -33 103.5s-58 54.5 -108 78.5c-18 8.66699 -46.333 20.334 -85 35.001
c-102 40 -175.667 81.667 -221 125c-26 24.667 -45.833 53 -59.5 85s-20.5 66.333 -20.5 103c0 83.333 31 152 93 206s141 81 237 81c20 0 42 -2 66 -6s50 -9.66699 78 -17z" />
    <glyph glyph-name="t" unicode="t" horiz-adv-x="612" 
d="M166 901l-86.001 -0.000976562c-10 0 -17.667 1.83301 -23 5.5s-8 8.83398 -8 15.501v28c0 20 25 57.667 75 113c14.667 15.333 25.667 27.333 33 36l32 36c50 57.333 84 86 102 86c10.667 0 18.834 -2.66699 24.501 -8s8.5 -13 8.5 -23v-182h206
c13.333 0 22.833 -3.16699 28.5 -9.5s8.5 -16.833 8.5 -31.5v-27c0 -13.333 -3 -23.166 -9 -29.499s-15.333 -9.5 -28 -9.5h-184c-6.66699 0 -12 -2.83301 -16 -8.5s-6 -13.834 -6 -24.501v-555c0 -84 8.16699 -140.833 24.5 -170.5s44.833 -44.5 85.5 -44.5
c19.333 0 42 5.5 68 16.5s42.333 16.5 49 16.5c10.667 0 19.167 -3 25.5 -9s9.5 -14 9.5 -24c0 -29.333 -22.333 -57.833 -67 -85.5s-94.667 -41.5 -150 -41.5c-72.667 0 -124.667 22.333 -156 67s-47 120 -47 226v637z" />
    <glyph glyph-name="u" unicode="u" horiz-adv-x="1184" 
d="M856 47l-0.00292969 86.001c0 11.333 -1 19 -3 23s-5 6 -9 6c-9.33301 0 -23 -12.333 -41 -37c-14.667 -20.667 -27 -36.334 -37 -47.001c-31.333 -35.333 -67.833 -61.666 -109.5 -78.999s-89.167 -26 -142.5 -26c-124 0 -214.667 39 -272 117s-86 201.667 -86 371v172
c0 97.333 -2.33301 162 -7 194s-12.667 52 -24 60c-4 2.66699 -22.667 6.16699 -56 10.5s-50.333 18.5 -51 42.5c0 12.667 6.16699 24.334 18.5 35.001s31.5 21.667 57.5 33c34.667 13.333 69.334 24.166 104.001 32.499s59.334 12.5 74.001 12.5
c20.667 0 34.834 -5.16699 42.501 -15.5s11.5 -29.833 11.5 -58.5c0 -34.667 -2.5 -93.667 -7.5 -177s-7.5 -149.333 -7.5 -198v-57c0 -96.667 2.16699 -167 6.5 -211s11.833 -80.333 22.5 -109c14.667 -40.667 40.167 -72.667 76.5 -96s79.166 -35 128.499 -35
c50 0 98 12.167 144 36.5s86 58.833 120 103.5c16.667 21.333 28.334 47 35.001 77s10 77.333 10 142v118v60c0 96.667 -2.33301 161 -7 193s-12.667 52.333 -24 61c-4 2.66699 -22.333 6.33398 -55 11.001s-49 18.667 -49 42c0 12.667 5.83301 24.5 17.5 35.5
s30.5 21.833 56.5 32.5c34 13.333 68.667 24.166 104 32.499s60.666 12.5 75.999 12.5c19.333 0 32.666 -5 39.999 -15s11 -29.667 11 -59c0 -42.667 -2.33301 -108.334 -7 -197.001s-7 -156 -7 -202c0 -150 1.83301 -255.833 5.5 -317.5s9.83398 -99.167 18.501 -112.5
c6 -9.33301 27 -16.5 63 -21.5s54 -19.167 54 -42.5s-28.167 -48 -84.5 -74s-110.166 -39 -161.499 -39c-18 0 -30.667 5.16699 -38 15.5s-11 29.833 -11 58.5z" />
    <glyph glyph-name="v" unicode="v" horiz-adv-x="1067" 
d="M557 195l11.999 0.00292969c81.333 156.667 147.5 299.167 198.5 427.5s76.5 212.166 76.5 251.499c0 12 -2.83301 21.5 -8.5 28.5s-19.5 14.833 -41.5 23.5l-15 6c-36 14 -54 29 -54 45c0 20.667 14.333 35.334 43 44.001s76.334 13 143.001 13
c67.333 0 115.333 -4.33301 144 -13s43 -23.334 43 -44.001c0 -14.667 -14.667 -27 -44 -37c-14 -4.66699 -24.667 -8.66699 -32 -12c-19.333 -8.66699 -35 -20.5 -47 -35.5s-25 -41.5 -39 -79.5l-12 -30c-207.333 -540 -335.666 -810 -384.999 -810
c-30 0 -66.167 41.333 -108.5 124s-127.166 294.667 -254.499 636l-15 41c-28 78 -49.333 123.667 -64 137c-6.66699 6 -23.5 13.667 -50.5 23s-40.5 22.333 -40.5 39c0 21.333 15.667 36.833 47 46.5s82.666 14.5 153.999 14.5c76.667 0 131 -4.66699 163 -14
s48 -25 48 -47c0 -18 -19 -32.667 -57 -44c-8 -2.66699 -13.333 -4.33398 -16 -5.00098c-12.667 -4.66699 -22.834 -12.334 -30.501 -23.001s-11.5 -23 -11.5 -37c0 -31.333 23.5 -109.833 70.5 -235.5s108.167 -270.167 183.5 -433.5z" />
    <glyph glyph-name="w" unicode="w" horiz-adv-x="1597" 
d="M1126 195l13.001 0.000976562c81.333 156.667 147.333 299.167 198 427.5s76 212.166 76 251.499c0 12 -2.83301 21.5 -8.5 28.5s-19.5 14.833 -41.5 23.5c-2.66699 1.33301 -7.33398 3.33301 -14.001 6c-36.667 14 -55 29 -55 45c0 20.667 14.167 35.334 42.5 44.001
s75.833 13 142.5 13c67.333 0 115.5 -4.5 144.5 -13.5s43.5 -23.5 43.5 -43.5c0 -14.667 -14.667 -27 -44 -37c-13.333 -4.66699 -24 -8.66699 -32 -12c-19.333 -8.66699 -35 -20.5 -47 -35.5s-25 -41.5 -39 -79.5l-11 -30c-208 -540 -336.667 -810 -386 -810
c-42 0 -116.667 132.667 -224 398l-71 174l-73 -177c-108 -263.333 -181.333 -395 -220 -395c-51.333 0 -167 239.667 -347 719l-15 41l-19 50c-26.667 71.333 -47.667 114 -63 128c-6 6 -22.167 13.667 -48.5 23s-39.5 22.333 -39.5 39c0 21.333 15.667 36.833 47 46.5
s82.333 14.5 153 14.5c76 0 129.833 -4.66699 161.5 -14s47.5 -25 47.5 -47c0 -18 -18.667 -32.667 -56 -44c-7.33301 -2 -13 -3.66699 -17 -5c-12.667 -4.66699 -22.334 -12.334 -29.001 -23.001s-10 -23.667 -10 -39c0 -28.667 23.833 -106.667 71.5 -234
s108.5 -271.666 182.5 -432.999h12c22.667 33.333 51.167 89.166 85.5 167.499s76.833 184.166 127.5 317.499c-22 65.333 -40 115.5 -54 150.5s-25.333 57.833 -34 68.5c-10.667 13.333 -30.167 24.833 -58.5 34.5s-42.5 22.834 -42.5 39.501
c0 21.333 15.833 36.833 47.5 46.5s82.834 14.5 153.501 14.5c76 0 129.833 -4.66699 161.5 -14s47.5 -25 47.5 -47c0 -18 -19 -32.667 -57 -44l-17 -5c-12 -4.66699 -21.5 -12.334 -28.5 -23.001s-10.5 -23.667 -10.5 -39c0 -29.333 23.833 -107.666 71.5 -234.999
s108.5 -271.333 182.5 -432z" />
    <glyph glyph-name="x" unicode="x" horiz-adv-x="915" 
d="M498 612c62.667 99.333 105.997 170.331 129.997 212.998s36 69.334 36 80.001c0 14 -12.667 26.333 -38 37s-38 23 -38 37c0 19.333 12 33 36 41s65.333 12 124 12c58 0 98.667 -4 122 -12s35 -21.667 35 -41c0 -14.667 -13 -27 -39 -37s-44.333 -19 -55 -27
c-19.333 -14 -46.166 -46 -80.499 -96s-94.166 -146.333 -179.499 -289c59.333 -98 112.5 -182 159.5 -252s81.833 -117.667 104.5 -143c15.333 -16.667 37.333 -30.834 66 -42.501s43 -24.834 43 -39.501c0 -21.333 -15.833 -36.833 -47.5 -46.5
s-82.834 -14.5 -153.501 -14.5c-76.667 0 -131 4.66699 -163 14s-48 25 -48 47c0 8.66699 2.33301 15.667 7 21s16 11.333 34 18c2.66699 1.33301 6 2.66602 10 3.99902c27.333 10.667 41 25.667 41 45c0 14.667 -10 39.5 -30 74.5s-67.333 107.833 -142 218.5
c-65.333 -104 -111.333 -180.5 -138 -229.5s-40 -80.167 -40 -93.5c0 -11.333 11.667 -21.666 35 -30.999s35 -21 35 -35c0 -19.333 -12.167 -33 -36.5 -41s-65.5 -12 -123.5 -12s-98.833 4 -122.5 12s-35.5 21.667 -35.5 41c0 16 13.833 29 41.5 39s46.5 19 56.5 27
c22 12.667 51.667 45.834 89 99.501s100 154.834 188 303.501l-156 253.5c-45.333 70.333 -74.666 112.833 -87.999 127.5c-12.667 14.667 -32.5 27.667 -59.5 39s-40.5 24.333 -40.5 39c0 20.667 15.333 35.667 46 45s82.334 14 155.001 14c78 0 132.667 -4.5 164 -13.5
s47 -24.167 47 -45.5c0 -15.333 -16.5 -29.666 -49.5 -42.999s-49.5 -29 -49.5 -47c0 -16 11.167 -44.5 33.5 -85.5s60.5 -102.833 114.5 -185.5z" />
    <glyph glyph-name="y" unicode="y" horiz-adv-x="977" 
d="M551 205c9.33301 0 34.3379 55.9951 75.0049 167.995l7 18l32 88c84 224 126 357.333 126 400c0 18.667 -20.167 35.667 -60.5 51s-60.5 31 -60.5 47c0 20.667 14.167 35.334 42.5 44.001s76.166 13 143.499 13s115.166 -4.33301 143.499 -13s42.5 -23.334 42.5 -44.001
c0 -14.667 -14.333 -27 -43 -37c-14 -4.66699 -24.667 -8.66699 -32 -12c-31.333 -13.333 -60.333 -54.666 -87 -123.999l-18 -47c-56 -140.667 -118.833 -310.167 -188.5 -508.5s-115.834 -323.5 -138.501 -375.5c-47.333 -107.333 -96.5 -183.666 -147.5 -228.999
s-111.833 -68 -182.5 -68c-46 0 -83.167 11.333 -111.5 34s-42.5 52.334 -42.5 89.001c0 26.667 8.16699 48.667 24.5 66s36.833 26 61.5 26c18.667 0 34.167 -4.16699 46.5 -12.5s24.166 -23.166 35.499 -44.499c0.666992 -1.33301 2 -3.66602 4 -6.99902
c16 -28 36 -42 60 -42c38 0 74 25.833 108 77.5s51 110.5 51 176.5c0 74.667 -90 329.334 -270 764.001l-49 118c-11.333 28.667 -21.833 51 -31.5 67s-19.167 27.333 -28.5 34c-2.66699 2 -15.834 6.66699 -39.501 14s-35.5 19.666 -35.5 36.999
c0 21.333 15.667 36.833 47 46.5s82.333 14.5 153 14.5c76 0 129.833 -4.66699 161.5 -14s47.5 -25 47.5 -47c0 -10 -2.83301 -18 -8.5 -24s-15.5 -11 -29.5 -15l-15 -5c-34 -11.333 -51 -26.666 -51 -45.999c0 -18.667 9.66699 -59.334 29 -122.001s45 -134.667 77 -216
c60 -150.667 98.667 -245 116 -283s29.333 -57 36 -57z" />
    <glyph glyph-name="z" unicode="z" horiz-adv-x="858" 
d="M565 844c13.333 18.667 22.168 32.165 26.501 40.498s6.5 15.166 6.5 20.499c0 10 -7.83301 17 -23.5 21s-42.5 6 -80.5 6h-129c-66 0 -111 -5.83301 -135 -17.5s-48 -38.5 -72 -80.5c-2 -3.33301 -5 -8.66602 -9 -15.999c-24.667 -44 -47.667 -66 -69 -66
c-10 0 -19 4.16699 -27 12.5s-12 17.833 -12 28.5c0 61.333 12 117.833 36 169.5s49.667 77.5 77 77.5c0.666992 0 3 -0.333008 7 -1c36 -10 77.333 -15 124 -15h393c52.667 0 88.667 -4 108 -12s29 -21.667 29 -41c0 -23.333 -26.667 -72.666 -80 -147.999l-18 -26
l-438 -617c-12 -16.667 -20.833 -30.334 -26.5 -41.001s-8.5 -18.667 -8.5 -24c0 -8.66699 9.16699 -15 27.5 -19s45.833 -6 82.5 -6h199c47.333 0 83.5 6.16699 108.5 18.5s48.167 36.166 69.5 71.499c7.33301 12 15.666 29.333 24.999 52c14.667 35.333 31 53 49 53
c13.333 0 23.5 -4.5 30.5 -13.5s10.5 -22.5 10.5 -40.5c0 -61.333 -11.167 -117.166 -33.5 -167.499s-46.833 -75.5 -73.5 -75.5c-1.33301 0 -6.33301 0.666992 -15 2c-38 6.66699 -76 10 -114 10h-483c-30.667 0 -54 5 -70 15s-24 24.667 -24 44
c0 10.667 3.5 22.834 10.5 36.501s22.5 37.834 46.5 72.501z" />
    <glyph glyph-name="braceleft" unicode="{" 
d="M846 1516l0.00195312 -51c-94.667 -1.33301 -159.334 -19.833 -194.001 -55.5s-52 -105.5 -52 -209.5v-143c0 -150.667 -20.333 -253.5 -61 -308.5s-116 -92.833 -226 -113.5c110 -20.667 185.333 -58.5 226 -113.5s61 -157.833 61 -308.5v-143
c0 -104 17.167 -173.5 51.5 -208.5s99.166 -53.167 194.499 -54.5v-51h-10c-144.667 0 -244 24.5 -298 73.5s-81 139.833 -81 272.5v213c0 105.333 -19.667 178 -59 218s-113.333 64.333 -222 73v60c110 10 184.333 34.667 223 74s58 111.333 58 216v213
c0 133.333 27 224.5 81 273.5s153.333 73.5 298 73.5h10z" />
    <glyph glyph-name="bar" unicode="|" 
d="M449 1565h126v-2048h-126v2048z" />
    <glyph glyph-name="braceright" unicode="}" 
d="M178 1516h10.002c144 0 243.167 -24.667 297.5 -74s81.5 -140.333 81.5 -273v-213c0 -104.667 19.333 -176.667 58 -216s113 -64 223 -74v-60c-108.667 -8.66699 -182.667 -33 -222 -73s-59 -112.667 -59 -218v-213c0 -132 -27.167 -222.667 -81.5 -272
s-153.5 -74 -297.5 -74h-10v51c95.333 1.33301 160.166 19.5 194.499 54.5s51.5 104.5 51.5 208.5v143c0 150.667 20.333 253.5 61 308.5s116 92.833 226 113.5c-110 20.667 -185.333 58.5 -226 113.5s-61 157.833 -61 308.5v143c0 104 -17.333 173.833 -52 209.5
s-99.334 54.167 -194.001 55.5v51z" />
    <glyph glyph-name="asciitilde" unicode="~" horiz-adv-x="1706" 
d="M1530 758l-0.00195312 -130.999c-67.333 -48 -133.166 -84 -197.499 -108s-127.5 -36 -189.5 -36c-28.667 0 -58.834 3 -90.501 9s-65.167 14.667 -100.5 26c-20 6.66699 -49 17 -87 31c-134.667 48 -235.334 72 -302.001 72c-55.333 0 -113.166 -12.5 -173.499 -37.5
s-130.833 -65.833 -211.5 -122.5v133c70 48.667 137.333 85 202 109s126.334 36 185.001 36c37.333 0 76.166 -4.16699 116.499 -12.5s98.5 -25.833 174.5 -52.5c8 -2.66699 19.667 -7 35 -13c109.333 -39.333 194 -59 254 -59c56.667 0 115.334 12.167 176.001 36.5
s130.334 64.166 209.001 119.499z" />
    <glyph glyph-name="nonbreakingspace" unicode="&#xa0;" horiz-adv-x="1100" 
 />
    <glyph glyph-name="exclamdown" unicode="&#xa1;" horiz-adv-x="664" 
d="M332 1049c12.667 0 22.833 -10.1641 30.5 -30.4971s15.167 -57.5 22.5 -111.5c15.333 -112.667 27 -231 35 -355s12 -249.333 12 -376c0 -76.667 -7.66699 -131.334 -23 -164.001s-41 -49 -77 -49c-36.667 0 -63 16.5 -79 49.5s-24 87.5 -24 163.5
c0 121.333 4.33301 244.166 13 368.499s21 245.166 37 362.499c6.66699 54 14 91.167 22 111.5s18.333 30.5 31 30.5zM441.999 1401c0 -31.333 -10.668 -58 -32.001 -80s-47.333 -33 -78 -33c-31.333 0 -58 11.167 -80 33.5s-33 49.5 -33 81.5c0 30 11.333 55.833 34 77.5
s49.667 32.5 81 32.5c30.667 0 56.334 -10.667 77.001 -32s31 -48 31 -80z" />
    <glyph glyph-name="cent" unicode="&#xa2;" horiz-adv-x="1100" 
d="M563 223v846.001c-82.667 -20.667 -145.334 -65.334 -188.001 -134.001s-64 -159.667 -64 -273c0 -119.333 21.833 -216.833 65.5 -292.5s105.834 -124.5 186.501 -146.5zM563 98.001c-125.333 15.333 -225.501 70.665 -300.501 165.998s-112.5 215 -112.5 359
c0 142.667 37.333 263.334 112 362.001s175 159.334 301 182.001v127c0 12.667 3.33301 22 10 28s17 9 31 9h17c12.667 0 22.167 -2.83301 28.5 -8.5s9.5 -14.5 9.5 -26.5v-125c96 -9.33301 176.333 -39 241 -89s97 -104 97 -162c0 -27.333 -7.16699 -49.666 -21.5 -66.999
s-32.833 -26 -55.5 -26c-40 0 -75 35 -105 105l-14 32c-14.667 31.333 -33.667 56.166 -57 74.499s-51.333 30.5 -84 36.5v-858c28.667 1.33301 57.834 7.83301 87.501 19.5s59.834 29.167 90.501 52.5c14.667 11.333 35.5 31.5 62.5 60.5s49.167 43.5 66.5 43.5
c10 0 18.167 -3.66699 24.5 -11s9.5 -17.333 9.5 -30c0 -49.333 -34 -101 -102 -155s-148 -87 -240 -99v-141c0 -12.667 -3 -22 -9 -28s-15.667 -9 -29 -9h-19c-12.667 0 -22.334 2.83301 -29.001 8.5s-10 14.5 -10 26.5v143z" />
    <glyph glyph-name="sterling" unicode="&#xa3;" horiz-adv-x="1100" 
d="M354 180c-29.333 26 -57 45.168 -83 57.501s-50.667 18.5 -74 18.5c-30 0 -54.333 -9 -73 -27s-28 -41.667 -28 -71c0 -24.667 9.66699 -45.834 29 -63.501s42 -26.5 68 -26.5c32 0 62.167 9.66699 90.5 29s51.833 47 70.5 83zM403 291.001
c8 21.333 13.832 43.335 17.499 66.002s5.5 47.667 5.5 75c0 31.333 -3.66699 63.166 -11 95.499s-18 65.5 -32 99.5h-195c-12.667 0 -21.834 2.66699 -27.501 8s-8.5 14.333 -8.5 27v14c0 12 2.83301 20.833 8.5 26.5s14.834 8.5 27.501 8.5h166
c-26 68.667 -44.333 125.167 -55 169.5s-16 84.5 -16 120.5c0 93.333 33.833 170.333 101.5 231s153.834 91 258.501 91c91.333 0 167.166 -25 227.499 -75s90.5 -111.667 90.5 -185c0 -23.333 -4 -41.166 -12 -53.499s-19.333 -18.5 -34 -18.5
c-22.667 0 -38.667 19.333 -48 58c-4.66699 19.333 -9 34.333 -13 45c-12.667 32.667 -34.667 58.5 -66 77.5s-68 28.5 -110 28.5c-64 0 -115.833 -19 -155.5 -57s-59.5 -88 -59.5 -150c0 -30 4 -66 12 -108s22.333 -100 43 -174h230c12.667 0 21.834 -2.66699 27.501 -8
s8.5 -14.333 8.5 -27v-17c0 -11.333 -2.83301 -19.5 -8.5 -24.5s-14.834 -7.5 -27.501 -7.5h-207c4 -22 7 -43.167 9 -63.5s3 -40.166 3 -59.499c0 -46 -4.83301 -90.333 -14.5 -133s-24.5 -84.334 -44.5 -125.001c90 -53.333 160 -90.333 210 -111s92.333 -31 127 -31
c33.333 0 62.333 7 87 21s45 34.333 61 61c7.33301 13.333 14.5 37.5 21.5 72.5s20.833 52.5 41.5 52.5c13.333 0 23.5 -5.5 30.5 -16.5s10.5 -26.5 10.5 -46.5c0 -70.667 -29 -134.5 -87 -191.5s-124.333 -85.5 -199 -85.5c-52.667 0 -108.167 11.667 -166.5 35
s-125.166 61 -200.499 113c-31.333 -44 -66.666 -77.167 -105.999 -99.5s-81 -33.5 -125 -33.5c-56.667 0 -102.667 16.167 -138 48.5s-53 74.166 -53 125.499c0 53.333 19.833 97.666 59.5 132.999s89.5 53 149.5 53c28 0 57.667 -4.66699 89 -14s63.666 -23 96.999 -41z
" />
    <glyph glyph-name="currency" unicode="&#xa4;" horiz-adv-x="1241" 
d="M623 1200c-86.667 0 -160.667 -30.667 -222 -92s-92 -135 -92 -221c0 -87.333 30.5 -161.833 91.5 -223.5s135.167 -92.5 222.5 -92.5c86 0 159.667 31 221 93s92 136.333 92 223c0 86 -30.5 159.667 -91.5 221s-134.833 92 -221.5 92zM158 1419l207 -207.002
c40 30.667 80.833 53.5 122.5 68.5s86.167 22.5 133.5 22.5s92.5 -7.5 135.5 -22.5s84.5 -37.833 124.5 -68.5l204 207l72 -73l-205 -205c28.667 -38 50.167 -78.333 64.5 -121s21.5 -87.667 21.5 -135s-7.16699 -92.5 -21.5 -135.5s-35.833 -83.167 -64.5 -120.5l205 -205
l-72 -74l-204 207c-38 -29.333 -78.5 -51.333 -121.5 -66s-89.167 -22 -138.5 -22s-94.833 7.16699 -136.5 21.5s-81.5 36.5 -119.5 66.5l-207 -207l-72 74l207 205c-29.333 38.667 -51.333 79.334 -66 122.001s-22 87.334 -22 134.001c0 46 7.33301 90.5 22 133.5
s36.667 83.833 66 122.5l-207 205z" />
    <glyph glyph-name="yen" unicode="&#xa5;" horiz-adv-x="1100" 
d="M653 498c0 -100.667 2.16699 -182.671 6.5 -246.004s9.83301 -100.333 16.5 -111c7.33301 -10 30 -20.667 68 -32s57 -29.333 57 -54c0 -22 -17.5 -38 -52.5 -48s-90.5 -15 -166.5 -15c-82 0 -140.833 5 -176.5 15s-53.5 26 -53.5 48c0 24.667 19 42.667 57 54
s60.667 22 68 32c6.66699 9.33301 11.834 44.666 15.501 105.999s5.5 144.333 5.5 249v63h-369c-18.667 0 -32.834 3.16699 -42.501 9.5s-14.5 15.5 -14.5 27.5s5.16699 21.5 15.5 28.5s24.166 10.5 41.499 10.5h365c-17.333 30 -42.333 70.333 -75 121
c-8.66699 14 -15.334 24 -20.001 30h-270c-18.667 0 -32.834 3.16699 -42.501 9.5s-14.5 15.5 -14.5 27.5s5.16699 21.5 15.5 28.5s24.166 10.5 41.499 10.5h223c-49.333 80.667 -91 145.5 -125 194.5s-59.667 81.167 -77 96.5c-14 12.667 -38.333 24.667 -73 36
s-52 28 -52 50s18 38.167 54 48.5s95 15.5 177 15.5c71.333 0 125.333 -5.5 162 -16.5s55 -26.833 55 -47.5c0 -23.333 -17 -40.666 -51 -51.999c-6.66699 -2 -12 -3.66699 -16 -5c-16 -6 -26.833 -12.167 -32.5 -18.5s-8.5 -15.166 -8.5 -26.499
c0 -15.333 20 -58.5 60 -129.5s98.333 -166.5 175 -286.5l104 176c96 160.667 144 248.667 144 264c0 8 -15 18.333 -45 31s-45 29.667 -45 51c0 20 15 35 45 45s75.667 15 137 15c58.667 0 103.334 -5.5 134.001 -16.5s46 -26.833 46 -47.5
c0 -21.333 -17.333 -37.666 -52 -48.999s-58.334 -21.666 -71.001 -30.999c-20.667 -15.333 -46.5 -44.666 -77.5 -87.999s-75.5 -113 -133.5 -209h230c18.667 0 32.834 -3.16699 42.501 -9.5s14.5 -15.5 14.5 -27.5c0 -11.333 -5.16699 -20.666 -15.5 -27.999
s-24.166 -11 -41.499 -11h-273c-18 -26.667 -34.167 -52.334 -48.5 -77.001l-41.5 -74h363c18.667 0 32.834 -3.16699 42.501 -9.5s14.5 -15.5 14.5 -27.5s-5.16699 -21.5 -15.5 -28.5s-24.166 -10.5 -41.499 -10.5h-363v-61z" />
    <glyph glyph-name="brokenbar" unicode="&#xa6;" 
d="M449 408h126v-758h-126v758zM449 1432h126v-758h-126v758z" />
    <glyph glyph-name="section" unicode="&#xa7;" 
d="M371 915c-41.333 0 -78.332 -18.834 -110.999 -56.501s-49 -80.834 -49 -129.501c0 -31.333 7 -58 21 -80s41 -46.667 81 -74c63.333 -40.667 123.5 -72.667 180.5 -96s102.833 -35 137.5 -35c45.333 0 84 17.833 116 53.5s48 78.834 48 129.501
c0 39.333 -11.833 73.333 -35.5 102s-65.834 59.334 -126.501 92.001c-56 30.667 -106.5 54 -151.5 70s-81.833 24 -110.5 24zM737.001 394.999c56 -34 97.6641 -74.002 124.997 -120.002s41 -98.667 41 -158c0 -98 -34.333 -177.5 -103 -238.5s-158.667 -91.5 -270 -91.5
c-115.333 0 -209 20.833 -281 62.5s-108 93.834 -108 156.501c0 28.667 9 51.834 27 69.501s41.333 26.5 70 26.5c26.667 0 49.334 -6.5 68.001 -19.5s32.667 -31.5 42 -55.5c2.66699 -7.33301 5.66699 -17.666 9 -30.999c11.333 -42.667 28.333 -70.667 51 -84
c17.333 -10.667 35.833 -18.5 55.5 -23.5s40.5 -7.5 62.5 -7.5c67.333 0 121.5 18.5 162.5 55.5s61.5 85.5 61.5 145.5c0 78.667 -90.333 156.667 -271 234l-33 14c-144.667 63.333 -242.167 121 -292.5 173s-75.5 114.333 -75.5 187c0 66.667 18.667 125 56 175
s88.333 84.667 153 104c-46 32.667 -81.167 69.834 -105.5 111.501s-36.5 85.5 -36.5 131.5c0 86.667 35 158.5 105 215.5s159.333 85.5 268 85.5c101.333 0 187.5 -22.333 258.5 -67s106.5 -97.334 106.5 -158.001c0 -26.667 -8.83301 -48.667 -26.5 -66
s-39.5 -26 -65.5 -26c-26.667 0 -48.834 5.5 -66.501 16.5s-30.5 27.5 -38.5 49.5c-1.33301 3.33301 -5 16.166 -11 38.499s-14.667 40.833 -26 55.5c-15.333 20.667 -35.666 36.334 -60.999 47.001s-54.666 16 -87.999 16c-59.333 0 -107.666 -15.5 -144.999 -46.5
s-56 -70.833 -56 -119.5c0 -76 82 -148.667 246 -218l69 -29c118.667 -52 204 -104.833 256 -158.5s78 -114.834 78 -183.501c0 -68 -19.167 -126.5 -57.5 -175.5s-89.5 -80.167 -153.5 -93.5z" />
    <glyph glyph-name="dieresis" unicode="&#xa8;" 
d="M248 1311c0 30 10 55.167 30 75.5s44.667 30.5 74 30.5s53.833 -9.16699 73.5 -27.5s29.5 -41.166 29.5 -68.499c0 -26.667 -10.667 -50.334 -32 -71.001s-46.333 -31 -75 -31c-27.333 0 -50.833 8.83301 -70.5 26.5s-29.5 39.5 -29.5 65.5zM569 1311
c0 30 10.168 55.165 30.501 75.498s45.166 30.5 74.499 30.5c28.667 0 52.5 -9.16699 71.5 -27.5s28.5 -41.166 28.5 -68.499s-10.333 -51.166 -31 -71.499s-45 -30.5 -73 -30.5s-51.833 8.83301 -71.5 26.5s-29.5 39.5 -29.5 65.5z" />
    <glyph glyph-name="copyright" unicode="&#xa9;" horiz-adv-x="1683" 
d="M1120 1096l35.0049 -0.000976562l2 -314h-41c-22.667 91.333 -57.334 160 -104.001 206s-105.334 69 -176.001 69c-82 0 -143.833 -31.5 -185.5 -94.5s-62.5 -155.833 -62.5 -278.5c0 -126 22.333 -221 67 -285s111 -96 199 -96c57.333 0 109.333 14.333 156 43
s89 72.334 127 131.001l34 -24c-38.667 -70 -86.334 -122.333 -143.001 -157s-123 -52 -199 -52c-111.333 0 -206.333 41 -285 123s-118 181 -118 297c0 124 38.667 228 116 312s172.333 126 285 126c49.333 0 98.666 -11.333 147.999 -34s76.666 -34 81.999 -34
c18 0 32 4.83301 42 14.5s17 25.5 21 47.5zM844.005 1303c-82 0 -161.169 -16.167 -237.502 -48.5s-143.166 -77.833 -200.499 -136.5c-58.667 -59.333 -103.5 -126.833 -134.5 -202.5s-46.5 -154.834 -46.5 -237.501c0 -83.333 15.667 -162.833 47 -238.5
s76.666 -142.834 135.999 -201.501c58.667 -59.333 124.834 -104.333 198.501 -135s152.167 -46 235.5 -46c84 0 162.833 15.333 236.5 46s139.5 75.667 197.5 135c58.667 60 103.667 127.667 135 203s47 154.333 47 237s-15.833 162.834 -47.5 240.501
s-75.834 144.834 -132.501 201.501c-57.333 58 -124.166 103 -200.499 135s-154.166 48 -233.499 48zM844.003 1382c91.333 0 180.165 -17.833 266.498 -53.5s161.833 -85.834 226.5 -150.501c65.333 -64.667 116.166 -140.834 152.499 -228.501s54.5 -178.167 54.5 -271.5
s-17.667 -182.666 -53 -267.999s-86.666 -162 -153.999 -230c-65.333 -66.667 -140.333 -117.5 -225 -152.5s-174.667 -52.5 -270 -52.5s-185 17.5 -269 52.5s-159.667 85.833 -227 152.5s-118.666 142.334 -153.999 227.001s-53 175 -53 271
c0 93.333 17.667 182.833 53 268.5s86 162.167 152 229.5c65.333 66 141.333 116.833 228 152.5s177.334 53.5 272.001 53.5z" />
    <glyph glyph-name="ordfeminine" unicode="&#xaa;" horiz-adv-x="805" 
d="M555 1205c0.666992 5.33301 1.16992 11.167 1.50293 17.5s0.5 15.166 0.5 26.499c0 70.667 -12.167 121.834 -36.5 153.501s-63.5 47.5 -117.5 47.5c-26.667 0 -51.167 -5 -73.5 -15s-42.833 -25.333 -61.5 -46c-4.66699 -5.33301 -11.334 -13.666 -20.001 -24.999
c-25.333 -31.333 -50 -47 -74 -47c-16 0 -28.833 4.5 -38.5 13.5s-14.5 20.833 -14.5 35.5c0 34 28.667 66.333 86 97s122.666 46 195.999 46c93.333 0 162.166 -21.333 206.499 -64s66.5 -109.334 66.5 -200.001c0 -26 -0.333008 -60.833 -1 -104.5s-1 -74.167 -1 -91.5
c0 -90 2.33301 -145.333 7 -166s12.667 -31 24 -31c4.66699 0 11 1 19 3s13 3 15 3c6.66699 0 11.834 -2 15.501 -6s5.5 -9.33301 5.5 -16c0 -16.667 -11.333 -33.167 -34 -49.5s-46.334 -24.5 -71.001 -24.5c-30.667 0 -63.334 30 -98.001 90
c-2.66699 4.66699 -4.66699 8 -6 10h-12c-34 -32 -70.333 -55.667 -109 -71s-81 -23 -127 -23c-74 0 -133.167 18.667 -177.5 56s-66.5 87.666 -66.5 150.999c0 74.667 29.333 132.834 88 174.501s140.667 62.5 246 62.5c30 0 58.333 -0.666992 85 -2s52.334 -3 77.001 -5z
M555.003 1142c-28 4 -53.001 6.83301 -75.001 8.5s-42 2.5 -60 2.5c-76 0 -133.667 -14.167 -173 -42.5s-59 -70.166 -59 -125.499c0 -46 13.833 -82 41.5 -108s65.834 -39 114.501 -39c62.667 0 113.5 18.167 152.5 54.5s58.5 84.166 58.5 143.499v106z" />
    <glyph glyph-name="guillemotleft" unicode="&#xab;" horiz-adv-x="909" 
d="M258 520c60 -82.667 107.832 -154.83 143.499 -216.497s53.5 -102.834 53.5 -123.501c0 -10 -2.5 -18 -7.5 -24s-12.167 -9 -21.5 -9c-20.667 0 -62 33.333 -124 100l-50 54l-51 54c-86 92 -129 147 -129 165c0 17.333 33.333 61.666 100 132.999l35 37l58 63
c86 93.333 139.667 140 161 140c9.33301 -0.666992 16.333 -3.83398 21 -9.50098s7.33398 -14.167 8.00098 -25.5c0 -20 -17.667 -60.333 -53 -121s-83.333 -133 -144 -217zM636.999 520.004c60 -82.667 107.832 -154.831 143.499 -216.498s53.5 -102.834 53.5 -123.501
c0 -10 -2.5 -18 -7.5 -24s-12.167 -9 -21.5 -9c-20.667 0 -62 33.333 -124 100l-50 54l-51 54c-86 92 -129 147 -129 165c0 17.333 33.333 61.666 100 132.999c14.667 16 26.334 28.333 35.001 37l58 63c86 93.333 139.667 140 161 140c8.66699 0 15.5 -3 20.5 -9
s7.83301 -14.667 8.5 -26c0 -20 -17.667 -60.333 -53 -121s-83.333 -133 -144 -217z" />
    <glyph glyph-name="logicalnot" unicode="&#xac;" horiz-adv-x="1706" 
d="M254 858h1198v-502h-115v385h-1083v117z" />
    <glyph glyph-name="sfthyphen" unicode="&#xad;" horiz-adv-x="627" 
d="M313 459c-38 0 -77.6699 -1 -119.003 -3s-63 -3 -65 -3c-20 0 -33.833 2.5 -41.5 7.5s-11.5 13.833 -11.5 26.5c0 30.667 9.83301 56.5 29.5 77.5s45.834 31.5 78.501 31.5h18c46.667 -1.33301 92 -2 136 -2c26.667 0 57.834 1 93.501 3s57.834 3 66.501 3
c19.333 0 33 -2.66699 41 -8s12 -14.333 12 -27c0 -30 -9.83301 -55.5 -29.5 -76.5s-46.167 -31.5 -79.5 -31.5c-2 0 -17.5 0.333008 -46.5 1s-56.5 1 -82.5 1z" />
    <glyph glyph-name="registered" unicode="&#xae;" horiz-adv-x="1683" 
d="M729 719c10.667 -0.666992 21.334 -1.16797 32.001 -1.50098s22 -0.5 34 -0.5c74.667 0 132.5 15.167 173.5 45.5s61.5 73.166 61.5 128.499c0 48.667 -17.667 87.834 -53 117.501s-83 44.5 -143 44.5c-34.667 0 -60.834 -6.16699 -78.501 -18.5
s-26.5 -30.166 -26.5 -53.499v-262zM469 1092l393 -0.000976562c98 0 175.5 -18.167 232.5 -54.5s85.5 -85.166 85.5 -146.499c0 -50.667 -23.167 -92 -69.5 -124s-118.833 -57 -217.5 -75c62 -19.333 109.333 -45.166 142 -77.499s56.334 -76.833 71.001 -133.5
c4 -14.667 7.66699 -35.667 11 -63c8.66699 -58.667 28.334 -88 59.001 -88c21.333 0 37.833 11.333 49.5 34s17.5 55.667 17.5 99h43v-12c0 -58.667 -13.5 -103.167 -40.5 -133.5s-66.833 -45.5 -119.5 -45.5c-30.667 0 -56.834 5.66699 -78.501 17
s-37.834 27.666 -48.501 48.999c-12 26.667 -19 64.5 -21 113.5s-5 80.833 -9 95.5c-13.333 45.333 -36.833 78.833 -70.5 100.5s-79.167 32.5 -136.5 32.5h-33v-248c0 -36 8.83301 -61.167 26.5 -75.5s50.5 -22.833 98.5 -25.5v-40h-385v40c48 2 81.167 10.167 99.5 24.5
s27.5 39.833 27.5 76.5v516c0 36.667 -8.66699 62 -26 76s-51 22.333 -101 25v43zM844 1303c-81.333 0 -160.002 -15.9971 -236.002 -47.9971s-143.333 -77.667 -202 -137s-103.5 -126.833 -134.5 -202.5s-46.5 -154.834 -46.5 -237.501
c0 -84.667 15.5 -164.334 46.5 -239.001s76.5 -141.667 136.5 -201c58.667 -59.333 124.834 -104.333 198.501 -135s152.167 -46 235.5 -46c84 0 162.833 15.333 236.5 46s139.5 75.667 197.5 135c58.667 60 103.667 127.667 135 203s47 154.333 47 237
s-15.833 163.167 -47.5 241.5s-75.834 145.166 -132.501 200.499c-57.333 58 -124.166 103 -200.499 135s-154.166 48 -233.499 48zM843.998 1382c92 0 181.499 -18.001 268.499 -54.001s163.167 -86.667 228.5 -152c64.667 -64.667 114.667 -140.667 150 -228
s53 -178 53 -272c0 -91.333 -18.5 -180.5 -55.5 -267.5s-89.5 -164.5 -157.5 -232.5c-66 -66 -140.833 -116 -224.5 -150s-173.834 -51 -270.501 -51c-91.333 0 -179 17.5 -263 52.5s-159.667 85.833 -227 152.5s-118.666 142.334 -153.999 227.001s-53 175 -53 271
c0 93.333 17.667 182.833 53 268.5s86 162.167 152 229.5c65.333 66 141.333 116.833 228 152.5s177.334 53.5 272.001 53.5z" />
    <glyph glyph-name="macron" unicode="&#xaf;" 
d="M289 1255c-12.667 0 -21.667 2.5 -27 7.5s-8 12.833 -8 23.5v66c0 10.667 2.5 18 7.5 22s14.167 6 27.5 6h446c12 0 20.5 -2.16699 25.5 -6.5s7.5 -11.5 7.5 -21.5v-66c0 -11.333 -2.5 -19.333 -7.5 -24s-13.5 -7 -25.5 -7h-446z" />
    <glyph glyph-name="degree" unicode="&#xb0;" horiz-adv-x="674" 
d="M338 1372c-56 0 -103.833 -19.5 -143.5 -58.5s-59.5 -86.5 -59.5 -142.5s19.833 -103.667 59.5 -143s87.5 -59 143.5 -59s103.5 19.667 142.5 59s58.5 87 58.5 143s-19.5 103.5 -58.5 142.5s-86.5 58.5 -142.5 58.5zM338 1454c78 0 144.668 -27.6689 200.001 -83.002
s83 -122 83 -200c0 -77.333 -27.833 -143.666 -83.5 -198.999s-122.834 -83 -201.501 -83s-145.167 27.333 -199.5 82s-81.5 121.334 -81.5 200.001c0 79.333 27.5 146.333 82.5 201s121.833 82 200.5 82z" />
    <glyph glyph-name="plusminus" unicode="&#xb1;" horiz-adv-x="1706" 
d="M254 158h1198v-117h-1198v117zM795 1180h118v-344h539v-117h-539v-344h-118v344h-541v117h541v344z" />
    <glyph glyph-name="twosuperior" unicode="&#xb2;" horiz-adv-x="725" 
d="M223 610l263.997 0.000976562c26 0 46.5 2.83301 61.5 8.5s26.833 14.5 35.5 26.5c5.33301 8.66699 12.333 21 21 37c16.667 31.333 31.334 47 44.001 47c10 0 17.333 -2.5 22 -7.5s7 -13.5 7 -25.5c0 -12.667 -5 -32.667 -15 -60s-23.333 -57.666 -40 -90.999
c-15.333 -29.333 -26.833 -47.666 -34.5 -54.999s-16.167 -11 -25.5 -11c-6 0 -11.167 2.83301 -15.5 8.5s-6.5 12.5 -6.5 20.5c0 1.33301 0.333008 3 1 5s1 3.66699 1 5h-449c-24.667 0 -42.667 2.16699 -54 6.5s-17 11.166 -17 20.499c0 12.667 30 44 90 94l73 61
c124.667 108.667 207.5 191 248.5 247s61.5 109 61.5 159c0 42 -13.667 75 -41 99s-65 36 -113 36c-30.667 0 -60.167 -6 -88.5 -18s-55.5 -30 -81.5 -54c-8.66699 -8 -19.667 -19.333 -33 -34c-22.667 -24.667 -39.667 -37 -51 -37c-7.33301 0 -13.666 2.16699 -18.999 6.5
s-8 9.5 -8 15.5c0 13.333 5.66699 28.166 17 44.499s28.333 35.166 51 56.499c32 28.667 68 50.5 108 65.5s82.667 22.5 128 22.5c76.667 0 138.5 -19.167 185.5 -57.5s70.5 -88.833 70.5 -151.5c0 -52 -18 -103.167 -54 -153.5s-105 -115.833 -207 -196.5
c-62.667 -49.333 -104.167 -83 -124.5 -101s-30.5 -29.667 -30.5 -35c0 -0.666992 1.83301 -1.5 5.5 -2.5s7.83398 -1.5 12.501 -1.5z" />
    <glyph glyph-name="threesuperior" unicode="&#xb3;" horiz-adv-x="725" 
d="M440 1087c0 43.333 -13.498 78.501 -40.498 105.501s-62.5 40.5 -106.5 40.5c-20 0 -41.333 -3.33301 -64 -10s-46.334 -16.334 -71.001 -29.001c-8 -4 -18 -9.33301 -30 -16c-21.333 -12.667 -36 -19 -44 -19c-7.33301 0 -13.666 2.5 -18.999 7.5s-8 10.833 -8 17.5
c0 7.33301 3.83301 15 11.5 23s25.834 21.333 54.501 40c31.333 20.667 64.166 36.167 98.499 46.5s69.833 15.5 106.5 15.5c71.333 0 129.666 -19 174.999 -57s68 -86.667 68 -146c0 -31.333 -8 -60.833 -24 -88.5s-40 -53.5 -72 -77.5c-4.66699 -4 -11.667 -8.5 -21 -13.5
s-14 -9.5 -14 -13.5c0 -0.666992 7.33301 -2.66699 22 -6s28.667 -7.33301 42 -12c42.667 -16.667 76.167 -43.334 100.5 -80.001s36.5 -79 36.5 -127c0 -84.667 -34.833 -153.667 -104.5 -207s-160.5 -80 -272.5 -80c-66 0 -121.333 7 -166 21s-67 30.333 -67 49
c0 6.66699 2.83301 12.167 8.5 16.5s13.5 6.5 23.5 6.5c7.33301 0 31.166 -4.83301 71.499 -14.5s77.5 -14.5 111.5 -14.5c82.667 0 148 18.333 196 55s72 86.667 72 150c0 60 -19.333 105.667 -58 137s-95 47 -169 47c-14.667 0 -31.334 -1 -50.001 -3s-30 -3 -34 -3
c-7.33301 0 -12.333 2.16699 -15 6.5s-4 12.5 -4 24.5c0.666992 14 11 22 31 24c10 0.666992 18 1.33398 24 2.00098c66.667 10.667 116.834 31.167 150.501 61.5s50.5 70.5 50.5 120.5z" />
    <glyph glyph-name="acute" unicode="&#xb4;" 
d="M676 1470c22.667 16.667 38.832 27.332 48.499 31.999s18.834 7 27.501 7c16 0 31.833 -9.5 47.5 -28.5s23.5 -38.167 23.5 -57.5c0 -10.667 -3.5 -20.167 -10.5 -28.5s-20.5 -18.5 -40.5 -30.5l-289 -168c-22.667 -14 -40 -23.667 -52 -29s-22 -8 -30 -8
c-11.333 0 -22 5.33301 -32 16s-15 21 -15 31c0 12.667 17 31.667 51 57c9.33301 6.66699 17 12.334 23 17.001z" />
    <glyph glyph-name="mu" unicode="&#xb5;" horiz-adv-x="1120" 
d="M164 193c-18 -90.667 -35.3301 -203.666 -51.9971 -338.999c-22.667 -181.333 -60 -272 -112 -272c-24.667 0 -44.167 7.83301 -58.5 23.5s-21.5 37.167 -21.5 64.5c0 26.667 21.5 117.834 64.5 273.501s78.167 298.167 105.5 427.5l109 514h147l-104 -492
c-4 -20 -7.16699 -39.5 -9.5 -58.5s-3.5 -36.833 -3.5 -53.5c0 -55.333 14 -98.333 42 -129s67.333 -46 118 -46c65.333 0 119.833 22.833 163.5 68.5s75.167 112.5 94.5 200.5l111 510h149l-114 -531c-8.66699 -39.333 -14.334 -68.5 -17.001 -87.5s-4 -35.5 -4 -49.5
c0 -32 8.66699 -58 26 -78s39.333 -30 66 -30c23.333 0 45.166 6 65.499 18s37.5 29 51.5 51s27.667 53.167 41 93.5s26.333 60.5 39 60.5c8 0 14.333 -3.33301 19 -10s7 -15.667 7 -27c0 -16.667 -3.66699 -38.834 -11 -66.501s-17 -55.5 -29 -83.5
c-25.333 -54.667 -57 -95.5 -95 -122.5s-83 -40.5 -135 -40.5c-45.333 0 -81.5 17 -108.5 51s-40.5 80.333 -40.5 139v23c-30.667 -73.333 -69.334 -128 -116.001 -164s-101.667 -54 -165 -54c-64 0 -114.833 18.167 -152.5 54.5s-61.167 90.166 -70.5 161.499z" />
    <glyph glyph-name="paragraph" unicode="&#xb6;" 
d="M948 1479l-0.00195312 -78h-125v-1401h-94v1401h-182v-1401h-96v782c-115.333 5.33301 -206.666 39.5 -273.999 102.5s-101 144.833 -101 245.5c0 104.667 35.833 189 107.5 253s166.834 96 285.501 96h479z" />
    <glyph glyph-name="periodcentered" unicode="&#xb7;" horiz-adv-x="551" 
d="M162 647c0 32 10.833 58.833 32.5 80.5s48.167 32.5 79.5 32.5c32 0 59.167 -11 81.5 -33s33.5 -48.667 33.5 -80s-11.167 -58.333 -33.5 -81s-49.5 -34 -81.5 -34c-31.333 0 -57.833 11.167 -79.5 33.5s-32.5 49.5 -32.5 81.5z" />
    <glyph glyph-name="cedilla" unicode="&#xb8;" 
d="M522 0c-3.33301 -20.667 -5.83301 -38.8359 -7.5 -54.5029s-2.5 -30.167 -2.5 -43.5v-20c14.667 3.33301 26.334 5.66602 35.001 6.99902s17.334 2 26.001 2c58 0 104 -15.667 138 -47s51 -73.666 51 -126.999c0 -59.333 -20.833 -104.166 -62.5 -134.499
s-103.5 -45.5 -185.5 -45.5c-74.667 0 -135.334 8.83301 -182.001 26.5s-70 40.834 -70 69.501c0 12.667 2.5 22 7.5 28s12.167 9 21.5 9c4 0 28.167 -7.83301 72.5 -23.5s87.166 -23.5 128.499 -23.5c48.667 0 84 7.5 106 22.5s33 38.833 33 71.5
c0 30 -9.16699 53 -27.5 69s-44.833 24 -79.5 24c-10 0 -22.667 -1.16699 -38 -3.5s-25.666 -3.5 -30.999 -3.5c-8.66699 0 -14.334 1.33301 -17.001 4s-4 9 -4 19c0 30 1.33301 59.333 4 88s7 57.334 13 86.001h71z" />
    <glyph glyph-name="onesuperior" unicode="&#xb9;" horiz-adv-x="725" 
d="M322 862v55.999c0 135.333 -2.16699 218.5 -6.5 249.5s-11.833 46.5 -22.5 46.5c-8.66699 0 -23.334 -3 -44.001 -9s-36.667 -9 -48 -9c-8.66699 0 -15.667 2.33301 -21 7s-8 10.667 -8 18c0 8.66699 4.33301 16.167 13 22.5s25.667 13.833 51 22.5
c42 13.333 82.167 23.833 120.5 31.5s66.833 11.5 85.5 11.5c12 0 21.167 -2 27.5 -6s9.5 -9.66699 9.5 -17c0 -9.33301 -6 -16.666 -18 -21.999s-19 -9 -21 -11c-5.33301 -5.33301 -9 -17 -11 -35s-3 -58.667 -3 -122v-47v-56v-104v-90c0 -84 0.666992 -137.333 2 -160
s4 -37 8 -43c4.66699 -6 11.667 -10.667 21 -14s25 -6.33301 47 -9c4.66699 -0.666992 10.334 -1.33398 17.001 -2.00098c24 -4 36 -11.333 36 -22c0 -13.333 -12.833 -22.5 -38.5 -27.5s-74.167 -7.5 -145.5 -7.5c-81.333 0 -135.166 2.33301 -161.499 7
s-39.5 13.334 -39.5 26.001c0 6.66699 2.66699 12.167 8 16.5s15.666 7.5 30.999 9.5c31.333 2 53 4.16699 65 6.5s21 5.83301 27 10.5c6.66699 4 11.5 16.333 14.5 37s4.5 69 4.5 145v90z" />
    <glyph glyph-name="ordmasculine" unicode="&#xba;" horiz-adv-x="889" 
d="M188 1167c0 -99.333 25.168 -181.501 75.501 -246.501s113.5 -97.5 189.5 -97.5c75.333 0 135 26.167 179 78.5s66 123.833 66 214.5c0 94 -26.333 172.5 -79 235.5s-118.334 94.5 -197.001 94.5c-68 0 -124 -25.667 -168 -77s-66 -118.666 -66 -201.999zM53.001 1124
c0 112 38.667 204.833 116 278.5s174 110.5 290 110.5c109.333 0 199.5 -33.667 270.5 -101s106.5 -153.666 106.5 -258.999c0 -112.667 -38.167 -206.334 -114.5 -281.001s-171.5 -112 -285.5 -112c-108.667 0 -199.667 34.833 -273 104.5s-110 156.167 -110 259.5z" />
    <glyph glyph-name="guillemotright" unicode="&#xbb;" horiz-adv-x="909" 
d="M272 520c-60.667 84 -108.501 156.331 -143.501 216.998s-52.5 101 -52.5 121c0 10.667 2.83301 19.167 8.5 25.5s12.834 9.5 21.501 9.5c20 0 59 -31.667 117 -95l56 -59l50 -54c86.667 -91.333 130 -146.333 130 -165c0 -19.333 -40.667 -72.333 -122 -159l-11 -13
l-50 -53c-90.667 -98.667 -147.334 -148 -170.001 -148c-9.33301 0 -16.666 3 -21.999 9s-8 14 -8 24c0 20.667 17.667 61.834 53 123.501s83 133.834 143 216.501zM650.999 519.998c-60.667 84 -108.502 156.331 -143.502 216.998s-52.5 101 -52.5 121
c0 10.667 2.83301 19.167 8.5 25.5s12.834 9.5 21.501 9.5c20.667 0 62 -33.333 124 -100l50 -54l39 -40c93.333 -100 140 -159.667 140 -179s-40.667 -72.333 -122 -159l-11 -13l-50 -53c-91.333 -98.667 -148 -148 -170 -148c-9.33301 0 -16.666 3 -21.999 9s-8 14 -8 24
c0 20.667 17.667 61.834 53 123.501s83 133.834 143 216.501z" />
    <glyph glyph-name="onequarter" unicode="&#xbc;" horiz-adv-x="1729" 
d="M1501 150v444l-8 2l-185.5 -209l-185.5 -227l4 -10h375zM1683 150c9.33301 0 15.835 -1.83203 19.502 -5.49902s5.5 -10.167 5.5 -19.5v-25c0 -8 -2 -13.667 -6 -17s-11 -5 -21 -5h-82v-150c0 -9.33301 -2.16699 -16 -6.5 -20s-11.5 -6 -21.5 -6h-39
c-10.667 0 -18.5 2.16699 -23.5 6.5s-7.5 10.833 -7.5 19.5v150h-428c-20.667 0 -33.334 1.83301 -38.001 5.5s-7 10.5 -7 20.5c0 30 42.667 94.333 128 193l73 84l180 214.5c56 64.333 93.667 106.166 113 125.499c10 7.33301 18.667 12.5 26 15.5s15 4.5 23 4.5
c11.333 0 19.666 -2.66699 24.999 -8s8 -14 8 -26c0 -2.66699 -0.333008 -9.66699 -1 -21c-2 -57.333 -3.33301 -114 -4 -170v-366h84zM1311 1266c0 -4.66699 -65.167 -106.167 -195.5 -304.5l-388.5 -613.5c-42.667 -70 -88.167 -150.333 -136.5 -241
s-78.5 -136 -90.5 -136c-15.333 0 -33.166 6.66699 -53.499 20s-30.5 26 -30.5 38c0 8 54 95.667 162 263l303 482l188 314c92 156.667 144.667 235 158 235s30.666 -7 51.999 -21s32 -26 32 -36zM309.002 891.001l0.000976562 50.998c0 118.667 -2 194.834 -6 228.501
s-11.333 50.5 -22 50.5c-8.66699 0 -23 -3.16699 -43 -9.5s-35 -9.5 -45 -9.5c-8.66699 0 -15.334 2 -20.001 6s-7 9.66699 -7 17c0 8 4.33301 15.167 13 21.5s24 12.833 46 19.5c40 13.333 78.5 23.833 115.5 31.5s64.833 11.5 83.5 11.5
c9.33301 0 17.333 -2.16699 24 -6.5s10.334 -9.83301 11.001 -16.5c0 -8.66699 -6.33301 -15.667 -19 -21s-19.334 -8.33301 -20.001 -9c-4.66699 -6 -7.83398 -17.167 -9.50098 -33.5s-2.5 -54.5 -2.5 -114.5v-45v-49v-99v-84c0 -78.667 0.666992 -128.667 2 -150
s3.66602 -34.333 6.99902 -39c4 -6 10.333 -10.5 19 -13.5s24 -5.83301 46 -8.5l21 -3c19.333 -2.66699 29 -9 29 -19c0 -12 -12.5 -20.5 -37.5 -25.5s-71.167 -7.5 -138.5 -7.5c-76.667 0 -127.5 2.33301 -152.5 7s-37.5 12.667 -37.5 24c0 6.66699 2.5 11.834 7.5 15.501
s14.5 6.5 28.5 8.5c29.333 2 49.833 4 61.5 6s20.834 5 27.501 9c6.66699 6 11.334 20.333 14.001 43s4 65 4 127v86z" />
    <glyph glyph-name="onehalf" unicode="&#xbd;" horiz-adv-x="1729" 
d="M1247 86l251.998 0.00195312c26 0 45.833 2.5 59.5 7.5s24.5 13.5 32.5 25.5c5.33301 8 12 19 20 33c16.667 30 31.334 45 44.001 45c8.66699 0 15.167 -2.5 19.5 -7.5s6.5 -12.833 6.5 -23.5c0 -12 -4.66699 -30.833 -14 -56.5s-22.333 -53.834 -39 -84.501
c-12 -24.667 -21.833 -40.834 -29.5 -48.501s-16.167 -11.5 -25.5 -11.5c-6.66699 0 -12.167 2.5 -16.5 7.5s-6.5 11.5 -6.5 19.5l1 2.5c0.666992 1.66699 1 3.5 1 5.5h-428c-24 -0 -41.167 1.83301 -51.5 5.5s-15.5 10.167 -15.5 19.5c0 12.667 29.667 43 89 91l66 54
c121.333 104.667 200.833 182.667 238.5 234s56.5 99.666 56.5 144.999c0 39.333 -13.167 70.333 -39.5 93s-62.166 34 -107.499 34c-29.333 0 -57.5 -5.66699 -84.5 -17s-52.833 -28.333 -77.5 -51l-31 -32c-21.333 -23.333 -37.666 -35 -48.999 -35c-6 0 -11.5 2 -16.5 6
s-7.5 8.66699 -7.5 14c0 12.667 5.16699 26.667 15.5 42s26.166 32.666 47.499 51.999c29.333 27.333 63.166 48.166 101.499 62.499s78.833 21.5 121.5 21.5c74.667 0 134.334 -17.833 179.001 -53.5s67 -83.167 67 -142.5c0 -49.333 -17.333 -97.666 -52 -144.999
s-100 -108.333 -196 -183c-58 -43.333 -97 -73.666 -117 -90.999s-30 -28.666 -30 -33.999c0 -0.666992 1.66699 -1.5 5 -2.5s7 -1.5 11 -1.5zM1311 1266c0 -4.66699 -65.167 -106.167 -195.5 -304.5l-388.5 -613.5c-42.667 -70 -88.167 -150.333 -136.5 -241
s-78.5 -136 -90.5 -136c-15.333 0 -33.166 6.66699 -53.499 20s-30.5 26 -30.5 38c0 8 54 95.667 162 263l303 482l188 314c92 156.667 144.667 235 158 235s30.666 -7 51.999 -21s32 -26 32 -36zM308.998 891.002l0.000976562 50.998c0 118.667 -2 194.834 -6 228.501
s-11.333 50.5 -22 50.5c-8.66699 0 -23 -3.16699 -43 -9.5s-35 -9.5 -45 -9.5c-8.66699 0 -15.334 2 -20.001 6s-7 9.66699 -7 17c0 8 4.33301 15.167 13 21.5s24 12.833 46 19.5c40 13.333 78.5 23.833 115.5 31.5s64.833 11.5 83.5 11.5
c9.33301 0 17.333 -2.16699 24 -6.5s10.334 -9.83301 11.001 -16.5c0 -8.66699 -6.33301 -15.667 -19 -21s-19.334 -8.33301 -20.001 -9c-4.66699 -6 -7.83398 -17.167 -9.50098 -33.5s-2.5 -54.5 -2.5 -114.5v-45v-49v-99v-84c0 -78.667 0.666992 -128.667 2 -150
s3.66602 -34.333 6.99902 -39c4 -6 10.333 -10.5 19 -13.5s24 -5.83301 46 -8.5l21 -3c19.333 -2.66699 29 -9 29 -19c0 -12 -12.5 -20.5 -37.5 -25.5s-71.167 -7.5 -138.5 -7.5c-76.667 0 -127.5 2.33301 -152.5 7s-37.5 12.667 -37.5 24c0 6.66699 2.5 11.834 7.5 15.501
s14.5 6.5 28.5 8.5c29.333 2 49.833 4 61.5 6s20.834 5 27.501 9c6.66699 6 11.334 20.333 14.001 43s4 65 4 127v86z" />
    <glyph glyph-name="threequarters" unicode="&#xbe;" horiz-adv-x="1729" 
d="M1501 150v444l-8 2l-185.5 -209l-185.5 -227l4 -10h375zM1683 150c9.33301 0 15.835 -1.83203 19.502 -5.49902s5.5 -10.167 5.5 -19.5v-25c0 -8 -2 -13.667 -6 -17s-11 -5 -21 -5h-82v-150c0 -9.33301 -2.16699 -16 -6.5 -20s-11.5 -6 -21.5 -6h-39
c-10.667 0 -18.5 2.16699 -23.5 6.5s-7.5 10.833 -7.5 19.5v150h-428c-20.667 0 -33.334 1.83301 -38.001 5.5s-7 10.5 -7 20.5c0 30 42.667 94.333 128 193l73 84l180 214.5c56 64.333 93.667 106.166 113 125.499c10 7.33301 18.667 12.5 26 15.5s15 4.5 23 4.5
c11.333 0 19.666 -2.66699 24.999 -8s8 -14 8 -26c0 -2.66699 -0.333008 -9.66699 -1 -21c-2 -57.333 -3.33301 -114 -4 -170v-366h84zM1311 1266c0 -4.66699 -65.167 -106.167 -195.5 -304.5l-388.5 -613.5c-42.667 -70 -88.167 -150.333 -136.5 -241
s-78.5 -136 -90.5 -136c-15.333 0 -33.166 6.66699 -53.499 20s-30.5 26 -30.5 38c0 8 54 95.667 162 263l303 482l188 314c92 156.667 144.667 235 158 235s30.666 -7 51.999 -21s32 -26 32 -36zM420.002 1100c0 40.667 -12.8311 73.3291 -38.498 97.9961
s-59.167 37 -100.5 37c-20.667 0 -42 -2.83301 -64 -8.5s-44.667 -14.5 -68 -26.5c-6.66699 -3.33301 -18 -9.66602 -34 -18.999s-27.667 -14 -35 -14s-13.333 2.33301 -18 7s-7 10.667 -7 18c0 6.66699 4.16699 14 12.5 22s24.833 19.667 49.5 35
c29.333 19.333 60.666 33.833 93.999 43.5s67.333 14.5 102 14.5c68.667 0 124.5 -17.667 167.5 -53s64.5 -80.666 64.5 -135.999c0 -29.333 -7.66699 -57.166 -23 -83.499s-38 -50.5 -68 -72.5c-4 -2.66699 -10.667 -6.33398 -20 -11.001s-14 -9 -14 -13
c0 -0.666992 6.83301 -2.66699 20.5 -6s26.5 -7.33301 38.5 -12c41.333 -14.667 73.833 -39 97.5 -73s35.5 -73.333 35.5 -118c0 -79.333 -33.333 -143.833 -100 -193.5s-153.334 -74.5 -260.001 -74.5c-62.667 0 -115.5 6.5 -158.5 19.5s-64.5 27.5 -64.5 43.5
c0 6.66699 3 12.167 9 16.5s13.667 6.5 23 6.5c6 0 28.333 -4.5 67 -13.5s74.667 -13.5 108 -13.5c78 0 140.167 17.167 186.5 51.5s69.5 80.833 69.5 139.5c0 55.333 -18.667 97.833 -56 127.5s-91.333 44.5 -162 44.5c-14 0 -29.833 -0.666992 -47.5 -2
s-28.167 -2 -31.5 -2c-8 0 -13.167 1.83301 -15.5 5.5s-3.5 10.5 -3.5 20.5c0 14.667 10 22.334 30 23.001c10 0.666992 17.667 1.33398 23 2.00098c64 10 111.833 29.167 143.5 57.5s47.5 65.833 47.5 112.5z" />
    <glyph glyph-name="questiondown" unicode="&#xbf;" horiz-adv-x="915" 
d="M281 262c0 -66 15.501 -117.667 46.501 -155s74.167 -56 129.5 -56c44 0 82.333 11.833 115 35.5s57.667 57.5 75 101.5c6 15.333 13 38.333 21 69c19.333 77.333 50 116 92 116c18.667 0 34.167 -7.83301 46.5 -23.5s18.5 -35.834 18.5 -60.501
c0 -89.333 -37.333 -166 -112 -230s-167.667 -96 -279 -96c-107.333 0 -193.5 30.167 -258.5 90.5s-97.5 140.166 -97.5 239.499c0 56.667 10.667 107.834 32 153.501s61 97.5 119 155.5c5.33301 5.33301 14 13.333 26 24c64.667 58.667 106 125.334 124 200.001
c6 24.667 9.16699 56.334 9.5 95.001s1.83301 63.334 4.5 74.001c4 18.667 10.5 32.667 19.5 42s20.167 14 33.5 14c17.333 0 30.333 -10.167 39 -30.5s13 -49.833 13 -88.5c0 -68.667 -5.5 -127.334 -16.5 -176.001s-28.833 -95.334 -53.5 -140.001
c-8.66699 -16 -23.334 -40 -44.001 -72c-68.667 -110 -103 -204 -103 -282zM563.001 1405c0 -31.333 -10.835 -58 -32.502 -80s-48.167 -33 -79.5 -33s-57.666 11 -78.999 33s-32 49.333 -32 82c0 30 11.333 56 34 78s49.667 33 81 33c30.667 0 56.334 -10.667 77.001 -32
s31 -48.333 31 -81z" />
    <glyph glyph-name="Agrave" unicode="&#xc0;" horiz-adv-x="1446" 
d="M455 617c26.667 1.33301 56.501 2.33301 89.501 3s84.833 1 155.5 1c75.333 0 133.166 -0.333008 173.499 -1s78.166 -2 113.499 -4c-51.333 135.333 -100 256.666 -146 363.999s-83.333 188.333 -112 243h-14c-25.333 -47.333 -59.166 -120.166 -101.499 -218.499z
M715.001 504l-107.001 0.000976562c-76.667 0 -127.5 -2 -152.5 -6s-40.833 -11 -47.5 -21c-4.66699 -6 -10.167 -15.667 -16.5 -29s-16.833 -39 -31.5 -77c-2.66699 -7.33301 -6.66699 -17.666 -12 -30.999c-30 -74 -45 -121.667 -45 -143c0 -18 4.66699 -32.667 14 -44
s24.333 -20.666 45 -27.999c7.33301 -2.66699 17 -6 29 -10c44 -15.333 66 -32.666 66 -51.999c0 -24.667 -18.5 -42.667 -55.5 -54s-97.833 -17 -182.5 -17c-84 0 -144.167 5.5 -180.5 16.5s-54.5 29.167 -54.5 54.5c0 20 22 36.667 66 50c20.667 6 36 11.333 46 16
c32.667 20.667 73.334 90 122.001 208l5 13l183 440c164 394 250.667 612 260 654c0.666992 4 2 10.333 4 19c6.66699 32 28.334 48 65.001 48c22 0 39.333 -4.83301 52 -14.5s28.334 -34.834 47.001 -75.501c76 -168 183.333 -429 322 -783l148 -375
c2.66699 -6 5.66699 -13.333 9 -22c25.333 -62.667 51.333 -101.334 78 -116.001c7.33301 -4 20.333 -9 39 -15c39.333 -12.667 59 -29 59 -49c0 -23.333 -21 -40.666 -63 -51.999s-107.667 -17 -197 -17c-90 0 -155.833 5.66699 -197.5 17s-62.5 28.666 -62.5 51.999
c0 20 23.667 38.333 71 55c10 3.33301 18.333 6.33301 25 9c19.333 3.33301 33.666 10.666 42.999 21.999s14 26.666 14 45.999c0 21.333 -8.33301 58.5 -25 111.5s-38.334 105.833 -65.001 158.5c-8.66699 15.333 -26 26 -52 32s-77 9 -153 9h-112zM556 1935l248.999 -190
c4 -3.33301 10 -8 18 -14c36 -26.667 54 -46.667 54 -60c0 -10 -5.16699 -20.333 -15.5 -31s-21.166 -16 -32.499 -16c-7.33301 0 -17 2.66699 -29 8s-29.333 15 -52 29l-287 168c-21.333 12.667 -35.5 23.167 -42.5 31.5s-10.5 17.5 -10.5 27.5
c0 18.667 8.16699 37.667 24.5 57s32.5 29 48.5 29c14 0 36.667 -11.333 68 -34c2.66699 -2 5 -3.66699 7 -5z" />
    <glyph glyph-name="Aacute" unicode="&#xc1;" horiz-adv-x="1446" 
d="M455 617c26.667 1.33301 56.501 2.33301 89.501 3s84.833 1 155.5 1c75.333 0 133.166 -0.333008 173.499 -1s78.166 -2 113.499 -4c-51.333 135.333 -100 256.666 -146 363.999s-83.333 188.333 -112 243h-14c-25.333 -47.333 -59.166 -120.166 -101.499 -218.499z
M715.001 504l-107.001 0.000976562c-76.667 0 -127.5 -2 -152.5 -6s-40.833 -11 -47.5 -21c-4.66699 -6 -10.167 -15.667 -16.5 -29s-16.833 -39 -31.5 -77c-2.66699 -7.33301 -6.66699 -17.666 -12 -30.999c-30 -74 -45 -121.667 -45 -143c0 -18 4.66699 -32.667 14 -44
s24.333 -20.666 45 -27.999c7.33301 -2.66699 17 -6 29 -10c44 -15.333 66 -32.666 66 -51.999c0 -24.667 -18.5 -42.667 -55.5 -54s-97.833 -17 -182.5 -17c-84 0 -144.167 5.5 -180.5 16.5s-54.5 29.167 -54.5 54.5c0 20 22 36.667 66 50c20.667 6 36 11.333 46 16
c32.667 20.667 73.334 90 122.001 208l5 13l183 440c164 394 250.667 612 260 654c0.666992 4 2 10.333 4 19c6.66699 32 28.334 48 65.001 48c22 0 39.333 -4.83301 52 -14.5s28.334 -34.834 47.001 -75.501c76 -168 183.333 -429 322 -783l148 -375
c2.66699 -6 5.66699 -13.333 9 -22c25.333 -62.667 51.333 -101.334 78 -116.001c7.33301 -4 20.333 -9 39 -15c39.333 -12.667 59 -29 59 -49c0 -23.333 -21 -40.666 -63 -51.999s-107.667 -17 -197 -17c-90 0 -155.833 5.66699 -197.5 17s-62.5 28.666 -62.5 51.999
c0 20 23.667 38.333 71 55c10 3.33301 18.333 6.33301 25 9c19.333 3.33301 33.666 10.666 42.999 21.999s14 26.666 14 45.999c0 21.333 -8.33301 58.5 -25 111.5s-38.334 105.833 -65.001 158.5c-8.66699 15.333 -26 26 -52 32s-77 9 -153 9h-112zM887 1935
c22.667 16.667 38.832 27.332 48.499 31.999s18.834 7 27.501 7c16 0 31.833 -9.5 47.5 -28.5s23.5 -38.167 23.5 -57.5c0 -10.667 -3.5 -20.167 -10.5 -28.5s-20.5 -18.5 -40.5 -30.5l-289 -168c-22.667 -14 -40 -23.667 -52 -29s-22 -8 -30 -8
c-11.333 0 -22 5.33301 -32 16s-15 21 -15 31c0 12.667 17 31.667 51 57c9.33301 6.66699 17 12.334 23 17.001z" />
    <glyph glyph-name="Acircumflex" unicode="&#xc2;" horiz-adv-x="1446" 
d="M455 617c26.667 1.33301 56.501 2.33301 89.501 3s84.833 1 155.5 1c75.333 0 133.166 -0.333008 173.499 -1s78.166 -2 113.499 -4c-51.333 135.333 -100 256.666 -146 363.999s-83.333 188.333 -112 243h-14c-25.333 -47.333 -59.166 -120.166 -101.499 -218.499z
M715.001 504l-107.001 0.000976562c-76.667 0 -127.5 -2 -152.5 -6s-40.833 -11 -47.5 -21c-4.66699 -6 -10.167 -15.667 -16.5 -29s-16.833 -39 -31.5 -77c-2.66699 -7.33301 -6.66699 -17.666 -12 -30.999c-30 -74 -45 -121.667 -45 -143c0 -18 4.66699 -32.667 14 -44
s24.333 -20.666 45 -27.999c7.33301 -2.66699 17 -6 29 -10c44 -15.333 66 -32.666 66 -51.999c0 -24.667 -18.5 -42.667 -55.5 -54s-97.833 -17 -182.5 -17c-84 0 -144.167 5.5 -180.5 16.5s-54.5 29.167 -54.5 54.5c0 20 22 36.667 66 50c20.667 6 36 11.333 46 16
c32.667 20.667 73.334 90 122.001 208l5 13l183 440c164 394 250.667 612 260 654c0.666992 4 2 10.333 4 19c6.66699 32 28.334 48 65.001 48c22 0 39.333 -4.83301 52 -14.5s28.334 -34.834 47.001 -75.501c76 -168 183.333 -429 322 -783l148 -375
c2.66699 -6 5.66699 -13.333 9 -22c25.333 -62.667 51.333 -101.334 78 -116.001c7.33301 -4 20.333 -9 39 -15c39.333 -12.667 59 -29 59 -49c0 -23.333 -21 -40.666 -63 -51.999s-107.667 -17 -197 -17c-90 0 -155.833 5.66699 -197.5 17s-62.5 28.666 -62.5 51.999
c0 20 23.667 38.333 71 55c10 3.33301 18.333 6.33301 25 9c19.333 3.33301 33.666 10.666 42.999 21.999s14 26.666 14 45.999c0 21.333 -8.33301 58.5 -25 111.5s-38.334 105.833 -65.001 158.5c-8.66699 15.333 -26 26 -52 32s-77 9 -153 9h-112zM723 1866
l-160.002 -216.999c-6 -9.33301 -11.5 -15.5 -16.5 -18.5s-12.5 -4.5 -22.5 -4.5h-18c-17.333 0 -29.166 1.66699 -35.499 5s-9.5 9.33301 -9.5 18c0 5.33301 0.833008 10.666 2.5 15.999s4.16699 10.666 7.5 15.999l139 248c9.33301 16.667 21 28 35 34s40.667 9 80 9
c36 0 61 -3 75 -9s26 -17.333 36 -34l139 -247c4 -6 7 -11.667 9 -17s3 -10.666 3 -15.999c0 -8.66699 -3.16699 -14.667 -9.5 -18s-18.166 -5 -35.499 -5h-18c-10 0 -17.5 1.5 -22.5 4.5s-11.167 8.83301 -18.5 17.5z" />
    <glyph glyph-name="Atilde" unicode="&#xc3;" horiz-adv-x="1446" 
d="M455 617c26.667 1.33301 56.501 2.33301 89.501 3s84.833 1 155.5 1c75.333 0 133.166 -0.333008 173.499 -1s78.166 -2 113.499 -4c-51.333 135.333 -100 256.666 -146 363.999s-83.333 188.333 -112 243h-14c-25.333 -47.333 -59.166 -120.166 -101.499 -218.499z
M715.001 504l-107.001 0.000976562c-76.667 0 -127.5 -2 -152.5 -6s-40.833 -11 -47.5 -21c-4.66699 -6 -10.167 -15.667 -16.5 -29s-16.833 -39 -31.5 -77c-2.66699 -7.33301 -6.66699 -17.666 -12 -30.999c-30 -74 -45 -121.667 -45 -143c0 -18 4.66699 -32.667 14 -44
s24.333 -20.666 45 -27.999c7.33301 -2.66699 17 -6 29 -10c44 -15.333 66 -32.666 66 -51.999c0 -24.667 -18.5 -42.667 -55.5 -54s-97.833 -17 -182.5 -17c-84 0 -144.167 5.5 -180.5 16.5s-54.5 29.167 -54.5 54.5c0 20 22 36.667 66 50c20.667 6 36 11.333 46 16
c32.667 20.667 73.334 90 122.001 208l5 13l183 440c164 394 250.667 612 260 654c0.666992 4 2 10.333 4 19c6.66699 32 28.334 48 65.001 48c22 0 39.333 -4.83301 52 -14.5s28.334 -34.834 47.001 -75.501c76 -168 183.333 -429 322 -783l148 -375
c2.66699 -6 5.66699 -13.333 9 -22c25.333 -62.667 51.333 -101.334 78 -116.001c7.33301 -4 20.333 -9 39 -15c39.333 -12.667 59 -29 59 -49c0 -23.333 -21 -40.666 -63 -51.999s-107.667 -17 -197 -17c-90 0 -155.833 5.66699 -197.5 17s-62.5 28.666 -62.5 51.999
c0 20 23.667 38.333 71 55c10 3.33301 18.333 6.33301 25 9c19.333 3.33301 33.666 10.666 42.999 21.999s14 26.666 14 45.999c0 21.333 -8.33301 58.5 -25 111.5s-38.334 105.833 -65.001 158.5c-8.66699 15.333 -26 26 -52 32s-77 9 -153 9h-112zM823 1700
c-30 0 -71.167 8.16699 -123.5 24.5s-88.833 24.5 -109.5 24.5c-26.667 0 -47.5 -11.167 -62.5 -33.5s-26.167 -33.5 -33.5 -33.5c-14 0 -25 2.16699 -33 6.5s-12 10.166 -12 17.499c0 35.333 17.5 71.833 52.5 109.5s74.833 56.5 119.5 56.5
c24 0 61.333 -8.16699 112 -24.5s89.667 -24.5 117 -24.5c30.667 0 53.5 11.167 68.5 33.5s26.167 33.5 33.5 33.5c19.333 0 31.666 -1.66699 36.999 -5s8 -9.66602 8 -18.999c0 -40.667 -17.667 -78.5 -53 -113.5s-75.666 -52.5 -120.999 -52.5z" />
    <glyph glyph-name="Adieresis" unicode="&#xc4;" horiz-adv-x="1446" 
d="M455 617c26.667 1.33301 56.501 2.33301 89.501 3s84.833 1 155.5 1c75.333 0 133.166 -0.333008 173.499 -1s78.166 -2 113.499 -4c-51.333 135.333 -100 256.666 -146 363.999s-83.333 188.333 -112 243h-14c-25.333 -47.333 -59.166 -120.166 -101.499 -218.499z
M715.001 504l-107.001 0.000976562c-76.667 0 -127.5 -2 -152.5 -6s-40.833 -11 -47.5 -21c-4.66699 -6 -10.167 -15.667 -16.5 -29s-16.833 -39 -31.5 -77c-2.66699 -7.33301 -6.66699 -17.666 -12 -30.999c-30 -74 -45 -121.667 -45 -143c0 -18 4.66699 -32.667 14 -44
s24.333 -20.666 45 -27.999c7.33301 -2.66699 17 -6 29 -10c44 -15.333 66 -32.666 66 -51.999c0 -24.667 -18.5 -42.667 -55.5 -54s-97.833 -17 -182.5 -17c-84 0 -144.167 5.5 -180.5 16.5s-54.5 29.167 -54.5 54.5c0 20 22 36.667 66 50c20.667 6 36 11.333 46 16
c32.667 20.667 73.334 90 122.001 208l5 13l183 440c164 394 250.667 612 260 654c0.666992 4 2 10.333 4 19c6.66699 32 28.334 48 65.001 48c22 0 39.333 -4.83301 52 -14.5s28.334 -34.834 47.001 -75.501c76 -168 183.333 -429 322 -783l148 -375
c2.66699 -6 5.66699 -13.333 9 -22c25.333 -62.667 51.333 -101.334 78 -116.001c7.33301 -4 20.333 -9 39 -15c39.333 -12.667 59 -29 59 -49c0 -23.333 -21 -40.666 -63 -51.999s-107.667 -17 -197 -17c-90 0 -155.833 5.66699 -197.5 17s-62.5 28.666 -62.5 51.999
c0 20 23.667 38.333 71 55c10 3.33301 18.333 6.33301 25 9c19.333 3.33301 33.666 10.666 42.999 21.999s14 26.666 14 45.999c0 21.333 -8.33301 58.5 -25 111.5s-38.334 105.833 -65.001 158.5c-8.66699 15.333 -26 26 -52 32s-77 9 -153 9h-112zM459 1776
c0 30 10 55.167 30 75.5s44.667 30.5 74 30.5s53.833 -9.16699 73.5 -27.5s29.5 -41.166 29.5 -68.499c0 -26.667 -10.667 -50.334 -32 -71.001s-46.333 -31 -75 -31c-27.333 0 -50.833 8.83301 -70.5 26.5s-29.5 39.5 -29.5 65.5zM780 1776
c0 30 10.168 55.165 30.501 75.498s45.166 30.5 74.499 30.5c28.667 0 52.5 -9.16699 71.5 -27.5s28.5 -41.166 28.5 -68.499s-10.333 -51.166 -31 -71.499s-45 -30.5 -73 -30.5s-51.833 8.83301 -71.5 26.5s-29.5 39.5 -29.5 65.5z" />
    <glyph glyph-name="Aring" unicode="&#xc5;" horiz-adv-x="1446" 
d="M715 477l-113.003 -0.000976562c-72.667 0 -121.5 -1.83301 -146.5 -5.5s-40.833 -9.83398 -47.5 -18.501c-6 -8 -18.333 -33.333 -37 -76c-4 -10 -7.33301 -18 -10 -24l-2 -4c-37.333 -85.333 -56 -139.666 -56 -162.999c0 -16.667 4.66699 -30.5 14 -41.5
s24.333 -20.167 45 -27.5l31 -10c42.667 -12.667 64 -28 64 -46c0 -24 -17.667 -41.167 -53 -51.5s-97 -15.5 -185 -15.5c-87.333 0 -148.333 5.16699 -183 15.5s-52 27.5 -52 51.5c0 18 20.333 33 61 45c23.333 7.33301 40.333 13.666 51 18.999
c32.667 16.667 72.334 79.667 119.001 189l8 18l170 387c172 392 263 609.333 273 652c0.666992 3.33301 1.66699 8.66602 3 15.999c7.33301 32.667 30 49 68 49c20.667 0 37.5 -5 50.5 -15s28.5 -33.667 46.5 -71c35.333 -74.667 87.333 -192 156 -352l298 -711
c22 -56 38.833 -94.5 50.5 -115.5s23.5 -36.5 35.5 -46.5c9.33301 -5.33301 30.833 -13 64.5 -23s50.5 -23.667 50.5 -41c0 -24 -19.167 -41.167 -57.5 -51.5s-105.833 -15.5 -202.5 -15.5c-95.333 0 -162.5 4.83301 -201.5 14.5s-58.5 25.834 -58.5 48.501
c0 12.667 5.66699 23 17 31s39 17.667 83 29c18 5.33301 31.333 13.333 40 24s13 24.334 13 41.001c0 20 -8.5 55 -25.5 105s-38.5 100.333 -64.5 151c-7.33301 14.667 -24.166 24.834 -50.499 30.501s-77.166 8.5 -152.499 8.5h-114zM454.997 583.999
c26.667 1.33301 56.501 2.33398 89.501 3.00098s84.833 1 155.5 1c75.333 0 133.166 -0.333008 173.499 -1s78.166 -1.66699 113.499 -3c-55.333 136.667 -105.666 255.5 -150.999 356.5s-81 174.5 -107 220.5h-12c-14.667 -20.667 -41.5 -73.834 -80.5 -159.501z
M613.998 1737c0 -38.667 12.999 -70.834 38.999 -96.501s58.333 -38.5 97 -38.5c38 0 70 12.833 96 38.5s39 57.834 39 96.501c0 38 -13.167 70 -39.5 96s-58.166 39 -95.499 39c-38 0 -70.167 -13 -96.5 -39s-39.5 -58 -39.5 -96zM513.997 1737c0 66 22.667 121.667 68 167
s101.333 68 168 68c65.333 0 120.833 -22.833 166.5 -68.5s68.5 -101.167 68.5 -166.5c0 -66.667 -22.667 -122.667 -68 -168s-101 -68 -167 -68c-66.667 0 -122.667 22.667 -168 68s-68 101.333 -68 168z" />
    <glyph glyph-name="AE" unicode="&#xc6;" horiz-adv-x="2120" 
d="M559 621h12c120 2.66699 208.333 4 265 4c32 0 66.833 -0.333008 104.5 -1s87.167 -1.66699 148.5 -3l2 120c0.666992 10 1 16.333 1 19c0 242 -3.83301 402.167 -11.5 480.5s-21.167 117.5 -40.5 117.5s-128 -161.667 -326 -485zM1704 119
c72.667 0 127.83 9.33496 165.497 28.002s69.834 52.334 96.501 101.001c10 18 21 43.667 33 77c17.333 46.667 36.333 70 57 70c16 0 28.5 -8.5 37.5 -25.5s13.5 -40.5 13.5 -70.5c0 -80.667 -13.5 -154.834 -40.5 -222.501s-55.167 -101.5 -84.5 -101.5
c-4 0.666992 -12.333 2.66699 -25 6c-45.333 12.667 -90.666 19 -135.999 19h-713c-62 0 -105.833 4.83301 -131.5 14.5s-38.5 25.834 -38.5 48.501c0 19.333 21 35.666 63 48.999c24 8 41.333 15 52 21c13.333 8 22.833 31.333 28.5 70s8.5 105.334 8.5 200.001
c-0.666992 36.667 -2.16699 61.167 -4.5 73.5s-6.5 19.5 -12.5 21.5c-12 3.33301 -39.333 5.83301 -82 7.5s-111 2.5 -205 2.5h-90c-81.333 0 -136 -2.5 -164 -7.5s-47.667 -13.5 -59 -25.5c-10 -11.333 -22.167 -27.5 -36.5 -48.5s-29.5 -45.167 -45.5 -72.5
c-26.667 -44.667 -47 -81.5 -61 -110.5s-21 -49.5 -21 -61.5c0 -16 4 -28.5 12 -37.5s25 -17.5 51 -25.5l24 -7c50 -14 75 -33 75 -57c0 -24.667 -18.5 -42 -55.5 -52s-105.167 -15 -204.5 -15c-91.333 0 -155.166 5.16699 -191.499 15.5s-54.5 27.5 -54.5 51.5
c0 23.333 23.333 41.666 70 54.999c22 6 39.667 11.667 53 17c16 6.66699 38.5 29.5 67.5 68.5s78.167 114.5 147.5 226.5l498 795c10.667 18 19.5 36.5 26.5 55.5s10.5 33.833 10.5 44.5c0 16 -3.5 27.833 -10.5 35.5s-22.5 14.834 -46.5 21.501
c-4 1.33301 -9.33301 3 -16 5c-47.333 14 -71 31.667 -71 53s13.5 36.833 40.5 46.5s70.167 14.5 129.5 14.5h938c33.333 0 67.333 3.33301 102 10s52.667 10 54 10c27.333 0 48.833 -20.167 64.5 -60.5s23.5 -95.833 23.5 -166.5c0 -26.667 -4.83301 -47.334 -14.5 -62.001
s-23.167 -22 -40.5 -22s-36.666 19 -57.999 57l-16 27c-20.667 33.333 -44 56 -70 68s-66.333 18 -121 18h-262c-66.667 0 -111.834 -2.83301 -135.501 -8.5s-38.5 -15.834 -44.5 -30.501c-7.33301 -18.667 -12.5 -55.334 -15.5 -110.001s-4.5 -153.667 -4.5 -297v-29
c0 -26 2.5 -41.667 7.5 -47s17.5 -8 37.5 -8h270c46 0 78.333 7.33301 97 22s30.667 42 36 82c0.666992 4 1.33398 9 2.00098 15c9.33301 66.667 29.333 100 60 100c24.667 0 41.667 -16.333 51 -49s14 -109.334 14 -230.001c0 -119.333 -4.66699 -195.166 -14 -227.499
s-26.333 -48.5 -51 -48.5c-30.667 0 -50.667 33.333 -60 100c-0.666992 6 -1.33398 11 -2.00098 15c-5.33301 40 -17.333 67.333 -36 82s-51 22 -97 22h-268c-20.667 0 -34.334 -5.66699 -41.001 -17s-10 -35 -10 -71c0 -8.66699 0.333008 -26.5 1 -53.5s1 -50.167 1 -69.5
c0 -97.333 1.83301 -172.333 5.5 -225s9.83398 -89 18.501 -109c9.33301 -22 31 -37.667 65 -47s89.667 -14 167 -14h186z" />
    <glyph glyph-name="Ccedilla" unicode="&#xc7;" horiz-adv-x="1370" 
d="M821 -35c-80 0 -155.834 10.999 -227.501 32.999s-137.167 54 -196.5 96c-102 74 -179.667 168 -233 282s-80 244 -80 390c0 86.667 12.333 170 37 250s60 151.667 106 215c66.667 90 148.5 160 245.5 210s200.167 75 309.5 75c68 0 138.667 -9.66699 212 -29
s112.666 -29 117.999 -29c14 0 31.833 2.83301 53.5 8.5s35.834 8.5 42.501 8.5c29.333 0 53.833 -25 73.5 -75s29.5 -113.333 29.5 -190c0 -28 -4.83301 -49.667 -14.5 -65s-23.5 -23 -41.5 -23c-26 0 -49 24.333 -69 73c-13.333 32.667 -25.666 57 -36.999 73
c-32.667 45.333 -79.834 80.166 -141.501 104.499s-133.167 36.5 -214.5 36.5c-158 0 -282.167 -51.667 -372.5 -155s-135.5 -245.666 -135.5 -426.999c0 -92 10.833 -180.167 32.5 -264.5s52.5 -158.5 92.5 -222.5c53.333 -85.333 116 -148.666 188 -189.999
s155.333 -62 250 -62c70.667 0 135 11.667 193 35s105 56 141 98c12.667 15.333 27.667 36.333 45 63c24 37.333 44.333 56 61 56c15.333 0 27.333 -7.16699 36 -21.5s13 -33.833 13 -58.5c0 -48.667 -10.833 -93.167 -32.5 -133.5s-44.167 -60.5 -67.5 -60.5
c-2 0 -5.33301 0.666992 -10 2s-8 2 -10 2c-9.33301 0 -23 -5 -41 -15l-21 -10c-53.333 -27.333 -106.666 -47.5 -159.999 -60.5s-111.333 -19.5 -174 -19.5zM797.999 -0.000976562c-3.33301 -20.667 -5.83301 -38.8359 -7.5 -54.5029s-2.5 -30.167 -2.5 -43.5v-20
c14.667 3.33301 26.334 5.66602 35.001 6.99902s17.334 2 26.001 2c58 0 104 -15.667 138 -47s51 -73.666 51 -126.999c0 -59.333 -20.833 -104.166 -62.5 -134.499s-103.5 -45.5 -185.5 -45.5c-74.667 0 -135.334 8.83301 -182.001 26.5s-70 40.834 -70 69.501
c0 12.667 2.5 22 7.5 28s12.167 9 21.5 9c4 0 28.167 -7.83301 72.5 -23.5s87.166 -23.5 128.499 -23.5c48.667 0 84 7.5 106 22.5s33 38.833 33 71.5c0 30 -9.16699 53 -27.5 69s-44.833 24 -79.5 24c-10 0 -22.667 -1.16699 -38 -3.5s-25.666 -3.5 -30.999 -3.5
c-8.66699 0 -14.334 1.33301 -17.001 4s-4 9 -4 19c0 30 1.33301 59.333 4 88s7 57.334 13 86.001h71z" />
    <glyph glyph-name="Egrave" unicode="&#xc8;" horiz-adv-x="1241" 
d="M229 0c-61.333 0 -104.665 4.83496 -129.998 14.502s-38 25.834 -38 48.501c0 19.333 19.167 35.333 57.5 48s60.166 22.667 65.499 30c10.667 13.333 18.167 62 22.5 146s6.5 237.667 6.5 461c0 221.333 -2.16699 373.666 -6.5 456.999s-11.833 131.666 -22.5 144.999
c-5.33301 7.33301 -27.166 17.333 -65.499 30s-57.5 28.334 -57.5 47.001c0 23.333 13 40.166 39 50.499s69 15.5 129 15.5h695c33.333 0 67.166 3.33301 101.499 10s52.166 10 53.499 10c27.333 0 48.833 -20.167 64.5 -60.5s23.5 -95.833 23.5 -166.5
c0 -26.667 -4.5 -47.334 -13.5 -62.001s-22.167 -22 -39.5 -22s-36.666 19 -57.999 57c-6.66699 12 -12 21 -16 27c-20 33.333 -43.167 56 -69.5 68s-66.5 18 -120.5 18h-264c-63.333 0 -107.5 -2.83301 -132.5 -8.5s-40.167 -15.834 -45.5 -30.501
c-8.66699 -20.667 -14.667 -60.834 -18 -120.501s-5 -155.167 -5 -286.5v-17c0 -32 2.66699 -51.167 8 -57.5s18.333 -9.5 39 -9.5h270c46 0 78.5 7.33301 97.5 22s31.167 42.334 36.5 83.001l3 21c8 62 26.667 93 56 93c26 0 43.833 -17.167 53.5 -51.5
s14.5 -110.166 14.5 -227.499c0 -116.667 -4.83301 -191.834 -14.5 -225.501s-27.5 -50.5 -53.5 -50.5c-29.333 0 -48 30.667 -56 92l-3 22c-5.33301 40.667 -17.5 68.334 -36.5 83.001s-51.5 22 -97.5 22h-270c-19.333 0 -32.333 -5.16699 -39 -15.5s-10 -31.833 -10 -64.5
c0 -8 0.333008 -26.5 1 -55.5s1 -54.167 1 -75.5c0 -97.333 2 -172.333 6 -225s10.333 -89 19 -109c8.66699 -22 30.167 -37.667 64.5 -47s89.833 -14 166.5 -14h184c73.333 0 128.666 9.33301 165.999 28s69.333 52 96 100c10.667 19.333 22 45.333 34 78
c16.667 46.667 35.667 70 57 70c16 0 28.833 -8.66699 38.5 -26s14.5 -40.666 14.5 -69.999c0 -80.667 -13.667 -154.834 -41 -222.501s-55.333 -101.5 -84 -101.5c-3.33301 0 -12 2 -26 6c-46 12.667 -92 19 -138 19h-713zM474.001 1935l248.999 -190
c4 -3.33301 10 -8 18 -14c36 -26.667 54 -46.667 54 -60c0 -10 -5.16699 -20.333 -15.5 -31s-21.166 -16 -32.499 -16c-7.33301 0 -17 2.66699 -29 8s-29.333 15 -52 29l-287 168c-21.333 12.667 -35.5 23.167 -42.5 31.5s-10.5 17.5 -10.5 27.5
c0 18.667 8.16699 37.667 24.5 57s32.5 29 48.5 29c14 0 36.667 -11.333 68 -34c2.66699 -2 5 -3.66699 7 -5z" />
    <glyph glyph-name="Eacute" unicode="&#xc9;" horiz-adv-x="1241" 
d="M229 0c-61.333 0 -104.665 4.83496 -129.998 14.502s-38 25.834 -38 48.501c0 19.333 19.167 35.333 57.5 48s60.166 22.667 65.499 30c10.667 13.333 18.167 62 22.5 146s6.5 237.667 6.5 461c0 221.333 -2.16699 373.666 -6.5 456.999s-11.833 131.666 -22.5 144.999
c-5.33301 7.33301 -27.166 17.333 -65.499 30s-57.5 28.334 -57.5 47.001c0 23.333 13 40.166 39 50.499s69 15.5 129 15.5h695c33.333 0 67.166 3.33301 101.499 10s52.166 10 53.499 10c27.333 0 48.833 -20.167 64.5 -60.5s23.5 -95.833 23.5 -166.5
c0 -26.667 -4.5 -47.334 -13.5 -62.001s-22.167 -22 -39.5 -22s-36.666 19 -57.999 57c-6.66699 12 -12 21 -16 27c-20 33.333 -43.167 56 -69.5 68s-66.5 18 -120.5 18h-264c-63.333 0 -107.5 -2.83301 -132.5 -8.5s-40.167 -15.834 -45.5 -30.501
c-8.66699 -20.667 -14.667 -60.834 -18 -120.501s-5 -155.167 -5 -286.5v-17c0 -32 2.66699 -51.167 8 -57.5s18.333 -9.5 39 -9.5h270c46 0 78.5 7.33301 97.5 22s31.167 42.334 36.5 83.001l3 21c8 62 26.667 93 56 93c26 0 43.833 -17.167 53.5 -51.5
s14.5 -110.166 14.5 -227.499c0 -116.667 -4.83301 -191.834 -14.5 -225.501s-27.5 -50.5 -53.5 -50.5c-29.333 0 -48 30.667 -56 92l-3 22c-5.33301 40.667 -17.5 68.334 -36.5 83.001s-51.5 22 -97.5 22h-270c-19.333 0 -32.333 -5.16699 -39 -15.5s-10 -31.833 -10 -64.5
c0 -8 0.333008 -26.5 1 -55.5s1 -54.167 1 -75.5c0 -97.333 2 -172.333 6 -225s10.333 -89 19 -109c8.66699 -22 30.167 -37.667 64.5 -47s89.833 -14 166.5 -14h184c73.333 0 128.666 9.33301 165.999 28s69.333 52 96 100c10.667 19.333 22 45.333 34 78
c16.667 46.667 35.667 70 57 70c16 0 28.833 -8.66699 38.5 -26s14.5 -40.666 14.5 -69.999c0 -80.667 -13.667 -154.834 -41 -222.501s-55.333 -101.5 -84 -101.5c-3.33301 0 -12 2 -26 6c-46 12.667 -92 19 -138 19h-713zM805.001 1935
c22.667 16.667 38.832 27.332 48.499 31.999s18.834 7 27.501 7c16 0 31.833 -9.5 47.5 -28.5s23.5 -38.167 23.5 -57.5c0 -10.667 -3.5 -20.167 -10.5 -28.5s-20.5 -18.5 -40.5 -30.5l-289 -168c-22.667 -14 -40 -23.667 -52 -29s-22 -8 -30 -8
c-11.333 0 -22 5.33301 -32 16s-15 21 -15 31c0 12.667 17 31.667 51 57c9.33301 6.66699 17 12.334 23 17.001z" />
    <glyph glyph-name="Ecircumflex" unicode="&#xca;" horiz-adv-x="1241" 
d="M229 0c-61.333 0 -104.665 4.83496 -129.998 14.502s-38 25.834 -38 48.501c0 19.333 19.167 35.333 57.5 48s60.166 22.667 65.499 30c10.667 13.333 18.167 62 22.5 146s6.5 237.667 6.5 461c0 221.333 -2.16699 373.666 -6.5 456.999s-11.833 131.666 -22.5 144.999
c-5.33301 7.33301 -27.166 17.333 -65.499 30s-57.5 28.334 -57.5 47.001c0 23.333 13 40.166 39 50.499s69 15.5 129 15.5h695c33.333 0 67.166 3.33301 101.499 10s52.166 10 53.499 10c27.333 0 48.833 -20.167 64.5 -60.5s23.5 -95.833 23.5 -166.5
c0 -26.667 -4.5 -47.334 -13.5 -62.001s-22.167 -22 -39.5 -22s-36.666 19 -57.999 57c-6.66699 12 -12 21 -16 27c-20 33.333 -43.167 56 -69.5 68s-66.5 18 -120.5 18h-264c-63.333 0 -107.5 -2.83301 -132.5 -8.5s-40.167 -15.834 -45.5 -30.501
c-8.66699 -20.667 -14.667 -60.834 -18 -120.501s-5 -155.167 -5 -286.5v-17c0 -32 2.66699 -51.167 8 -57.5s18.333 -9.5 39 -9.5h270c46 0 78.5 7.33301 97.5 22s31.167 42.334 36.5 83.001l3 21c8 62 26.667 93 56 93c26 0 43.833 -17.167 53.5 -51.5
s14.5 -110.166 14.5 -227.499c0 -116.667 -4.83301 -191.834 -14.5 -225.501s-27.5 -50.5 -53.5 -50.5c-29.333 0 -48 30.667 -56 92l-3 22c-5.33301 40.667 -17.5 68.334 -36.5 83.001s-51.5 22 -97.5 22h-270c-19.333 0 -32.333 -5.16699 -39 -15.5s-10 -31.833 -10 -64.5
c0 -8 0.333008 -26.5 1 -55.5s1 -54.167 1 -75.5c0 -97.333 2 -172.333 6 -225s10.333 -89 19 -109c8.66699 -22 30.167 -37.667 64.5 -47s89.833 -14 166.5 -14h184c73.333 0 128.666 9.33301 165.999 28s69.333 52 96 100c10.667 19.333 22 45.333 34 78
c16.667 46.667 35.667 70 57 70c16 0 28.833 -8.66699 38.5 -26s14.5 -40.666 14.5 -69.999c0 -80.667 -13.667 -154.834 -41 -222.501s-55.333 -101.5 -84 -101.5c-3.33301 0 -12 2 -26 6c-46 12.667 -92 19 -138 19h-713zM641.001 1866l-160.002 -216.999
c-6 -9.33301 -11.5 -15.5 -16.5 -18.5s-12.5 -4.5 -22.5 -4.5h-18c-17.333 0 -29.166 1.66699 -35.499 5s-9.5 9.33301 -9.5 18c0 5.33301 0.833008 10.666 2.5 15.999s4.16699 10.666 7.5 15.999l139 248c9.33301 16.667 21 28 35 34s40.667 9 80 9c36 0 61 -3 75 -9
s26 -17.333 36 -34l139 -247c4 -6 7 -11.667 9 -17s3 -10.666 3 -15.999c0 -8.66699 -3.16699 -14.667 -9.5 -18s-18.166 -5 -35.499 -5h-18c-10 0 -17.5 1.5 -22.5 4.5s-11.167 8.83301 -18.5 17.5z" />
    <glyph glyph-name="Edieresis" unicode="&#xcb;" horiz-adv-x="1241" 
d="M229 0c-61.333 0 -104.665 4.83496 -129.998 14.502s-38 25.834 -38 48.501c0 19.333 19.167 35.333 57.5 48s60.166 22.667 65.499 30c10.667 13.333 18.167 62 22.5 146s6.5 237.667 6.5 461c0 221.333 -2.16699 373.666 -6.5 456.999s-11.833 131.666 -22.5 144.999
c-5.33301 7.33301 -27.166 17.333 -65.499 30s-57.5 28.334 -57.5 47.001c0 23.333 13 40.166 39 50.499s69 15.5 129 15.5h695c33.333 0 67.166 3.33301 101.499 10s52.166 10 53.499 10c27.333 0 48.833 -20.167 64.5 -60.5s23.5 -95.833 23.5 -166.5
c0 -26.667 -4.5 -47.334 -13.5 -62.001s-22.167 -22 -39.5 -22s-36.666 19 -57.999 57c-6.66699 12 -12 21 -16 27c-20 33.333 -43.167 56 -69.5 68s-66.5 18 -120.5 18h-264c-63.333 0 -107.5 -2.83301 -132.5 -8.5s-40.167 -15.834 -45.5 -30.501
c-8.66699 -20.667 -14.667 -60.834 -18 -120.501s-5 -155.167 -5 -286.5v-17c0 -32 2.66699 -51.167 8 -57.5s18.333 -9.5 39 -9.5h270c46 0 78.5 7.33301 97.5 22s31.167 42.334 36.5 83.001l3 21c8 62 26.667 93 56 93c26 0 43.833 -17.167 53.5 -51.5
s14.5 -110.166 14.5 -227.499c0 -116.667 -4.83301 -191.834 -14.5 -225.501s-27.5 -50.5 -53.5 -50.5c-29.333 0 -48 30.667 -56 92l-3 22c-5.33301 40.667 -17.5 68.334 -36.5 83.001s-51.5 22 -97.5 22h-270c-19.333 0 -32.333 -5.16699 -39 -15.5s-10 -31.833 -10 -64.5
c0 -8 0.333008 -26.5 1 -55.5s1 -54.167 1 -75.5c0 -97.333 2 -172.333 6 -225s10.333 -89 19 -109c8.66699 -22 30.167 -37.667 64.5 -47s89.833 -14 166.5 -14h184c73.333 0 128.666 9.33301 165.999 28s69.333 52 96 100c10.667 19.333 22 45.333 34 78
c16.667 46.667 35.667 70 57 70c16 0 28.833 -8.66699 38.5 -26s14.5 -40.666 14.5 -69.999c0 -80.667 -13.667 -154.834 -41 -222.501s-55.333 -101.5 -84 -101.5c-3.33301 0 -12 2 -26 6c-46 12.667 -92 19 -138 19h-713zM377.001 1776c0 30 10 55.167 30 75.5
s44.667 30.5 74 30.5s53.833 -9.16699 73.5 -27.5s29.5 -41.166 29.5 -68.499c0 -26.667 -10.667 -50.334 -32 -71.001s-46.333 -31 -75 -31c-27.333 0 -50.833 8.83301 -70.5 26.5s-29.5 39.5 -29.5 65.5zM698.001 1776c0 30 10.168 55.165 30.501 75.498
s45.166 30.5 74.499 30.5c28.667 0 52.5 -9.16699 71.5 -27.5s28.5 -41.166 28.5 -68.499s-10.333 -51.166 -31 -71.499s-45 -30.5 -73 -30.5s-51.833 8.83301 -71.5 26.5s-29.5 39.5 -29.5 65.5z" />
    <glyph glyph-name="Igrave" unicode="&#xcc;" horiz-adv-x="612" 
d="M305 1501c83.333 0 143.833 -5.83301 181.5 -17.5s56.5 -30.5 56.5 -56.5c0 -18.667 -19.5 -34.334 -58.5 -47.001s-61.167 -22.667 -66.5 -30c-10.667 -13.333 -18.167 -61.666 -22.5 -144.999s-6.5 -235.666 -6.5 -456.999c0 -223.333 2.16699 -377 6.5 -461
s11.833 -132.667 22.5 -146c5.33301 -7.33301 27.5 -17.333 66.5 -30s58.5 -28.667 58.5 -48c0 -24.667 -18.5 -42.667 -55.5 -54s-97.833 -17 -182.5 -17s-145.334 5.66699 -182.001 17s-55 29.333 -55 54c0 19.333 19.167 35.166 57.5 47.499s60.833 22.833 67.5 31.5
c10 12.667 17.167 61 21.5 145s6.5 237.667 6.5 461c0 221.333 -2.16699 373.666 -6.5 456.999s-11.5 131.333 -21.5 144c-6 8 -28.333 18.333 -67 31s-58 28.334 -58 47.001c0 26 18.833 44.833 56.5 56.5s97.834 17.5 180.501 17.5zM140 1935l248.999 -190
c4 -3.33301 10 -8 18 -14c36 -26.667 54 -46.667 54 -60c0 -10 -5.16699 -20.333 -15.5 -31s-21.166 -16 -32.499 -16c-7.33301 0 -17 2.66699 -29 8s-29.333 15 -52 29l-287 168c-21.333 12.667 -35.5 23.167 -42.5 31.5s-10.5 17.5 -10.5 27.5
c0 18.667 8.16699 37.667 24.5 57s32.5 29 48.5 29c14 0 36.667 -11.333 68 -34c2.66699 -2 5 -3.66699 7 -5z" />
    <glyph glyph-name="Iacute" unicode="&#xcd;" horiz-adv-x="612" 
d="M305 1501c83.333 0 143.833 -5.83301 181.5 -17.5s56.5 -30.5 56.5 -56.5c0 -18.667 -19.5 -34.334 -58.5 -47.001s-61.167 -22.667 -66.5 -30c-10.667 -13.333 -18.167 -61.666 -22.5 -144.999s-6.5 -235.666 -6.5 -456.999c0 -223.333 2.16699 -377 6.5 -461
s11.833 -132.667 22.5 -146c5.33301 -7.33301 27.5 -17.333 66.5 -30s58.5 -28.667 58.5 -48c0 -24.667 -18.5 -42.667 -55.5 -54s-97.833 -17 -182.5 -17s-145.334 5.66699 -182.001 17s-55 29.333 -55 54c0 19.333 19.167 35.166 57.5 47.499s60.833 22.833 67.5 31.5
c10 12.667 17.167 61 21.5 145s6.5 237.667 6.5 461c0 221.333 -2.16699 373.666 -6.5 456.999s-11.5 131.333 -21.5 144c-6 8 -28.333 18.333 -67 31s-58 28.334 -58 47.001c0 26 18.833 44.833 56.5 56.5s97.834 17.5 180.501 17.5zM471 1935
c22.667 16.667 38.832 27.332 48.499 31.999s18.834 7 27.501 7c16 0 31.833 -9.5 47.5 -28.5s23.5 -38.167 23.5 -57.5c0 -10.667 -3.5 -20.167 -10.5 -28.5s-20.5 -18.5 -40.5 -30.5l-289 -168c-22.667 -14 -40 -23.667 -52 -29s-22 -8 -30 -8
c-11.333 0 -22 5.33301 -32 16s-15 21 -15 31c0 12.667 17 31.667 51 57c9.33301 6.66699 17 12.334 23 17.001z" />
    <glyph glyph-name="Icircumflex" unicode="&#xce;" horiz-adv-x="612" 
d="M305 1501c83.333 0 143.833 -5.83301 181.5 -17.5s56.5 -30.5 56.5 -56.5c0 -18.667 -19.5 -34.334 -58.5 -47.001s-61.167 -22.667 -66.5 -30c-10.667 -13.333 -18.167 -61.666 -22.5 -144.999s-6.5 -235.666 -6.5 -456.999c0 -223.333 2.16699 -377 6.5 -461
s11.833 -132.667 22.5 -146c5.33301 -7.33301 27.5 -17.333 66.5 -30s58.5 -28.667 58.5 -48c0 -24.667 -18.5 -42.667 -55.5 -54s-97.833 -17 -182.5 -17s-145.334 5.66699 -182.001 17s-55 29.333 -55 54c0 19.333 19.167 35.166 57.5 47.499s60.833 22.833 67.5 31.5
c10 12.667 17.167 61 21.5 145s6.5 237.667 6.5 461c0 221.333 -2.16699 373.666 -6.5 456.999s-11.5 131.333 -21.5 144c-6 8 -28.333 18.333 -67 31s-58 28.334 -58 47.001c0 26 18.833 44.833 56.5 56.5s97.834 17.5 180.501 17.5zM307 1866l-160.002 -216.999
c-6 -9.33301 -11.5 -15.5 -16.5 -18.5s-12.5 -4.5 -22.5 -4.5h-18c-17.333 0 -29.166 1.66699 -35.499 5s-9.5 9.33301 -9.5 18c0 5.33301 0.833008 10.666 2.5 15.999s4.16699 10.666 7.5 15.999l139 248c9.33301 16.667 21 28 35 34s40.667 9 80 9c36 0 61 -3 75 -9
s26 -17.333 36 -34l139 -247c4 -6 7 -11.667 9 -17s3 -10.666 3 -15.999c0 -8.66699 -3.16699 -14.667 -9.5 -18s-18.166 -5 -35.499 -5h-18c-10 0 -17.5 1.5 -22.5 4.5s-11.167 8.83301 -18.5 17.5z" />
    <glyph glyph-name="Idieresis" unicode="&#xcf;" horiz-adv-x="612" 
d="M305 1501c83.333 0 143.833 -5.83301 181.5 -17.5s56.5 -30.5 56.5 -56.5c0 -18.667 -19.5 -34.334 -58.5 -47.001s-61.167 -22.667 -66.5 -30c-10.667 -13.333 -18.167 -61.666 -22.5 -144.999s-6.5 -235.666 -6.5 -456.999c0 -223.333 2.16699 -377 6.5 -461
s11.833 -132.667 22.5 -146c5.33301 -7.33301 27.5 -17.333 66.5 -30s58.5 -28.667 58.5 -48c0 -24.667 -18.5 -42.667 -55.5 -54s-97.833 -17 -182.5 -17s-145.334 5.66699 -182.001 17s-55 29.333 -55 54c0 19.333 19.167 35.166 57.5 47.499s60.833 22.833 67.5 31.5
c10 12.667 17.167 61 21.5 145s6.5 237.667 6.5 461c0 221.333 -2.16699 373.666 -6.5 456.999s-11.5 131.333 -21.5 144c-6 8 -28.333 18.333 -67 31s-58 28.334 -58 47.001c0 26 18.833 44.833 56.5 56.5s97.834 17.5 180.501 17.5zM43 1776c0 30 10 55.167 30 75.5
s44.667 30.5 74 30.5s53.833 -9.16699 73.5 -27.5s29.5 -41.166 29.5 -68.499c0 -26.667 -10.667 -50.334 -32 -71.001s-46.333 -31 -75 -31c-27.333 0 -50.833 8.83301 -70.5 26.5s-29.5 39.5 -29.5 65.5zM364 1776c0 30 10.168 55.165 30.501 75.498
s45.166 30.5 74.499 30.5c28.667 0 52.5 -9.16699 71.5 -27.5s28.5 -41.166 28.5 -68.499s-10.333 -51.166 -31 -71.499s-45 -30.5 -73 -30.5s-51.833 8.83301 -71.5 26.5s-29.5 39.5 -29.5 65.5z" />
    <glyph glyph-name="Eth" unicode="&#xd0;" horiz-adv-x="1567" 
d="M225 737l-153.003 0.00390625c-20 0 -35.333 4.66699 -46 14s-16 22.666 -16 39.999c0 16 5.33301 28.5 16 37.5s26 13.5 46 13.5h153v6c-4 314 -14 481 -30 501c-6.66699 8.66699 -29.167 19.167 -67.5 31.5s-57.5 27.833 -57.5 46.5c0 16 6.66699 29.167 20 39.5
s32 17.166 56 20.499c0.666992 0 4.66699 0.333008 12 1c150.667 8.66699 326 13 526 13c260 0 460.5 -67 601.5 -201s211.5 -324.333 211.5 -571c0 -238.667 -70.667 -420.834 -212 -546.501s-347 -188.5 -617 -188.5c-29.333 0 -74.166 1.33301 -134.499 4
s-106.5 4 -138.5 4c-25.333 0 -54.666 -0.333008 -87.999 -1s-54.333 -1 -63 -1c-64 0 -109 4.83301 -135 14.5s-39 25.834 -39 48.501c0 9.33301 4.33301 18 13 26s21 15 37 21c5.33301 2 12.333 4.33301 21 7c36.667 11.333 57.334 25.666 62.001 42.999
c6 22.667 11.167 87.167 15.5 193.5s6.5 234.166 6.5 383.499zM396.997 737.004c0 -5.33301 0.333008 -13.667 1 -25c4 -306.667 10 -477.667 18 -513c8 -34.667 31.333 -58.334 70 -71.001s110.667 -19 216 -19c198 0 345.5 51.333 442.5 154s145.5 258 145.5 466
c0 220 -50.333 384.5 -151 493.5s-253 163.5 -457 163.5c-84 0 -146.5 -3.5 -187.5 -10.5s-64.5 -18.5 -70.5 -34.5c-8.66699 -21.333 -15 -66.5 -19 -135.5s-6.33301 -190.167 -7 -363.5h360c19.333 0 34.333 -4.5 45 -13.5s16 -21.5 16 -37.5
c0 -17.333 -5.16699 -30.666 -15.5 -39.999s-24.833 -14 -43.5 -14h-363z" />
    <glyph glyph-name="Ntilde" unicode="&#xd1;" horiz-adv-x="1569" 
d="M322 1227l-0.000976562 -479.002c0 -198.667 2.33301 -346 7 -442s12.334 -150.667 23.001 -164c6 -8 28.333 -18.333 67 -31s58 -28.667 58 -48c0 -24 -16.167 -41.5 -48.5 -52.5s-85.166 -16.5 -158.499 -16.5c-74 0 -127.667 5.5 -161 16.5s-50 28.5 -50 52.5
c0 19.333 19.5 35.333 58.5 48s61.167 22.667 66.5 30c10.667 13.333 18.167 62 22.5 146s6.5 237.667 6.5 461c0 221.333 -2.16699 373.666 -6.5 456.999s-11.833 131.666 -22.5 144.999c-5.33301 7.33301 -27.5 17.333 -66.5 30s-58.5 28.334 -58.5 47.001
c0 23.333 14.333 40.833 43 52.5s70.334 17.5 125.001 17.5c42.667 0 75.334 -5 98.001 -15s44.667 -29.667 66 -59l71 -95c265.333 -360 538.666 -710.667 819.999 -1052v469c0 238.667 -2.16699 395.834 -6.5 471.501s-11.833 120.167 -22.5 133.5
c-5.33301 7.33301 -27.5 17.333 -66.5 30s-58.5 28.334 -58.5 47.001c0 24.667 16.5 42.5 49.5 53.5s86.167 16.5 159.5 16.5c74 0 127.333 -5.5 160 -16.5s49 -28.833 49 -53.5c0 -8.66699 -4.16699 -16.667 -12.5 -24s-21.166 -14.333 -38.499 -21l-20 -6
c-36.667 -11.333 -57.334 -25.666 -62.001 -42.999c-7.33301 -26 -12.833 -122 -16.5 -288s-5.5 -395 -5.5 -687v-286c0 -40 -3.33301 -64.333 -10 -73s-18.334 -13 -35.001 -13c-22.667 0 -42.334 5 -59.001 15s-41 34.333 -73 73l-350.5 444.5zM906.999 1700
c-30 0 -71.167 8.16699 -123.5 24.5s-88.833 24.5 -109.5 24.5c-26.667 0 -47.5 -11.167 -62.5 -33.5s-26.167 -33.5 -33.5 -33.5c-14 0 -25 2.16699 -33 6.5s-12 10.166 -12 17.499c0 35.333 17.5 71.833 52.5 109.5s74.833 56.5 119.5 56.5
c24 0 61.333 -8.16699 112 -24.5s89.667 -24.5 117 -24.5c30.667 0 53.5 11.167 68.5 33.5s26.167 33.5 33.5 33.5c19.333 0 31.666 -1.66699 36.999 -5s8 -9.66602 8 -18.999c0 -40.667 -17.667 -78.5 -53 -113.5s-75.666 -52.5 -120.999 -52.5z" />
    <glyph glyph-name="Ograve" unicode="&#xd2;" horiz-adv-x="1636" 
d="M838 -41c-85.333 0 -166.5 12.498 -243.5 37.498s-146.833 61.5 -209.5 109.5c-95.333 74 -169.666 168.833 -222.999 284.5s-80 240.834 -80 375.501c0 87.333 12.167 170.333 36.5 249s59.833 150.667 106.5 216c65.333 92 150 163.5 254 214.5s218 76.5 342 76.5
c85.333 0 166 -13.333 242 -40s145.667 -66 209 -118c88.667 -72.667 157.5 -166 206.5 -280s73.5 -237 73.5 -369c0 -89.333 -11.333 -173.333 -34 -252s-56.334 -149.667 -101.001 -213c-64.667 -93.333 -147 -165.166 -247 -215.499s-210.667 -75.5 -332 -75.5z
M1352 656.998c0 88.667 -10.6689 173.834 -32.002 255.501s-51.666 153.5 -90.999 215.5c-57.333 91.333 -125.5 161 -204.5 209s-164.5 72 -256.5 72c-146.667 0 -264.167 -53 -352.5 -159s-132.5 -247.667 -132.5 -425c0 -89.333 10.833 -175.833 32.5 -259.5
s53.167 -158.834 94.5 -225.501c52.667 -88 117 -154.667 193 -200s161.667 -68 257 -68c150.667 0 270.334 52.5 359.001 157.5s133 247.5 133 427.5zM651.998 1935l248.999 -190c4 -3.33301 10 -8 18 -14c36 -26.667 54 -46.667 54 -60c0 -10 -5.16699 -20.333 -15.5 -31
s-21.166 -16 -32.499 -16c-7.33301 0 -17 2.66699 -29 8s-29.333 15 -52 29l-287 168c-21.333 12.667 -35.5 23.167 -42.5 31.5s-10.5 17.5 -10.5 27.5c0 18.667 8.16699 37.667 24.5 57s32.5 29 48.5 29c14 0 36.667 -11.333 68 -34c2.66699 -2 5 -3.66699 7 -5z" />
    <glyph glyph-name="Oacute" unicode="&#xd3;" horiz-adv-x="1636" 
d="M838 -41c-85.333 0 -166.5 12.498 -243.5 37.498s-146.833 61.5 -209.5 109.5c-95.333 74 -169.666 168.833 -222.999 284.5s-80 240.834 -80 375.501c0 87.333 12.167 170.333 36.5 249s59.833 150.667 106.5 216c65.333 92 150 163.5 254 214.5s218 76.5 342 76.5
c85.333 0 166 -13.333 242 -40s145.667 -66 209 -118c88.667 -72.667 157.5 -166 206.5 -280s73.5 -237 73.5 -369c0 -89.333 -11.333 -173.333 -34 -252s-56.334 -149.667 -101.001 -213c-64.667 -93.333 -147 -165.166 -247 -215.499s-210.667 -75.5 -332 -75.5z
M1352 656.998c0 88.667 -10.6689 173.834 -32.002 255.501s-51.666 153.5 -90.999 215.5c-57.333 91.333 -125.5 161 -204.5 209s-164.5 72 -256.5 72c-146.667 0 -264.167 -53 -352.5 -159s-132.5 -247.667 -132.5 -425c0 -89.333 10.833 -175.833 32.5 -259.5
s53.167 -158.834 94.5 -225.501c52.667 -88 117 -154.667 193 -200s161.667 -68 257 -68c150.667 0 270.334 52.5 359.001 157.5s133 247.5 133 427.5zM982.998 1935c22.667 16.667 38.832 27.332 48.499 31.999s18.834 7 27.501 7c16 0 31.833 -9.5 47.5 -28.5
s23.5 -38.167 23.5 -57.5c0 -10.667 -3.5 -20.167 -10.5 -28.5s-20.5 -18.5 -40.5 -30.5l-289 -168c-22.667 -14 -40 -23.667 -52 -29s-22 -8 -30 -8c-11.333 0 -22 5.33301 -32 16s-15 21 -15 31c0 12.667 17 31.667 51 57c9.33301 6.66699 17 12.334 23 17.001z" />
    <glyph glyph-name="Ocircumflex" unicode="&#xd4;" horiz-adv-x="1636" 
d="M838 -41c-85.333 0 -166.5 12.498 -243.5 37.498s-146.833 61.5 -209.5 109.5c-95.333 74 -169.666 168.833 -222.999 284.5s-80 240.834 -80 375.501c0 87.333 12.167 170.333 36.5 249s59.833 150.667 106.5 216c65.333 92 150 163.5 254 214.5s218 76.5 342 76.5
c85.333 0 166 -13.333 242 -40s145.667 -66 209 -118c88.667 -72.667 157.5 -166 206.5 -280s73.5 -237 73.5 -369c0 -89.333 -11.333 -173.333 -34 -252s-56.334 -149.667 -101.001 -213c-64.667 -93.333 -147 -165.166 -247 -215.499s-210.667 -75.5 -332 -75.5z
M1352 656.998c0 88.667 -10.6689 173.834 -32.002 255.501s-51.666 153.5 -90.999 215.5c-57.333 91.333 -125.5 161 -204.5 209s-164.5 72 -256.5 72c-146.667 0 -264.167 -53 -352.5 -159s-132.5 -247.667 -132.5 -425c0 -89.333 10.833 -175.833 32.5 -259.5
s53.167 -158.834 94.5 -225.501c52.667 -88 117 -154.667 193 -200s161.667 -68 257 -68c150.667 0 270.334 52.5 359.001 157.5s133 247.5 133 427.5zM818.998 1866l-160.002 -216.999c-6 -9.33301 -11.5 -15.5 -16.5 -18.5s-12.5 -4.5 -22.5 -4.5h-18
c-17.333 0 -29.166 1.66699 -35.499 5s-9.5 9.33301 -9.5 18c0 5.33301 0.833008 10.666 2.5 15.999s4.16699 10.666 7.5 15.999l139 248c9.33301 16.667 21 28 35 34s40.667 9 80 9c36 0 61 -3 75 -9s26 -17.333 36 -34l139 -247c4 -6 7 -11.667 9 -17s3 -10.666 3 -15.999
c0 -8.66699 -3.16699 -14.667 -9.5 -18s-18.166 -5 -35.499 -5h-18c-10 0 -17.5 1.5 -22.5 4.5s-11.167 8.83301 -18.5 17.5z" />
    <glyph glyph-name="Otilde" unicode="&#xd5;" horiz-adv-x="1636" 
d="M838 -41c-85.333 0 -166.5 12.498 -243.5 37.498s-146.833 61.5 -209.5 109.5c-95.333 74 -169.666 168.833 -222.999 284.5s-80 240.834 -80 375.501c0 87.333 12.167 170.333 36.5 249s59.833 150.667 106.5 216c65.333 92 150 163.5 254 214.5s218 76.5 342 76.5
c85.333 0 166 -13.333 242 -40s145.667 -66 209 -118c88.667 -72.667 157.5 -166 206.5 -280s73.5 -237 73.5 -369c0 -89.333 -11.333 -173.333 -34 -252s-56.334 -149.667 -101.001 -213c-64.667 -93.333 -147 -165.166 -247 -215.499s-210.667 -75.5 -332 -75.5z
M1352 656.998c0 88.667 -10.6689 173.834 -32.002 255.501s-51.666 153.5 -90.999 215.5c-57.333 91.333 -125.5 161 -204.5 209s-164.5 72 -256.5 72c-146.667 0 -264.167 -53 -352.5 -159s-132.5 -247.667 -132.5 -425c0 -89.333 10.833 -175.833 32.5 -259.5
s53.167 -158.834 94.5 -225.501c52.667 -88 117 -154.667 193 -200s161.667 -68 257 -68c150.667 0 270.334 52.5 359.001 157.5s133 247.5 133 427.5zM918.998 1700c-30 0 -71.167 8.16699 -123.5 24.5s-88.833 24.5 -109.5 24.5c-26.667 0 -47.5 -11.167 -62.5 -33.5
s-26.167 -33.5 -33.5 -33.5c-14 0 -25 2.16699 -33 6.5s-12 10.166 -12 17.499c0 35.333 17.5 71.833 52.5 109.5s74.833 56.5 119.5 56.5c24 0 61.333 -8.16699 112 -24.5s89.667 -24.5 117 -24.5c30.667 0 53.5 11.167 68.5 33.5s26.167 33.5 33.5 33.5
c19.333 0 31.666 -1.66699 36.999 -5s8 -9.66602 8 -18.999c0 -40.667 -17.667 -78.5 -53 -113.5s-75.666 -52.5 -120.999 -52.5z" />
    <glyph glyph-name="Odieresis" unicode="&#xd6;" horiz-adv-x="1636" 
d="M838 -41c-85.333 0 -166.5 12.498 -243.5 37.498s-146.833 61.5 -209.5 109.5c-95.333 74 -169.666 168.833 -222.999 284.5s-80 240.834 -80 375.501c0 87.333 12.167 170.333 36.5 249s59.833 150.667 106.5 216c65.333 92 150 163.5 254 214.5s218 76.5 342 76.5
c85.333 0 166 -13.333 242 -40s145.667 -66 209 -118c88.667 -72.667 157.5 -166 206.5 -280s73.5 -237 73.5 -369c0 -89.333 -11.333 -173.333 -34 -252s-56.334 -149.667 -101.001 -213c-64.667 -93.333 -147 -165.166 -247 -215.499s-210.667 -75.5 -332 -75.5z
M1352 656.998c0 88.667 -10.6689 173.834 -32.002 255.501s-51.666 153.5 -90.999 215.5c-57.333 91.333 -125.5 161 -204.5 209s-164.5 72 -256.5 72c-146.667 0 -264.167 -53 -352.5 -159s-132.5 -247.667 -132.5 -425c0 -89.333 10.833 -175.833 32.5 -259.5
s53.167 -158.834 94.5 -225.501c52.667 -88 117 -154.667 193 -200s161.667 -68 257 -68c150.667 0 270.334 52.5 359.001 157.5s133 247.5 133 427.5zM554.998 1776c0 30 10 55.167 30 75.5s44.667 30.5 74 30.5s53.833 -9.16699 73.5 -27.5s29.5 -41.166 29.5 -68.499
c0 -26.667 -10.667 -50.334 -32 -71.001s-46.333 -31 -75 -31c-27.333 0 -50.833 8.83301 -70.5 26.5s-29.5 39.5 -29.5 65.5zM875.998 1776c0 30 10.168 55.165 30.501 75.498s45.166 30.5 74.499 30.5c28.667 0 52.5 -9.16699 71.5 -27.5s28.5 -41.166 28.5 -68.499
s-10.333 -51.166 -31 -71.499s-45 -30.5 -73 -30.5s-51.833 8.83301 -71.5 26.5s-29.5 39.5 -29.5 65.5z" />
    <glyph glyph-name="multiply" unicode="&#xd7;" horiz-adv-x="1706" 
d="M381 1169l477 -477l475 477l82 -82l-475 -477l475 -475l-82 -82l-475 475l-477 -475l-80 82l475 475l-475 477z" />
    <glyph glyph-name="Oslash" unicode="&#xd8;" horiz-adv-x="1636" 
d="M508 211c47.333 -45.333 100.999 -79.834 160.999 -103.501s123.667 -35.5 191 -35.5c150.667 0 270.334 52.167 359.001 156.5s133 245.833 133 424.5c0 102 -13.333 197.333 -40 286s-66.667 170.334 -120 245.001zM439.999 290.999l680 972.999
c-53.333 48 -109 83.833 -167 107.5s-119.667 35.5 -185 35.5c-146 0 -263.333 -52.5 -352 -157.5s-133 -245.167 -133 -420.5c0 -101.333 13.5 -198.166 40.5 -290.499s65.833 -174.833 116.5 -247.5zM419.999 81.998l-177.999 -251.999
c-14.667 -19.333 -27.5 -32.333 -38.5 -39s-24.167 -10 -39.5 -10c-16.667 0 -29 2.66699 -37 8s-12 13.666 -12 24.999c0 4 0.833008 8.33301 2.5 13s4.16699 9.66699 7.5 15l213 308c-82 73.333 -145.167 163 -189.5 269s-66.5 220.333 -66.5 343
c0 87.333 12 170.666 36 249.999s59.667 152.333 107 219c65.333 92 150 163.5 254 214.5s218 76.5 342 76.5c72.667 0 141.834 -9.83301 207.501 -29.5s128.5 -48.834 188.5 -87.501l163 229c14.667 19.333 27.5 32.333 38.5 39s24.167 10 39.5 10
c16.667 0 28.667 -2.5 36 -7.5s11 -13.167 11 -24.5c0 -4.66699 -0.666992 -9.16699 -2 -13.5s-3.33301 -8.83301 -6 -13.5l-197 -285c83.333 -82.667 146.166 -176.667 188.499 -282s63.5 -219.333 63.5 -342c0 -89.333 -11.333 -173.333 -34 -252
s-56.334 -149.667 -101.001 -213c-64.667 -93.333 -146.667 -165.166 -246 -215.499s-209 -75.5 -329 -75.5c-78.667 0 -153.667 10.333 -225 31s-137 51.334 -197 92.001z" />
    <glyph glyph-name="Ugrave" unicode="&#xd9;" horiz-adv-x="1460" 
d="M1292 702c0 -136.667 -5.1709 -240.666 -15.5039 -311.999s-27.5 -131.666 -51.5 -180.999c-38.667 -78.667 -99.334 -139.667 -182.001 -183s-180.334 -65 -293.001 -65c-120.667 0 -221.5 19.667 -302.5 59s-145.5 99.666 -193.5 180.999
c-23.333 38 -40.166 89.5 -50.499 154.5s-15.5 156.167 -15.5 273.5c0 34.667 0.333008 80.834 1 138.501s1 98.167 1 121.5c0 165.333 -2 280.333 -6 345s-10.667 103 -20 115c-6 8.66699 -28.333 19.167 -67 31.5s-58 27.833 -58 46.5c0 26 18.833 44.833 56.5 56.5
s97.834 17.5 180.501 17.5c83.333 0 143.833 -5.83301 181.5 -17.5s56.5 -30.5 56.5 -56.5c0 -18.667 -19 -34.334 -57 -47.001s-60 -23 -66 -31c-10.667 -12.667 -19.167 -71.334 -25.5 -176.001s-9.5 -245 -9.5 -421c0 -146.667 6.33301 -261.834 19 -345.501
s33 -146.834 61 -189.501c33.333 -50 78.333 -88.5 135 -115.5s122.334 -40.5 197.001 -40.5c86 0 158.833 18.333 218.5 55s106.834 92.334 141.501 167.001c14.667 32 25.5 89 32.5 171s10.5 193.333 10.5 334v130c0 167.333 -1.66699 279 -5 335
s-9.66602 90.333 -18.999 103c-6 7.33301 -28.333 16.833 -67 28.5s-58 26.834 -58 45.501c0 24 16.833 41.833 50.5 53.5s85.834 17.5 156.501 17.5c72.667 0 126 -5.66699 160 -17s51 -29.333 51 -54c0 -18.667 -16.5 -33 -49.5 -43s-54.167 -17.667 -63.5 -23
c-13.333 -8 -22.833 -36.5 -28.5 -85.5s-8.5 -135.833 -8.5 -260.5c0 -58 0.333008 -122 1 -192s1 -111.333 1 -124zM588.996 1935l248.999 -190c4 -3.33301 10 -8 18 -14c36 -26.667 54 -46.667 54 -60c0 -10 -5.16699 -20.333 -15.5 -31s-21.166 -16 -32.499 -16
c-7.33301 0 -17 2.66699 -29 8s-29.333 15 -52 29l-287 168c-21.333 12.667 -35.5 23.167 -42.5 31.5s-10.5 17.5 -10.5 27.5c0 18.667 8.16699 37.667 24.5 57s32.5 29 48.5 29c14 0 36.667 -11.333 68 -34c2.66699 -2 5 -3.66699 7 -5z" />
    <glyph glyph-name="Uacute" unicode="&#xda;" horiz-adv-x="1460" 
d="M1292 702c0 -136.667 -5.1709 -240.666 -15.5039 -311.999s-27.5 -131.666 -51.5 -180.999c-38.667 -78.667 -99.334 -139.667 -182.001 -183s-180.334 -65 -293.001 -65c-120.667 0 -221.5 19.667 -302.5 59s-145.5 99.666 -193.5 180.999
c-23.333 38 -40.166 89.5 -50.499 154.5s-15.5 156.167 -15.5 273.5c0 34.667 0.333008 80.834 1 138.501s1 98.167 1 121.5c0 165.333 -2 280.333 -6 345s-10.667 103 -20 115c-6 8.66699 -28.333 19.167 -67 31.5s-58 27.833 -58 46.5c0 26 18.833 44.833 56.5 56.5
s97.834 17.5 180.501 17.5c83.333 0 143.833 -5.83301 181.5 -17.5s56.5 -30.5 56.5 -56.5c0 -18.667 -19 -34.334 -57 -47.001s-60 -23 -66 -31c-10.667 -12.667 -19.167 -71.334 -25.5 -176.001s-9.5 -245 -9.5 -421c0 -146.667 6.33301 -261.834 19 -345.501
s33 -146.834 61 -189.501c33.333 -50 78.333 -88.5 135 -115.5s122.334 -40.5 197.001 -40.5c86 0 158.833 18.333 218.5 55s106.834 92.334 141.501 167.001c14.667 32 25.5 89 32.5 171s10.5 193.333 10.5 334v130c0 167.333 -1.66699 279 -5 335
s-9.66602 90.333 -18.999 103c-6 7.33301 -28.333 16.833 -67 28.5s-58 26.834 -58 45.501c0 24 16.833 41.833 50.5 53.5s85.834 17.5 156.501 17.5c72.667 0 126 -5.66699 160 -17s51 -29.333 51 -54c0 -18.667 -16.5 -33 -49.5 -43s-54.167 -17.667 -63.5 -23
c-13.333 -8 -22.833 -36.5 -28.5 -85.5s-8.5 -135.833 -8.5 -260.5c0 -58 0.333008 -122 1 -192s1 -111.333 1 -124zM919.996 1935c22.667 16.667 38.832 27.332 48.499 31.999s18.834 7 27.501 7c16 0 31.833 -9.5 47.5 -28.5s23.5 -38.167 23.5 -57.5
c0 -10.667 -3.5 -20.167 -10.5 -28.5s-20.5 -18.5 -40.5 -30.5l-289 -168c-22.667 -14 -40 -23.667 -52 -29s-22 -8 -30 -8c-11.333 0 -22 5.33301 -32 16s-15 21 -15 31c0 12.667 17 31.667 51 57c9.33301 6.66699 17 12.334 23 17.001z" />
    <glyph glyph-name="Ucircumflex" unicode="&#xdb;" horiz-adv-x="1460" 
d="M1292 702c0 -136.667 -5.1709 -240.666 -15.5039 -311.999s-27.5 -131.666 -51.5 -180.999c-38.667 -78.667 -99.334 -139.667 -182.001 -183s-180.334 -65 -293.001 -65c-120.667 0 -221.5 19.667 -302.5 59s-145.5 99.666 -193.5 180.999
c-23.333 38 -40.166 89.5 -50.499 154.5s-15.5 156.167 -15.5 273.5c0 34.667 0.333008 80.834 1 138.501s1 98.167 1 121.5c0 165.333 -2 280.333 -6 345s-10.667 103 -20 115c-6 8.66699 -28.333 19.167 -67 31.5s-58 27.833 -58 46.5c0 26 18.833 44.833 56.5 56.5
s97.834 17.5 180.501 17.5c83.333 0 143.833 -5.83301 181.5 -17.5s56.5 -30.5 56.5 -56.5c0 -18.667 -19 -34.334 -57 -47.001s-60 -23 -66 -31c-10.667 -12.667 -19.167 -71.334 -25.5 -176.001s-9.5 -245 -9.5 -421c0 -146.667 6.33301 -261.834 19 -345.501
s33 -146.834 61 -189.501c33.333 -50 78.333 -88.5 135 -115.5s122.334 -40.5 197.001 -40.5c86 0 158.833 18.333 218.5 55s106.834 92.334 141.501 167.001c14.667 32 25.5 89 32.5 171s10.5 193.333 10.5 334v130c0 167.333 -1.66699 279 -5 335
s-9.66602 90.333 -18.999 103c-6 7.33301 -28.333 16.833 -67 28.5s-58 26.834 -58 45.501c0 24 16.833 41.833 50.5 53.5s85.834 17.5 156.501 17.5c72.667 0 126 -5.66699 160 -17s51 -29.333 51 -54c0 -18.667 -16.5 -33 -49.5 -43s-54.167 -17.667 -63.5 -23
c-13.333 -8 -22.833 -36.5 -28.5 -85.5s-8.5 -135.833 -8.5 -260.5c0 -58 0.333008 -122 1 -192s1 -111.333 1 -124zM755.996 1866l-160.002 -216.999c-6 -9.33301 -11.5 -15.5 -16.5 -18.5s-12.5 -4.5 -22.5 -4.5h-18c-17.333 0 -29.166 1.66699 -35.499 5
s-9.5 9.33301 -9.5 18c0 5.33301 0.833008 10.666 2.5 15.999s4.16699 10.666 7.5 15.999l139 248c9.33301 16.667 21 28 35 34s40.667 9 80 9c36 0 61 -3 75 -9s26 -17.333 36 -34l139 -247c4 -6 7 -11.667 9 -17s3 -10.666 3 -15.999
c0 -8.66699 -3.16699 -14.667 -9.5 -18s-18.166 -5 -35.499 -5h-18c-10 0 -17.5 1.5 -22.5 4.5s-11.167 8.83301 -18.5 17.5z" />
    <glyph glyph-name="Udieresis" unicode="&#xdc;" horiz-adv-x="1460" 
d="M1292 702c0 -136.667 -5.1709 -240.666 -15.5039 -311.999s-27.5 -131.666 -51.5 -180.999c-38.667 -78.667 -99.334 -139.667 -182.001 -183s-180.334 -65 -293.001 -65c-120.667 0 -221.5 19.667 -302.5 59s-145.5 99.666 -193.5 180.999
c-23.333 38 -40.166 89.5 -50.499 154.5s-15.5 156.167 -15.5 273.5c0 34.667 0.333008 80.834 1 138.501s1 98.167 1 121.5c0 165.333 -2 280.333 -6 345s-10.667 103 -20 115c-6 8.66699 -28.333 19.167 -67 31.5s-58 27.833 -58 46.5c0 26 18.833 44.833 56.5 56.5
s97.834 17.5 180.501 17.5c83.333 0 143.833 -5.83301 181.5 -17.5s56.5 -30.5 56.5 -56.5c0 -18.667 -19 -34.334 -57 -47.001s-60 -23 -66 -31c-10.667 -12.667 -19.167 -71.334 -25.5 -176.001s-9.5 -245 -9.5 -421c0 -146.667 6.33301 -261.834 19 -345.501
s33 -146.834 61 -189.501c33.333 -50 78.333 -88.5 135 -115.5s122.334 -40.5 197.001 -40.5c86 0 158.833 18.333 218.5 55s106.834 92.334 141.501 167.001c14.667 32 25.5 89 32.5 171s10.5 193.333 10.5 334v130c0 167.333 -1.66699 279 -5 335
s-9.66602 90.333 -18.999 103c-6 7.33301 -28.333 16.833 -67 28.5s-58 26.834 -58 45.501c0 24 16.833 41.833 50.5 53.5s85.834 17.5 156.501 17.5c72.667 0 126 -5.66699 160 -17s51 -29.333 51 -54c0 -18.667 -16.5 -33 -49.5 -43s-54.167 -17.667 -63.5 -23
c-13.333 -8 -22.833 -36.5 -28.5 -85.5s-8.5 -135.833 -8.5 -260.5c0 -58 0.333008 -122 1 -192s1 -111.333 1 -124zM491.996 1776c0 30 10 55.167 30 75.5s44.667 30.5 74 30.5s53.833 -9.16699 73.5 -27.5s29.5 -41.166 29.5 -68.499
c0 -26.667 -10.667 -50.334 -32 -71.001s-46.333 -31 -75 -31c-27.333 0 -50.833 8.83301 -70.5 26.5s-29.5 39.5 -29.5 65.5zM812.996 1776c0 30 10.168 55.165 30.501 75.498s45.166 30.5 74.499 30.5c28.667 0 52.5 -9.16699 71.5 -27.5s28.5 -41.166 28.5 -68.499
s-10.333 -51.166 -31 -71.499s-45 -30.5 -73 -30.5s-51.833 8.83301 -71.5 26.5s-29.5 39.5 -29.5 65.5z" />
    <glyph glyph-name="Yacute" unicode="&#xdd;" horiz-adv-x="1251" 
d="M727 573c0 -136 2.33496 -238.67 7.00195 -308.003s12 -110.666 22 -123.999c5.33301 -7.33301 27.166 -17.333 65.499 -30s57.5 -28.667 57.5 -48c0 -25.333 -18.333 -43.5 -55 -54.5s-97 -16.5 -181 -16.5c-84.667 0 -145.334 5.66699 -182.001 17s-55 29.333 -55 54
c0 19.333 19 35.333 57 48s60 23 66 31c9.33301 12.667 16.333 53.334 21 122.001s7 171 7 307v146l-261.5 416c-69.667 106 -116.834 172 -141.501 198c-18 18.667 -44 35.667 -78 51s-51 30.333 -51 45c0 26 18.833 44.833 56.5 56.5s97.834 17.5 180.501 17.5
c82 0 142.167 -5.66699 180.5 -17s57.5 -28.666 57.5 -51.999c0 -10.667 -4.16699 -19.834 -12.5 -27.501s-21.5 -14.5 -39.5 -20.5c-2.66699 -0.666992 -6.33398 -1.66699 -11.001 -3c-33.333 -10.667 -50 -26 -50 -46c0 -21.333 24.167 -75.5 72.5 -162.5
s117.833 -201.5 208.5 -343.5c101.333 166 174 288.833 218 368.5s66 128.167 66 145.5c0 18.667 -17 34.334 -51 47.001s-51 28 -51 46c0 22 17.333 38.333 52 49s88.334 16 161.001 16c66.667 0 115.667 -5.5 147 -16.5s47 -27.833 47 -50.5c0 -16 -17 -31 -51 -45
s-57 -25.667 -69 -35c-40 -30.667 -170.333 -227.667 -391 -591l-19 -32v-158zM791.002 1935c22.667 16.667 38.832 27.332 48.499 31.999s18.834 7 27.501 7c16 0 31.833 -9.5 47.5 -28.5s23.5 -38.167 23.5 -57.5c0 -10.667 -3.5 -20.167 -10.5 -28.5
s-20.5 -18.5 -40.5 -30.5l-289 -168c-22.667 -14 -40 -23.667 -52 -29s-22 -8 -30 -8c-11.333 0 -22 5.33301 -32 16s-15 21 -15 31c0 12.667 17 31.667 51 57c9.33301 6.66699 17 12.334 23 17.001z" />
    <glyph glyph-name="Thorn" unicode="&#xde;" horiz-adv-x="1133" 
d="M389 1182c29.333 2.66699 58.998 4.66406 88.998 5.99707s61 2 93 2c188.667 0 329 -32 421 -96s138 -161 138 -291c0 -136 -52.333 -240.667 -157 -314s-254.334 -110 -449.001 -110h-73c-27.333 0 -44.833 -3.33301 -52.5 -10s-11.5 -19.667 -11.5 -39
c0 -63.333 2.66699 -110 8 -140s14.333 -49 27 -57c10.667 -6 27.334 -13 50.001 -21c42 -13.333 63 -29.666 63 -48.999c0 -24.667 -18.5 -42.667 -55.5 -54s-97.833 -17 -182.5 -17c-82 0 -141.833 5.5 -179.5 16.5s-56.5 28.5 -56.5 52.5c0 20 16.5 35.5 49.5 46.5
s54.167 19.5 63.5 25.5c14.667 9.33301 24.834 47.166 30.501 113.499s8.5 231.833 8.5 496.5c0 222.667 -2.16699 375.834 -6.5 459.501s-11.833 132.167 -22.5 145.5c-5.33301 7.33301 -27.166 17.5 -65.499 30.5s-57.5 30.167 -57.5 51.5c0 24 18.833 41.5 56.5 52.5
s97.5 16.5 179.5 16.5c82.667 0 143 -5.83301 181 -17.5s57 -30.5 57 -56.5c0 -18 -19.667 -33.333 -59 -46c-16.667 -5.33301 -28.667 -9.66602 -36 -12.999c-31.333 -15.333 -48 -61.666 -50 -138.999c0 -18.667 -0.333008 -33.667 -1 -45zM386.998 489.997
c20.667 -5.33301 40.167 -9.16797 58.5 -11.501s35.833 -3.5 52.5 -3.5c142.667 0 249.667 25.833 321 77.5s107 128.834 107 231.501c0 99.333 -29.333 173.333 -88 222s-147.667 73 -267 73c-41.333 0 -77.833 -1.66699 -109.5 -5s-50.167 -7 -55.5 -11
c-8.66699 -6.66699 -15 -29 -19 -67s-6 -97 -6 -177c0 -52 0.5 -105.333 1.5 -160s2.5 -111 4.5 -169z" />
    <glyph glyph-name="germandbls" unicode="&#xdf;" horiz-adv-x="1100" 
d="M791 1145c0 86 -23.001 155.665 -69.001 208.998s-105.667 80 -179 80c-86 0 -145.833 -30.167 -179.5 -90.5s-50.5 -190.166 -50.5 -389.499c0 -23.333 1.5 -129.666 4.5 -318.999s4.5 -367 4.5 -533c0 -40.667 -10 -68.5 -30 -83.5s-56.667 -22.5 -110 -22.5
c-48 0 -84.5 4.83301 -109.5 14.5s-37.5 23.834 -37.5 42.501c0 24 15.167 40.833 45.5 50.5s49.166 17.5 56.499 23.5c11.333 8.66699 19.333 33.834 24 75.501s7 128.5 7 260.5v80c0 112 -1 228.167 -3 348.5s-3 184.166 -3 191.499c0 146 31.167 255 93.5 327
s156.833 108 283.5 108c122.667 0 221.834 -31.167 297.501 -93.5s113.5 -143.166 113.5 -242.499c0 -60.667 -14.833 -117 -44.5 -169s-71.5 -94.667 -125.5 -128c-17.333 -10.667 -38.666 -21.167 -63.999 -31.5s-38 -18.5 -38 -24.5c0 -8 14.667 -16.667 44 -26
c16.667 -4.66699 29.667 -8.66699 39 -12c92.667 -32 161.334 -79.333 206.001 -142s67 -142.334 67 -239.001c0 -126 -43.333 -227.5 -130 -304.5s-201.667 -115.5 -345 -115.5c-52 0 -89.5 4.83301 -112.5 14.5s-34.5 25.167 -34.5 46.5c0 14.667 6 26.167 18 34.5
s28.333 12.5 49 12.5c10.667 0 25.667 -0.666992 45 -2s33.666 -2 42.999 -2c95.333 0 168 25.833 218 77.5s75 126.167 75 223.5c0 74 -16 138.5 -48 193.5s-80.667 101.833 -146 140.5c-18.667 10.667 -51 23 -97 37s-69 33.667 -69 59c0 24.667 24.333 45 73 61
c20.667 6.66699 37 12.334 49 17.001c56.667 21.333 99 52.166 127 92.499s42 90.166 42 149.499z" />
    <glyph glyph-name="agrave" unicode="&#xe0;" horiz-adv-x="1073" 
d="M739 608c0.666992 8 1.16602 16.333 1.49902 25s0.5 21.667 0.5 39c0 102 -16 175.167 -48 219.5s-84 66.5 -156 66.5c-36.667 0 -69.667 -7 -99 -21s-56.666 -35.667 -81.999 -65l-24 -31c-33.333 -47.333 -67 -71 -101 -71c-20.667 0 -37.334 6.33301 -50.001 19
s-19 29.667 -19 51c0 49.333 38.167 95.666 114.5 138.999s163.833 65 262.5 65c123.333 0 214.5 -30.667 273.5 -92s88.5 -156.666 88.5 -285.999c0 -37.333 -0.666992 -87 -2 -149s-2 -105.333 -2 -130c0 -121.333 3.16699 -198.5 9.5 -231.5s17.5 -49.5 33.5 -49.5
c6.66699 0 15.167 1.16699 25.5 3.5s16.833 3.5 19.5 3.5c9.33301 0 16.5 -2.83301 21.5 -8.5s7.5 -13.167 7.5 -22.5c0 -23.333 -15.333 -47 -46 -71s-62.667 -36 -96 -36c-39.333 0 -82.333 42.667 -129 128l-10 18h-14c-46 -46 -94.667 -80 -146 -102s-108 -33 -170 -33
c-98.667 0 -177.5 26.667 -236.5 80s-88.5 125 -88.5 215c0 106.667 39.167 190 117.5 250s187.833 90 328.5 90c35.333 0 70.833 -1.16699 106.5 -3.5s71.834 -5.5 108.501 -9.5zM738.999 520c-35.333 6 -67.834 10.333 -97.501 13s-57.167 4 -82.5 4
c-101.333 0 -178.166 -20.667 -230.499 -62s-78.5 -101.333 -78.5 -180c0 -65.333 18.5 -116.5 55.5 -153.5s88.167 -55.5 153.5 -55.5c83.333 0 150.833 25.833 202.5 77.5s77.5 120.167 77.5 205.5v151zM369.998 1470l248.999 -190c4 -3.33301 10 -8 18 -14
c36 -26.667 54 -46.667 54 -60c0 -10 -5.16699 -20.333 -15.5 -31s-21.166 -16 -32.499 -16c-7.33301 0 -17 2.66699 -29 8s-29.333 15 -52 29l-287 168c-21.333 12.667 -35.5 23.167 -42.5 31.5s-10.5 17.5 -10.5 27.5c0 18.667 8.16699 37.667 24.5 57s32.5 29 48.5 29
c14 0 36.667 -11.333 68 -34c2.66699 -2 5 -3.66699 7 -5z" />
    <glyph glyph-name="aacute" unicode="&#xe1;" horiz-adv-x="1073" 
d="M739 608c0.666992 8 1.16602 16.333 1.49902 25s0.5 21.667 0.5 39c0 102 -16 175.167 -48 219.5s-84 66.5 -156 66.5c-36.667 0 -69.667 -7 -99 -21s-56.666 -35.667 -81.999 -65l-24 -31c-33.333 -47.333 -67 -71 -101 -71c-20.667 0 -37.334 6.33301 -50.001 19
s-19 29.667 -19 51c0 49.333 38.167 95.666 114.5 138.999s163.833 65 262.5 65c123.333 0 214.5 -30.667 273.5 -92s88.5 -156.666 88.5 -285.999c0 -37.333 -0.666992 -87 -2 -149s-2 -105.333 -2 -130c0 -121.333 3.16699 -198.5 9.5 -231.5s17.5 -49.5 33.5 -49.5
c6.66699 0 15.167 1.16699 25.5 3.5s16.833 3.5 19.5 3.5c9.33301 0 16.5 -2.83301 21.5 -8.5s7.5 -13.167 7.5 -22.5c0 -23.333 -15.333 -47 -46 -71s-62.667 -36 -96 -36c-39.333 0 -82.333 42.667 -129 128l-10 18h-14c-46 -46 -94.667 -80 -146 -102s-108 -33 -170 -33
c-98.667 0 -177.5 26.667 -236.5 80s-88.5 125 -88.5 215c0 106.667 39.167 190 117.5 250s187.833 90 328.5 90c35.333 0 70.833 -1.16699 106.5 -3.5s71.834 -5.5 108.501 -9.5zM738.999 520c-35.333 6 -67.834 10.333 -97.501 13s-57.167 4 -82.5 4
c-101.333 0 -178.166 -20.667 -230.499 -62s-78.5 -101.333 -78.5 -180c0 -65.333 18.5 -116.5 55.5 -153.5s88.167 -55.5 153.5 -55.5c83.333 0 150.833 25.833 202.5 77.5s77.5 120.167 77.5 205.5v151zM700.998 1470c22.667 16.667 38.832 27.332 48.499 31.999
s18.834 7 27.501 7c16 0 31.833 -9.5 47.5 -28.5s23.5 -38.167 23.5 -57.5c0 -10.667 -3.5 -20.167 -10.5 -28.5s-20.5 -18.5 -40.5 -30.5l-289 -168c-22.667 -14 -40 -23.667 -52 -29s-22 -8 -30 -8c-11.333 0 -22 5.33301 -32 16s-15 21 -15 31c0 12.667 17 31.667 51 57
c9.33301 6.66699 17 12.334 23 17.001z" />
    <glyph glyph-name="acircumflex" unicode="&#xe2;" horiz-adv-x="1073" 
d="M739 608c0.666992 8 1.16602 16.333 1.49902 25s0.5 21.667 0.5 39c0 102 -16 175.167 -48 219.5s-84 66.5 -156 66.5c-36.667 0 -69.667 -7 -99 -21s-56.666 -35.667 -81.999 -65l-24 -31c-33.333 -47.333 -67 -71 -101 -71c-20.667 0 -37.334 6.33301 -50.001 19
s-19 29.667 -19 51c0 49.333 38.167 95.666 114.5 138.999s163.833 65 262.5 65c123.333 0 214.5 -30.667 273.5 -92s88.5 -156.666 88.5 -285.999c0 -37.333 -0.666992 -87 -2 -149s-2 -105.333 -2 -130c0 -121.333 3.16699 -198.5 9.5 -231.5s17.5 -49.5 33.5 -49.5
c6.66699 0 15.167 1.16699 25.5 3.5s16.833 3.5 19.5 3.5c9.33301 0 16.5 -2.83301 21.5 -8.5s7.5 -13.167 7.5 -22.5c0 -23.333 -15.333 -47 -46 -71s-62.667 -36 -96 -36c-39.333 0 -82.333 42.667 -129 128l-10 18h-14c-46 -46 -94.667 -80 -146 -102s-108 -33 -170 -33
c-98.667 0 -177.5 26.667 -236.5 80s-88.5 125 -88.5 215c0 106.667 39.167 190 117.5 250s187.833 90 328.5 90c35.333 0 70.833 -1.16699 106.5 -3.5s71.834 -5.5 108.501 -9.5zM738.999 520c-35.333 6 -67.834 10.333 -97.501 13s-57.167 4 -82.5 4
c-101.333 0 -178.166 -20.667 -230.499 -62s-78.5 -101.333 -78.5 -180c0 -65.333 18.5 -116.5 55.5 -153.5s88.167 -55.5 153.5 -55.5c83.333 0 150.833 25.833 202.5 77.5s77.5 120.167 77.5 205.5v151zM536.998 1401l-160.002 -216.999
c-6 -9.33301 -11.5 -15.5 -16.5 -18.5s-12.5 -4.5 -22.5 -4.5h-18c-17.333 0 -29.166 1.66699 -35.499 5s-9.5 9.33301 -9.5 18c0 5.33301 0.833008 10.666 2.5 15.999s4.16699 10.666 7.5 15.999l139 248c9.33301 16.667 21 28 35 34s40.667 9 80 9c36 0 61 -3 75 -9
s26 -17.333 36 -34l139 -247c4 -6 7 -11.667 9 -17s3 -10.666 3 -15.999c0 -8.66699 -3.16699 -14.667 -9.5 -18s-18.166 -5 -35.499 -5h-18c-10 0 -17.5 1.5 -22.5 4.5s-11.167 8.83301 -18.5 17.5z" />
    <glyph glyph-name="atilde" unicode="&#xe3;" horiz-adv-x="1073" 
d="M739 608c0.666992 8 1.16602 16.333 1.49902 25s0.5 21.667 0.5 39c0 102 -16 175.167 -48 219.5s-84 66.5 -156 66.5c-36.667 0 -69.667 -7 -99 -21s-56.666 -35.667 -81.999 -65l-24 -31c-33.333 -47.333 -67 -71 -101 -71c-20.667 0 -37.334 6.33301 -50.001 19
s-19 29.667 -19 51c0 49.333 38.167 95.666 114.5 138.999s163.833 65 262.5 65c123.333 0 214.5 -30.667 273.5 -92s88.5 -156.666 88.5 -285.999c0 -37.333 -0.666992 -87 -2 -149s-2 -105.333 -2 -130c0 -121.333 3.16699 -198.5 9.5 -231.5s17.5 -49.5 33.5 -49.5
c6.66699 0 15.167 1.16699 25.5 3.5s16.833 3.5 19.5 3.5c9.33301 0 16.5 -2.83301 21.5 -8.5s7.5 -13.167 7.5 -22.5c0 -23.333 -15.333 -47 -46 -71s-62.667 -36 -96 -36c-39.333 0 -82.333 42.667 -129 128l-10 18h-14c-46 -46 -94.667 -80 -146 -102s-108 -33 -170 -33
c-98.667 0 -177.5 26.667 -236.5 80s-88.5 125 -88.5 215c0 106.667 39.167 190 117.5 250s187.833 90 328.5 90c35.333 0 70.833 -1.16699 106.5 -3.5s71.834 -5.5 108.501 -9.5zM738.999 520c-35.333 6 -67.834 10.333 -97.501 13s-57.167 4 -82.5 4
c-101.333 0 -178.166 -20.667 -230.499 -62s-78.5 -101.333 -78.5 -180c0 -65.333 18.5 -116.5 55.5 -153.5s88.167 -55.5 153.5 -55.5c83.333 0 150.833 25.833 202.5 77.5s77.5 120.167 77.5 205.5v151zM636.998 1235c-30 0 -71.167 8.16699 -123.5 24.5
s-88.833 24.5 -109.5 24.5c-26.667 0 -47.5 -11.167 -62.5 -33.5s-26.167 -33.5 -33.5 -33.5c-14 0 -25 2.16699 -33 6.5s-12 10.166 -12 17.499c0 35.333 17.5 71.833 52.5 109.5s74.833 56.5 119.5 56.5c24 0 61.333 -8.16699 112 -24.5s89.667 -24.5 117 -24.5
c30.667 0 53.5 11.167 68.5 33.5s26.167 33.5 33.5 33.5c19.333 0 31.666 -1.66699 36.999 -5s8 -9.66602 8 -18.999c0 -40.667 -17.667 -78.5 -53 -113.5s-75.666 -52.5 -120.999 -52.5z" />
    <glyph glyph-name="adieresis" unicode="&#xe4;" horiz-adv-x="1073" 
d="M739 608c0.666992 8 1.16602 16.333 1.49902 25s0.5 21.667 0.5 39c0 102 -16 175.167 -48 219.5s-84 66.5 -156 66.5c-36.667 0 -69.667 -7 -99 -21s-56.666 -35.667 -81.999 -65l-24 -31c-33.333 -47.333 -67 -71 -101 -71c-20.667 0 -37.334 6.33301 -50.001 19
s-19 29.667 -19 51c0 49.333 38.167 95.666 114.5 138.999s163.833 65 262.5 65c123.333 0 214.5 -30.667 273.5 -92s88.5 -156.666 88.5 -285.999c0 -37.333 -0.666992 -87 -2 -149s-2 -105.333 -2 -130c0 -121.333 3.16699 -198.5 9.5 -231.5s17.5 -49.5 33.5 -49.5
c6.66699 0 15.167 1.16699 25.5 3.5s16.833 3.5 19.5 3.5c9.33301 0 16.5 -2.83301 21.5 -8.5s7.5 -13.167 7.5 -22.5c0 -23.333 -15.333 -47 -46 -71s-62.667 -36 -96 -36c-39.333 0 -82.333 42.667 -129 128l-10 18h-14c-46 -46 -94.667 -80 -146 -102s-108 -33 -170 -33
c-98.667 0 -177.5 26.667 -236.5 80s-88.5 125 -88.5 215c0 106.667 39.167 190 117.5 250s187.833 90 328.5 90c35.333 0 70.833 -1.16699 106.5 -3.5s71.834 -5.5 108.501 -9.5zM738.999 520c-35.333 6 -67.834 10.333 -97.501 13s-57.167 4 -82.5 4
c-101.333 0 -178.166 -20.667 -230.499 -62s-78.5 -101.333 -78.5 -180c0 -65.333 18.5 -116.5 55.5 -153.5s88.167 -55.5 153.5 -55.5c83.333 0 150.833 25.833 202.5 77.5s77.5 120.167 77.5 205.5v151zM272.998 1311c0 30 10 55.167 30 75.5s44.667 30.5 74 30.5
s53.833 -9.16699 73.5 -27.5s29.5 -41.166 29.5 -68.499c0 -26.667 -10.667 -50.334 -32 -71.001s-46.333 -31 -75 -31c-27.333 0 -50.833 8.83301 -70.5 26.5s-29.5 39.5 -29.5 65.5zM593.998 1311c0 30 10.168 55.165 30.501 75.498s45.166 30.5 74.499 30.5
c28.667 0 52.5 -9.16699 71.5 -27.5s28.5 -41.166 28.5 -68.499s-10.333 -51.166 -31 -71.499s-45 -30.5 -73 -30.5s-51.833 8.83301 -71.5 26.5s-29.5 39.5 -29.5 65.5z" />
    <glyph glyph-name="aring" unicode="&#xe5;" horiz-adv-x="1073" 
d="M391 1356c0 -40 13.833 -73.667 41.5 -101s61.834 -41 102.501 -41c40 0 73.833 13.667 101.5 41s41.5 61 41.5 101s-14 74.167 -42 102.5s-61.667 42.5 -101 42.5c-40.667 0 -74.834 -14 -102.501 -42s-41.5 -62.333 -41.5 -103zM287 1358c0 69.333 23.833 128 71.5 176
s106.5 72 176.5 72c69.333 0 127.833 -24 175.5 -72s71.5 -106.667 71.5 -176c0 -70 -23.833 -128.833 -71.5 -176.5s-106.167 -71.5 -175.5 -71.5c-70 0 -128.833 23.833 -176.5 71.5s-71.5 106.5 -71.5 176.5zM739 520c-35.333 6 -67.834 10.333 -97.501 13
s-57.167 4 -82.5 4c-101.333 0 -178.166 -20.667 -230.499 -62s-78.5 -101.333 -78.5 -180c0 -65.333 18.5 -116.5 55.5 -153.5s88.167 -55.5 153.5 -55.5c83.333 0 150.833 25.833 202.5 77.5s77.5 120.167 77.5 205.5v151zM738.999 602
c0.666992 8 1.16699 17.002 1.5 27.002s0.5 23.667 0.5 41c0 103.333 -15.833 177.166 -47.5 221.499s-83.834 66.5 -156.501 66.5c-36.667 0 -69.667 -7 -99 -21s-56.666 -35.667 -81.999 -65l-24 -31c-33.333 -47.333 -67 -71 -101 -71
c-20.667 0 -37.334 6.33301 -50.001 19s-19 29.667 -19 51c0 49.333 38.167 95.666 114.5 138.999s163.833 65 262.5 65c123.333 0 214.5 -30.667 273.5 -92s88.5 -156.666 88.5 -285.999c0 -37.333 -0.666992 -87 -2 -149s-2 -105.333 -2 -130
c0 -121.333 3.16699 -198.5 9.5 -231.5s17.5 -49.5 33.5 -49.5c6.66699 0 15.167 1.16699 25.5 3.5s16.833 3.5 19.5 3.5c9.33301 0 16.5 -2.83301 21.5 -8.5s7.5 -13.167 7.5 -22.5c0 -23.333 -15.333 -47 -46 -71s-62.667 -36 -96 -36c-39.333 0 -82.333 42.667 -129 128
l-10 18h-14c-46 -46 -94.667 -80 -146 -102s-108 -33 -170 -33c-97.333 0 -175.833 26.667 -235.5 80s-89.5 122.666 -89.5 207.999c0 107.333 39.167 190.833 117.5 250.5s187.833 89.5 328.5 89.5c35.333 0 70.833 -1 106.5 -3s71.834 -5 108.501 -9z" />
    <glyph glyph-name="ae" unicode="&#xe6;" horiz-adv-x="1630" 
d="M741 211c-42.667 -72 -95.165 -127.167 -157.498 -165.5s-130.5 -57.5 -204.5 -57.5c-88 0 -160.167 26.833 -216.5 80.5s-84.5 122.167 -84.5 205.5c0 106.667 39 189.667 117 249s187 89 327 89c30 0 59.167 -0.833008 87.5 -2.5s55.833 -4.16699 82.5 -7.5
c0.666992 7.33301 1.16699 15.666 1.5 24.999s0.5 23 0.5 41c0 98 -14.167 170.5 -42.5 217.5s-72.166 70.5 -131.499 70.5c-32 0 -61 -6.66699 -87 -20s-51.667 -34.666 -77 -63.999l-24 -31c-33.333 -47.333 -67 -71 -101 -71c-20.667 0 -37.334 6.33301 -50.001 19
s-19 29.667 -19 51c0 47.333 37.333 93.666 112 138.999s156.667 68 246 68c62.667 0 119 -13.333 169 -40s92 -66 126 -118c48.667 51.333 102.167 90.5 160.5 117.5s119.5 40.5 183.5 40.5c118.667 0 214.5 -36.333 287.5 -109s109.5 -168.334 109.5 -287.001
c0 -39.333 -4.33301 -65.166 -13 -77.499s-33 -18.5 -73 -18.5h-583c-14 0 -23.333 -2.66699 -28 -8s-7 -15.666 -7 -30.999c0 -118.667 31.5 -218.667 94.5 -300s139.5 -122 229.5 -122c44.667 0 86.334 8.83301 125.001 26.5s76 45.167 112 82.5
c6.66699 6.66699 15.667 16.334 27 29.001c31.333 34 56.666 51 75.999 51c10.667 0 19.334 -3.33301 26.001 -10s10 -15.667 10 -27c0 -15.333 -4.16699 -31.833 -12.5 -49.5s-20.5 -35.5 -36.5 -53.5c-48.667 -54.667 -103.334 -96.334 -164.001 -125.001
s-124.667 -43 -192 -43c-84.667 0 -162.334 20.5 -233.001 61.5s-128.334 99.167 -173.001 174.5zM893.002 633h463c15.333 0 25.666 3 30.999 9s8 17.333 8 34c0 80 -24.333 146.667 -73 200s-109.667 80 -183 80c-36 0 -72.333 -9.16699 -109 -27.5
s-68.667 -43.833 -96 -76.5c-23.333 -28 -42.166 -59.833 -56.499 -95.5s-21.5 -67.167 -21.5 -94.5c0 -10.667 2.5 -18.167 7.5 -22.5s14.833 -6.5 29.5 -6.5zM692.002 520c-43.333 6 -74 10 -92 12s-32.333 3 -43 3c-101.333 0 -177.833 -20.167 -229.5 -60.5
s-77.5 -100.166 -77.5 -179.499c0 -62.667 16.833 -111.834 50.5 -147.501s79.5 -53.5 137.5 -53.5c74 0 134.833 25.333 182.5 76s71.5 117 71.5 199v151z" />
    <glyph glyph-name="ccedilla" unicode="&#xe7;" horiz-adv-x="1028" 
d="M907 700c-22.667 0 -42.333 7.33887 -59 22.0059s-35 43 -55 85c-24.667 51.333 -52.334 88.666 -83.001 111.999s-68 35 -112 35c-105.333 0 -188 -36.833 -248 -110.5s-90 -175.834 -90 -306.501c0 -128.667 34.333 -234.334 103 -317.001s156 -124 262 -124
c34 0 67.833 5.66699 101.5 17s66.5 28.333 98.5 51c16.667 11.333 39.667 31.833 69 61.5s53 44.5 71 44.5c11.333 0 20.666 -3.66699 27.999 -11s11 -17.333 11 -30c0 -14.667 -5.16699 -31.334 -15.5 -50.001s-25.166 -38 -44.499 -58
c-46 -48.667 -99.833 -85.5 -161.5 -110.5s-128.5 -37.5 -200.5 -37.5c-149.333 0 -270.666 48.667 -363.999 146s-140 223.666 -140 378.999c0 158 49.5 289.333 148.5 394s222.833 157 371.5 157c108 0 201.5 -26.333 280.5 -79s118.5 -110.334 118.5 -173.001
c0 -28 -8.5 -51.167 -25.5 -69.5s-38.5 -27.5 -64.5 -27.5zM577.001 0.00585938c-3.33301 -20.667 -5.83301 -38.8359 -7.5 -54.5029s-2.5 -30.167 -2.5 -43.5v-20c14.667 3.33301 26.334 5.66602 35.001 6.99902s17.334 2 26.001 2c58 0 104 -15.667 138 -47
s51 -73.666 51 -126.999c0 -59.333 -20.833 -104.166 -62.5 -134.499s-103.5 -45.5 -185.5 -45.5c-74.667 0 -135.334 8.83301 -182.001 26.5s-70 40.834 -70 69.501c0 12.667 2.5 22 7.5 28s12.167 9 21.5 9c4 0 28.167 -7.83301 72.5 -23.5s87.166 -23.5 128.499 -23.5
c48.667 0 84 7.5 106 22.5s33 38.833 33 71.5c0 30 -9.16699 53 -27.5 69s-44.833 24 -79.5 24c-10 0 -22.667 -1.16699 -38 -3.5s-25.666 -3.5 -30.999 -3.5c-8.66699 0 -14.334 1.33301 -17.001 4s-4 9 -4 19c0 30 1.33301 59.333 4 88s7 57.334 13 86.001h71z" />
    <glyph glyph-name="egrave" unicode="&#xe8;" horiz-adv-x="1085" 
d="M299 641l506 0.000976562c15.333 0 25.666 2.83301 30.999 8.5s8 16.5 8 32.5c0 78 -26.333 142.833 -79 194.5s-119.334 77.5 -200.001 77.5c-42.667 0 -83.167 -9.33301 -121.5 -28s-72.166 -45.334 -101.499 -80.001c-23.333 -28 -42.166 -58.333 -56.499 -91
s-21.5 -61 -21.5 -85c0 -10.667 2.5 -18.167 7.5 -22.5s14.167 -6.5 27.5 -6.5zM926 555.001l-630.997 0.00292969c-13.333 0 -22.5 -2.66699 -27.5 -8s-7.5 -15.666 -7.5 -30.999c0 -124.667 33 -226.834 99 -306.501s150.333 -119.5 253 -119.5
c40 0 78.833 6.66699 116.5 20s71.834 32.666 102.501 57.999c16 12.667 38.167 35 66.5 67s52.166 48 71.499 48c11.333 0 20.666 -3.5 27.999 -10.5s11 -15.833 11 -26.5c0 -14.667 -4.5 -30.834 -13.5 -48.501s-21.833 -35.834 -38.5 -54.501
c-50 -55.333 -107.833 -97.5 -173.5 -126.5s-136.167 -43.5 -211.5 -43.5c-142.667 0 -260.834 49.5 -354.501 148.5s-140.5 223.833 -140.5 374.5c0 160 49 292.5 147 397.5s221 157.5 369 157.5c128 0 229.667 -36 305 -108s113 -169.333 113 -292
c0 -40 -4.33301 -66 -13 -78s-32.334 -18 -71.001 -18zM408.003 1470l248.999 -190c4 -3.33301 10 -8 18 -14c36 -26.667 54 -46.667 54 -60c0 -10 -5.16699 -20.333 -15.5 -31s-21.166 -16 -32.499 -16c-7.33301 0 -17 2.66699 -29 8s-29.333 15 -52 29l-287 168
c-21.333 12.667 -35.5 23.167 -42.5 31.5s-10.5 17.5 -10.5 27.5c0 18.667 8.16699 37.667 24.5 57s32.5 29 48.5 29c14 0 36.667 -11.333 68 -34c2.66699 -2 5 -3.66699 7 -5z" />
    <glyph glyph-name="eacute" unicode="&#xe9;" horiz-adv-x="1085" 
d="M299 641l506 0.000976562c15.333 0 25.666 2.83301 30.999 8.5s8 16.5 8 32.5c0 78 -26.333 142.833 -79 194.5s-119.334 77.5 -200.001 77.5c-42.667 0 -83.167 -9.33301 -121.5 -28s-72.166 -45.334 -101.499 -80.001c-23.333 -28 -42.166 -58.333 -56.499 -91
s-21.5 -61 -21.5 -85c0 -10.667 2.5 -18.167 7.5 -22.5s14.167 -6.5 27.5 -6.5zM926 555.001l-630.997 0.00292969c-13.333 0 -22.5 -2.66699 -27.5 -8s-7.5 -15.666 -7.5 -30.999c0 -124.667 33 -226.834 99 -306.501s150.333 -119.5 253 -119.5
c40 0 78.833 6.66699 116.5 20s71.834 32.666 102.501 57.999c16 12.667 38.167 35 66.5 67s52.166 48 71.499 48c11.333 0 20.666 -3.5 27.999 -10.5s11 -15.833 11 -26.5c0 -14.667 -4.5 -30.834 -13.5 -48.501s-21.833 -35.834 -38.5 -54.501
c-50 -55.333 -107.833 -97.5 -173.5 -126.5s-136.167 -43.5 -211.5 -43.5c-142.667 0 -260.834 49.5 -354.501 148.5s-140.5 223.833 -140.5 374.5c0 160 49 292.5 147 397.5s221 157.5 369 157.5c128 0 229.667 -36 305 -108s113 -169.333 113 -292
c0 -40 -4.33301 -66 -13 -78s-32.334 -18 -71.001 -18zM739.003 1470c22.667 16.667 38.832 27.332 48.499 31.999s18.834 7 27.501 7c16 0 31.833 -9.5 47.5 -28.5s23.5 -38.167 23.5 -57.5c0 -10.667 -3.5 -20.167 -10.5 -28.5s-20.5 -18.5 -40.5 -30.5l-289 -168
c-22.667 -14 -40 -23.667 -52 -29s-22 -8 -30 -8c-11.333 0 -22 5.33301 -32 16s-15 21 -15 31c0 12.667 17 31.667 51 57c9.33301 6.66699 17 12.334 23 17.001z" />
    <glyph glyph-name="ecircumflex" unicode="&#xea;" horiz-adv-x="1085" 
d="M299 641l506 0.000976562c15.333 0 25.666 2.83301 30.999 8.5s8 16.5 8 32.5c0 78 -26.333 142.833 -79 194.5s-119.334 77.5 -200.001 77.5c-42.667 0 -83.167 -9.33301 -121.5 -28s-72.166 -45.334 -101.499 -80.001c-23.333 -28 -42.166 -58.333 -56.499 -91
s-21.5 -61 -21.5 -85c0 -10.667 2.5 -18.167 7.5 -22.5s14.167 -6.5 27.5 -6.5zM926 555.001l-630.997 0.00292969c-13.333 0 -22.5 -2.66699 -27.5 -8s-7.5 -15.666 -7.5 -30.999c0 -124.667 33 -226.834 99 -306.501s150.333 -119.5 253 -119.5
c40 0 78.833 6.66699 116.5 20s71.834 32.666 102.501 57.999c16 12.667 38.167 35 66.5 67s52.166 48 71.499 48c11.333 0 20.666 -3.5 27.999 -10.5s11 -15.833 11 -26.5c0 -14.667 -4.5 -30.834 -13.5 -48.501s-21.833 -35.834 -38.5 -54.501
c-50 -55.333 -107.833 -97.5 -173.5 -126.5s-136.167 -43.5 -211.5 -43.5c-142.667 0 -260.834 49.5 -354.501 148.5s-140.5 223.833 -140.5 374.5c0 160 49 292.5 147 397.5s221 157.5 369 157.5c128 0 229.667 -36 305 -108s113 -169.333 113 -292
c0 -40 -4.33301 -66 -13 -78s-32.334 -18 -71.001 -18zM575.003 1401l-160.002 -216.999c-6 -9.33301 -11.5 -15.5 -16.5 -18.5s-12.5 -4.5 -22.5 -4.5h-18c-17.333 0 -29.166 1.66699 -35.499 5s-9.5 9.33301 -9.5 18c0 5.33301 0.833008 10.666 2.5 15.999
s4.16699 10.666 7.5 15.999l139 248c9.33301 16.667 21 28 35 34s40.667 9 80 9c36 0 61 -3 75 -9s26 -17.333 36 -34l139 -247c4 -6 7 -11.667 9 -17s3 -10.666 3 -15.999c0 -8.66699 -3.16699 -14.667 -9.5 -18s-18.166 -5 -35.499 -5h-18c-10 0 -17.5 1.5 -22.5 4.5
s-11.167 8.83301 -18.5 17.5z" />
    </font>
</defs>
</svg>
