<?xml version="1.0" encoding="utf-8"?>
<!-- Generator: Adobe Illustrator 24.0.0, SVG Export Plug-In . SVG Version: 6.00 Build 0)  -->
<svg version="1.1" id="Layer_1" xmlns="http://www.w3.org/2000/svg" xmlns:xlink="http://www.w3.org/1999/xlink" x="0px" y="0px"
	 viewBox="0 0 35 19" style="enable-background:new 0 0 35 19;" xml:space="preserve">
<g>
	<g>
		<g>
			<g>
				<path d="M25,18.4c-0.2,0-0.5-0.1-0.6-0.3l-12-16.7c-0.2-0.3-0.2-0.8,0.2-1c0.3-0.2,0.8-0.2,1,0.2l12,16.7c0.2,0.3,0.2,0.8-0.2,1
					C25.3,18.4,25.2,18.4,25,18.4z"/>
			</g>
		</g>
		<g>
			<g>
				<path d="M1,18.4c-0.2,0-0.3,0-0.4-0.1c-0.3-0.2-0.4-0.7-0.2-1l12-16.7c0.2-0.3,0.7-0.4,1-0.2s0.4,0.7,0.2,1l-12,16.7
					C1.5,18.3,1.2,18.4,1,18.4z"/>
			</g>
		</g>
		<g>
			<g>
				<path d="M34,17.7c-0.2,0-0.5-0.1-0.6-0.3L22.9,3c-0.2-0.3-0.2-0.8,0.2-1c0.3-0.2,0.8-0.2,1,0.2l10.5,14.4c0.2,0.3,0.2,0.8-0.2,1
					C34.3,17.6,34.2,17.7,34,17.7z"/>
			</g>
		</g>
		<g>
			<g>
				<path d="M19,9.3c-0.2,0-0.3,0-0.4-0.1c-0.3-0.2-0.4-0.7-0.2-1l4.5-6.1c0.2-0.3,0.7-0.4,1-0.2c0.3,0.2,0.4,0.7,0.2,1L19.6,9
					C19.5,9.2,19.2,9.3,19,9.3z"/>
			</g>
		</g>
	</g>
</g>
</svg>
